{"glyphs":{"0":{"ha":1172,"x_min":0,"x_max":0,"o":"m 1103 451 l 1103 596 b 1074 784 1103 664 1093 727 b 988 929 1055 841 1027 889 b 843 1022 950 969 901 1000 b 639 1056 785 1044 717 1056 l 533 1056 b 329 1023 456 1056 388 1045 b 184 931 271 1001 222 970 b 98 786 146 891 117 843 b 69 599 79 730 69 667 l 69 454 b 98 263 69 385 79 321 b 184 115 117 205 146 156 b 329 20 222 75 271 43 b 533 -14 388 -3 456 -14 l 639 -14 b 843 19 717 -14 785 -3 b 988 114 901 42 950 73 b 1074 261 1027 155 1055 204 b 1103 451 1093 319 1103 382 z m 361 410 l 361 635 b 405 788 361 707 376 758 b 553 832 434 817 483 832 l 619 832 b 767 788 689 832 738 817 b 811 635 797 758 811 707 l 811 410 b 767 256 811 338 797 286 b 619 211 738 226 689 211 l 553 211 b 405 256 483 211 434 226 b 361 410 376 286 361 338 z "},"1":{"ha":878,"x_min":0,"x_max":0,"o":"m 56 0 l 822 0 l 822 213 l 596 213 l 596 789 b 525 970 596 862 572 922 b 336 1042 478 1018 415 1042 l 69 1042 l 69 817 l 276 817 b 308 805 290 817 301 813 b 318 771 315 797 318 786 l 318 213 l 56 213 z "},"2":{"ha":961,"x_min":0,"x_max":0,"o":"m 901 218 l 340 218 l 340 246 b 353 293 340 263 345 279 b 414 339 362 307 382 322 l 615 449 b 743 522 663 475 706 499 b 837 593 780 544 811 568 b 894 678 862 618 881 646 b 914 790 907 709 914 747 b 828 974 914 868 885 929 b 556 1042 770 1019 680 1042 l 64 1042 l 64 824 l 532 824 b 603 810 562 824 585 819 b 629 757 620 800 629 783 b 614 713 629 739 624 725 b 563 678 604 702 587 690 l 342 563 b 197 474 283 532 235 503 b 104 387 158 446 127 417 b 56 289 81 357 65 324 b 42 169 46 254 42 214 l 42 0 l 901 0 z "},"3":{"ha":993,"x_min":0,"x_max":0,"o":"m 296 629 b 234 576 270 611 249 593 b 211 514 219 559 211 538 b 239 443 211 485 220 462 b 319 415 257 425 284 415 l 576 415 b 637 401 602 415 622 410 b 658 339 651 391 658 370 l 658 301 b 638 238 658 270 652 249 b 574 222 625 228 603 222 l 83 222 l 83 0 l 538 0 b 836 67 669 0 769 22 b 938 271 904 111 938 179 l 938 372 b 920 460 938 403 932 432 b 863 533 909 488 889 512 b 756 583 836 553 800 570 b 590 601 711 595 656 601 l 578 601 l 936 861 l 936 1042 l 63 1042 l 63 819 l 550 819 z "},"4":{"ha":1135,"x_min":0,"x_max":0,"o":"m 278 160 l 669 160 l 669 0 l 940 0 l 940 160 l 1100 160 l 1100 372 l 940 372 l 940 807 b 874 996 940 893 918 956 b 713 1056 830 1036 776 1056 l 676 1056 b 522 1011 621 1056 569 1041 b 390 892 474 981 430 942 l 139 576 b 53 449 99 526 71 484 b 28 343 36 415 28 379 b 88 212 28 290 48 247 b 278 160 128 177 192 160 z m 358 372 b 328 380 344 372 334 375 b 321 399 323 385 321 391 b 324 413 321 403 322 408 b 333 428 327 417 330 422 l 618 793 b 630 806 622 799 626 803 b 644 811 634 809 639 811 b 663 805 652 811 658 809 b 669 785 667 801 669 794 l 669 372 z "},"5":{"ha":985,"x_min":0,"x_max":0,"o":"m 575 658 l 326 658 l 326 810 l 926 810 l 926 1042 l 76 1042 l 76 444 l 543 444 b 633 424 587 444 616 438 b 657 346 649 411 657 385 l 657 308 b 632 235 657 271 649 247 b 536 218 615 224 583 218 l 76 218 l 76 0 l 565 0 b 855 81 704 0 801 27 b 936 308 909 135 936 211 l 936 346 b 855 583 936 454 909 533 b 575 658 801 633 707 658 z "},"6":{"ha":1061,"x_min":0,"x_max":0,"o":"m 596 647 l 354 647 l 354 661 b 395 792 354 722 368 766 b 557 831 422 818 476 831 l 960 831 l 960 1042 l 567 1042 b 342 1010 480 1042 405 1031 b 187 923 279 990 227 960 b 98 785 147 885 117 840 b 69 604 79 731 69 671 l 69 422 b 181 97 69 274 107 166 b 536 -7 256 28 374 -7 l 590 -7 b 907 75 736 -7 841 20 b 1006 313 973 130 1006 209 l 1006 360 b 906 574 1006 453 972 525 b 596 647 839 623 736 647 z m 528 192 b 391 224 461 192 416 203 b 354 354 366 246 354 289 l 354 440 l 575 440 b 694 417 632 440 672 432 b 726 332 716 401 726 373 l 726 301 b 693 220 726 266 715 239 b 563 192 671 201 627 192 z "},"7":{"ha":953,"x_min":0,"x_max":0,"o":"m 458 0 l 836 638 b 890 746 857 675 875 711 b 911 850 904 781 911 816 b 851 990 911 909 891 956 b 663 1042 812 1025 749 1042 l 50 1042 l 50 829 l 575 829 b 608 822 590 829 601 827 b 619 799 616 816 619 809 b 616 774 619 791 618 783 b 601 743 614 766 609 755 l 156 0 z "},"8":{"ha":1043,"x_min":0,"x_max":0,"o":"m 71 797 l 71 742 b 106 615 71 697 83 655 b 250 526 130 575 178 546 b 85 437 169 507 115 477 b 42 308 56 397 42 354 l 42 250 b 150 51 42 160 78 94 b 492 -14 222 8 336 -14 l 551 -14 b 893 51 707 -14 821 8 b 1001 250 965 94 1001 160 l 1001 308 b 958 437 1001 354 987 397 b 793 526 928 477 874 507 b 937 615 865 546 913 575 b 972 742 960 655 972 697 l 972 797 b 866 994 972 887 937 953 b 538 1056 795 1035 686 1056 l 506 1056 b 177 994 357 1056 248 1035 b 71 797 106 953 71 887 z m 707 764 l 707 715 b 674 649 707 684 696 662 b 543 629 651 636 608 629 l 500 629 b 369 649 435 629 392 636 b 336 715 347 662 336 684 l 336 764 b 369 831 336 795 347 818 b 493 850 391 844 432 850 l 550 850 b 674 831 611 850 653 844 b 707 764 696 818 707 795 z m 736 336 l 736 288 b 703 216 736 256 725 232 b 572 192 681 200 637 192 l 471 192 b 340 216 406 192 363 200 b 307 288 318 232 307 256 l 307 336 b 340 404 307 368 318 390 b 464 425 361 418 403 425 l 579 425 b 703 404 640 425 682 418 b 736 336 725 390 736 368 z "},"9":{"ha":1061,"x_min":0,"x_max":0,"o":"m 465 394 l 707 394 l 707 381 b 666 250 707 319 693 276 b 504 211 639 224 585 211 l 101 211 l 101 0 l 494 0 b 719 31 581 0 656 10 b 874 119 782 52 834 81 b 963 256 915 156 944 202 b 992 438 982 310 992 371 l 992 619 b 880 945 992 768 954 876 b 525 1049 805 1014 687 1049 l 471 1049 b 154 967 325 1049 220 1021 b 56 729 88 912 56 833 l 56 682 b 156 468 56 588 89 517 b 465 394 222 419 325 394 z m 486 601 b 367 625 429 601 389 609 b 335 710 346 641 335 669 l 335 740 b 368 822 335 775 346 803 b 499 850 390 841 434 850 l 533 850 b 670 817 600 850 646 839 b 707 688 695 796 707 752 l 707 601 z "}," ":{"ha":333,"x_min":0,"x_max":0,"o":""},"!":{"ha":467,"x_min":0,"x_max":0,"o":"m 83 1042 l 94 399 l 372 399 l 383 1042 z m 88 0 l 379 0 l 379 292 l 88 292 z "},"\"":{"ha":750,"x_min":0,"x_max":0,"o":"m 278 653 l 333 1042 l 97 1042 l 97 653 z m 597 653 l 653 1042 l 417 1042 l 417 653 z "},"#":{"ha":1157,"x_min":0,"x_max":0,"o":"m 1000 449 l 843 449 l 890 633 l 1088 633 l 1088 819 l 939 819 l 1004 1069 l 803 1069 l 738 819 l 571 819 l 636 1069 l 435 1069 l 369 819 l 157 819 l 157 633 l 321 633 l 274 449 l 69 449 l 69 264 l 225 264 l 157 0 l 358 0 l 426 264 l 593 264 l 525 0 l 726 0 l 794 264 l 1000 264 z m 475 449 l 522 633 l 689 633 l 642 449 z "},"$":{"ha":1044,"x_min":0,"x_max":0,"o":"m 461 -139 l 614 -139 l 614 0 b 781 28 678 2 733 11 b 897 97 828 46 867 68 b 966 194 928 125 951 157 b 989 311 981 231 989 270 b 908 503 989 394 962 458 b 665 619 853 549 773 588 l 614 635 l 614 813 l 954 813 l 954 1042 l 614 1042 l 614 1181 l 461 1181 l 461 1042 l 419 1042 b 161 965 308 1042 222 1016 b 69 758 100 914 69 845 b 139 579 69 689 93 629 b 353 461 185 529 256 490 l 461 429 l 461 229 l 97 229 l 97 0 l 461 0 z m 411 693 b 355 720 385 700 366 709 b 338 761 343 731 338 744 b 356 797 338 774 344 786 b 418 813 368 807 388 813 l 461 813 l 461 679 z m 725 299 b 704 250 725 280 718 264 b 631 229 690 236 666 229 l 614 229 l 614 385 b 701 349 656 373 686 361 b 725 299 717 338 725 321 z "},"%":{"ha":1175,"x_min":0,"x_max":0,"o":"m 56 765 b 120 610 56 701 77 650 b 278 551 163 571 216 551 l 375 551 b 527 610 433 551 484 571 b 592 765 570 650 592 701 l 592 844 b 527 998 592 908 570 959 b 375 1056 484 1036 433 1056 l 278 1056 b 120 998 216 1056 163 1036 b 56 844 77 959 56 908 z m 878 582 l 1094 1042 l 872 1042 l 657 582 z m 238 818 b 253 878 238 843 243 863 b 303 900 263 893 280 900 l 343 900 b 395 878 368 900 385 893 b 410 818 405 863 410 843 l 410 783 b 395 728 410 760 405 742 b 343 707 385 714 368 707 l 303 707 b 253 728 280 707 263 714 b 238 783 243 742 238 760 z m 583 200 b 648 45 583 136 605 84 b 806 -14 691 6 744 -14 l 903 -14 b 1055 45 961 -14 1012 6 b 1119 200 1098 84 1119 136 l 1119 279 b 1055 433 1119 343 1098 394 b 903 490 1012 471 961 490 l 806 490 b 648 433 744 490 691 471 b 583 279 605 394 583 343 z m 297 460 l 81 0 l 303 0 l 518 460 z m 765 253 b 781 313 765 278 770 298 b 831 335 791 327 807 335 l 871 335 b 923 313 896 335 913 327 b 938 253 933 298 938 278 l 938 218 b 923 163 938 195 933 176 b 871 142 913 149 896 142 l 831 142 b 781 163 807 142 791 149 b 765 218 770 176 765 195 z "},"&":{"ha":1131,"x_min":0,"x_max":0,"o":"m 817 0 l 1124 0 l 871 292 l 1122 626 l 836 626 l 721 465 l 518 700 b 496 731 509 710 501 721 b 488 764 490 742 488 753 b 505 806 488 781 493 795 b 561 821 516 816 535 821 l 929 821 l 929 1042 l 511 1042 b 385 1023 464 1042 422 1035 b 292 972 348 1010 317 994 b 236 898 268 951 249 926 b 217 808 223 870 217 840 b 231 717 217 781 222 750 b 297 600 241 683 263 644 b 111 527 215 594 153 569 b 49 357 69 485 49 428 l 49 269 b 126 63 49 174 74 105 b 358 0 177 21 255 0 l 446 0 b 608 19 513 0 567 6 b 726 103 650 32 689 60 z m 435 210 l 386 210 b 314 233 353 210 329 217 b 292 307 299 248 292 273 l 292 333 b 315 410 292 370 300 396 b 390 431 331 424 356 431 l 442 431 l 581 271 b 521 222 561 247 541 231 b 435 210 500 214 472 210 z "},"'":{"ha":431,"x_min":0,"x_max":0,"o":"m 278 653 l 333 1042 l 97 1042 l 97 653 z "},"(":{"ha":621,"x_min":0,"x_max":0,"o":"m 125 50 b 150 -73 125 4 133 -37 b 218 -162 167 -109 189 -138 b 321 -217 247 -187 281 -205 b 449 -236 361 -230 403 -236 l 538 -236 l 538 -49 l 469 -49 b 408 -27 441 -49 420 -41 b 389 50 395 -13 389 13 l 389 756 b 408 833 389 793 395 818 b 469 854 420 847 441 854 l 538 854 l 538 1042 l 449 1042 b 321 1023 403 1042 361 1035 b 218 969 281 1010 247 992 b 150 880 189 945 167 916 b 125 757 133 844 125 803 z "},")":{"ha":621,"x_min":0,"x_max":0,"o":"m 496 50 l 496 757 b 471 880 496 803 488 844 b 403 969 454 916 431 945 b 300 1023 374 992 340 1010 b 172 1042 260 1035 218 1042 l 83 1042 l 83 854 l 151 854 b 213 833 180 854 201 847 b 232 756 226 818 232 793 l 232 50 b 213 -27 232 13 226 -13 b 151 -49 201 -41 180 -49 l 83 -49 l 83 -236 l 172 -236 b 300 -217 218 -236 260 -230 b 403 -162 340 -205 374 -187 b 471 -73 431 -138 454 -109 b 496 50 488 -37 496 4 z "},"*":{"ha":726,"x_min":0,"x_max":0,"o":"m 469 525 l 582 611 l 486 726 l 643 726 l 643 860 l 486 860 l 582 975 l 469 1061 l 364 913 l 258 1061 l 144 975 l 240 860 l 83 860 l 83 726 l 242 726 l 144 611 l 258 525 l 364 674 z "},"+":{"ha":814,"x_min":0,"x_max":0,"o":"m 69 410 l 296 410 l 296 169 l 518 169 l 518 410 l 744 410 l 744 632 l 518 632 l 518 858 l 296 858 l 296 632 l 69 632 z "},",":{"ha":394,"x_min":0,"x_max":0,"o":"m 10 -181 l 247 -181 b 319 -50 284 -131 308 -87 b 336 85 331 -13 336 32 l 336 278 l 68 278 l 68 83 b 67 5 68 52 68 26 b 61 -53 67 -16 65 -35 b 44 -108 57 -70 52 -89 b 10 -181 36 -128 25 -152 z "},"-":{"ha":508,"x_min":0,"x_max":0,"o":"m 83 294 l 425 294 l 425 535 l 83 535 z "},".":{"ha":458,"x_min":0,"x_max":0,"o":"m 83 0 l 375 0 l 375 292 l 83 292 z "},"/":{"ha":542,"x_min":0,"x_max":0,"o":"m 292 1042 l 14 -153 l 250 -153 l 528 1042 z "},":":{"ha":458,"x_min":0,"x_max":0,"o":"m 83 0 l 375 0 l 375 292 l 83 292 z "},";":{"ha":413,"x_min":0,"x_max":0,"o":"m 10 -181 l 247 -181 b 319 -50 284 -131 308 -87 b 336 85 331 -13 336 32 l 336 278 l 68 278 l 68 83 b 67 5 68 52 68 26 b 61 -53 67 -16 65 -35 b 44 -108 57 -70 52 -89 b 10 -181 36 -128 25 -152 z "},"<":{"ha":654,"x_min":0,"x_max":0,"o":"m 543 400 l 313 522 l 543 643 l 543 883 l 164 654 b 105 605 144 642 124 626 b 76 528 86 584 76 558 l 76 515 b 105 438 76 485 86 459 b 164 389 124 417 144 401 l 543 160 z "},"=":{"ha":731,"x_min":0,"x_max":0,"o":"m 69 590 l 661 590 l 661 813 l 69 813 z m 69 229 l 661 229 l 661 451 l 69 451 z "},">":{"ha":654,"x_min":0,"x_max":0,"o":"m 490 389 b 549 438 511 401 530 417 b 578 515 568 459 578 485 l 578 528 b 549 605 578 558 568 584 b 490 654 530 626 511 642 l 111 883 l 111 643 l 342 522 l 111 400 l 111 160 z "},"?":{"ha":869,"x_min":0,"x_max":0,"o":"m 800 725 b 697 964 800 832 766 912 b 390 1042 628 1016 525 1042 l 69 1042 l 69 825 l 403 825 b 509 802 454 825 489 817 b 539 721 529 787 539 760 b 512 639 539 682 530 655 b 417 615 494 623 462 615 l 201 615 l 201 399 l 390 399 b 697 478 525 399 628 425 b 800 725 766 531 800 613 z m 201 0 l 493 0 l 493 292 l 201 292 z "},"@":{"ha":1164,"x_min":0,"x_max":0,"o":"m 76 761 l 681 761 b 808 719 740 761 782 747 b 847 590 834 691 847 648 l 847 201 l 701 201 l 701 632 l 393 632 b 145 558 280 632 197 607 b 67 369 93 508 67 445 l 67 286 b 157 65 67 181 97 108 b 421 0 217 22 305 0 l 1083 0 l 1083 579 b 974 881 1083 705 1047 806 b 639 993 902 956 790 993 l 76 993 z m 389 201 b 309 224 351 201 324 209 b 286 293 294 238 286 262 l 286 349 b 309 417 286 380 294 403 b 389 438 324 431 351 438 l 486 438 l 486 201 z "},"A":{"ha":1236,"x_min":0,"x_max":0,"o":"m 940 0 l 1229 0 l 886 843 b 785 999 860 908 827 960 b 615 1058 744 1039 688 1058 b 452 999 546 1058 491 1038 b 353 840 413 959 380 906 l 7 0 l 288 0 l 371 218 l 858 218 z m 592 790 b 601 808 594 798 598 804 b 617 815 605 813 610 815 b 633 808 624 815 629 813 b 642 790 636 803 639 797 l 776 433 l 454 433 z "},"B":{"ha":1107,"x_min":0,"x_max":0,"o":"m 597 1042 l 90 1042 l 90 0 l 614 0 b 963 63 778 0 894 21 b 1065 274 1031 105 1065 175 l 1065 322 b 1021 445 1065 367 1050 408 b 871 532 991 483 941 512 b 1003 617 935 552 979 581 b 1039 736 1027 654 1039 694 l 1039 782 b 1010 910 1039 834 1029 876 b 927 989 991 943 964 969 b 789 1030 891 1008 844 1022 b 597 1042 733 1038 669 1042 z m 617 844 b 727 822 672 844 709 837 b 754 751 745 806 754 783 l 754 719 b 726 651 754 688 745 665 b 610 631 708 638 669 631 l 368 631 l 368 844 z m 643 425 b 755 399 700 425 738 416 b 781 325 772 381 781 356 l 781 292 b 754 221 781 260 772 237 b 636 197 737 205 697 197 l 368 197 l 368 425 z "},"C":{"ha":1001,"x_min":0,"x_max":0,"o":"m 960 229 l 578 229 b 396 280 489 229 428 246 b 347 447 363 314 347 369 l 347 594 b 394 762 347 672 363 728 b 571 813 426 796 485 813 l 953 813 l 953 1042 l 557 1042 b 339 1010 475 1042 402 1031 b 182 922 276 990 224 960 b 88 781 140 883 109 836 b 56 597 66 726 56 665 l 56 444 b 88 260 56 377 66 316 b 182 120 109 205 140 159 b 339 31 224 82 276 52 b 557 0 402 10 475 0 l 960 0 z "},"D":{"ha":1181,"x_min":0,"x_max":0,"o":"m 631 1042 l 90 1042 l 90 0 l 631 0 b 848 31 713 0 785 10 b 1003 120 910 52 962 82 b 1094 260 1044 159 1074 205 b 1125 444 1115 316 1125 377 l 1125 597 b 1094 781 1125 665 1115 726 b 1003 922 1074 836 1044 883 b 848 1010 962 960 910 990 b 631 1042 785 1031 713 1042 z m 613 822 b 789 772 700 822 759 805 b 833 596 819 738 833 679 l 833 447 b 788 271 833 364 818 305 b 606 219 758 237 697 219 l 368 219 l 368 822 z "},"E":{"ha":1039,"x_min":0,"x_max":0,"o":"m 90 0 l 960 0 l 960 229 l 361 229 l 361 410 l 960 410 l 960 632 l 361 632 l 361 813 l 960 813 l 960 1042 l 90 1042 z "},"F":{"ha":994,"x_min":0,"x_max":0,"o":"m 90 0 l 368 0 l 368 392 l 911 392 l 911 621 l 368 621 l 368 813 l 911 813 l 911 1042 l 90 1042 z "},"G":{"ha":1188,"x_min":0,"x_max":0,"o":"m 1099 1042 l 557 1042 b 339 1010 475 1042 402 1031 b 182 922 276 990 224 960 b 88 781 140 883 109 836 b 56 597 66 726 56 665 l 56 449 b 181 108 56 303 97 190 b 561 -14 265 27 392 -14 l 713 -14 b 1013 60 843 -14 943 11 b 1118 289 1083 109 1118 185 l 1118 618 l 588 618 l 588 399 l 868 399 l 868 307 b 834 234 868 274 857 249 b 722 211 811 219 774 211 l 553 211 b 394 263 478 211 425 228 b 347 438 363 297 347 355 l 347 594 b 394 762 347 672 363 728 b 571 813 426 796 485 813 l 1099 813 z "},"H":{"ha":1229,"x_min":0,"x_max":0,"o":"m 90 0 l 368 0 l 368 404 l 861 404 l 861 0 l 1139 0 l 1139 1042 l 861 1042 l 861 647 l 368 647 l 368 1042 l 90 1042 z "},"I":{"ha":472,"x_min":0,"x_max":0,"o":"m 97 0 l 375 0 l 375 1042 l 97 1042 z "},"J":{"ha":878,"x_min":0,"x_max":0,"o":"m 56 0 l 343 0 b 683 108 500 0 613 36 b 788 401 753 179 788 277 l 788 1042 l 510 1042 l 510 379 b 474 263 510 325 498 286 b 343 229 450 241 406 229 l 56 229 z "},"K":{"ha":1118,"x_min":0,"x_max":0,"o":"m 83 0 l 361 0 l 361 408 l 413 408 b 480 393 441 408 464 403 b 539 331 496 383 516 362 l 783 0 l 1104 0 l 697 533 l 1093 1042 l 781 1042 l 529 703 b 478 653 510 677 493 660 b 413 642 463 645 441 642 l 361 642 l 361 1042 l 83 1042 z "},"L":{"ha":939,"x_min":0,"x_max":0,"o":"m 90 0 l 897 0 l 897 229 l 368 229 l 368 1042 l 90 1042 z "},"M":{"ha":1611,"x_min":0,"x_max":0,"o":"m 56 0 l 324 0 l 379 783 b 385 808 380 794 382 802 b 404 818 389 815 395 818 b 422 810 412 818 418 815 b 432 786 427 804 430 796 l 529 232 b 619 53 541 160 571 100 b 813 -17 668 7 732 -17 b 1001 51 890 -17 953 6 b 1090 231 1048 97 1078 156 l 1183 788 b 1192 809 1184 796 1187 803 b 1210 818 1196 815 1202 818 b 1227 808 1219 818 1225 815 b 1232 785 1229 802 1231 794 l 1288 0 l 1556 0 l 1490 744 b 1412 984 1481 855 1455 934 b 1215 1058 1369 1034 1303 1058 b 1016 981 1132 1058 1066 1033 b 922 772 966 930 935 860 l 843 256 b 835 229 842 244 839 236 b 814 219 830 223 823 219 b 794 228 805 219 798 222 b 785 253 790 233 787 242 l 703 771 b 608 981 689 860 657 930 b 407 1058 558 1033 491 1058 b 212 985 328 1058 263 1034 b 121 744 160 936 130 856 z "},"N":{"ha":1349,"x_min":0,"x_max":0,"o":"m 90 0 l 368 0 l 368 793 b 373 815 368 802 370 809 b 392 822 376 820 382 822 b 408 813 399 822 404 819 b 417 794 411 807 414 801 l 643 242 b 767 51 676 161 718 98 b 975 -18 817 5 886 -18 b 1083 0 1012 -18 1048 -12 b 1173 55 1117 12 1147 30 b 1235 147 1198 79 1219 110 b 1258 276 1250 184 1258 227 l 1258 1042 l 981 1042 l 981 247 b 976 226 981 238 979 231 b 957 218 972 221 966 218 b 941 227 950 218 944 221 b 932 246 938 233 935 239 l 706 799 b 583 987 674 876 633 939 b 374 1058 532 1034 463 1058 b 266 1039 337 1058 301 1052 b 176 983 231 1026 201 1007 b 114 890 150 958 130 927 b 90 764 98 853 90 811 z "},"O":{"ha":1214,"x_min":0,"x_max":0,"o":"m 1158 449 l 1158 593 b 1127 783 1158 663 1148 726 b 1033 928 1106 840 1075 888 b 875 1022 992 969 939 1000 b 653 1056 811 1044 737 1056 l 561 1056 b 339 1022 477 1056 403 1044 b 181 928 275 1000 222 969 b 87 783 139 888 108 840 b 56 593 66 726 56 663 l 56 449 b 87 259 56 379 66 316 b 181 113 108 202 139 153 b 339 19 222 73 275 42 b 561 -14 403 -3 477 -14 l 653 -14 b 875 19 737 -14 811 -3 b 1033 113 939 42 992 73 b 1127 259 1075 153 1106 202 b 1158 449 1148 316 1158 379 z m 347 438 l 347 607 b 394 781 347 689 363 747 b 553 832 425 815 478 832 l 661 832 b 820 781 736 832 789 815 b 867 607 851 747 867 689 l 867 438 b 820 263 867 355 851 297 b 661 211 789 228 736 211 l 553 211 b 394 263 478 211 425 228 b 347 438 363 297 347 355 z "},"P":{"ha":1081,"x_min":0,"x_max":0,"o":"m 1032 747 b 929 974 1032 853 998 928 b 611 1042 861 1019 755 1042 l 90 1042 l 90 0 l 368 0 l 368 347 l 611 347 b 929 411 755 347 861 369 b 1032 644 998 454 1032 531 z m 754 653 b 724 578 754 621 744 597 b 619 551 704 560 669 551 l 368 551 l 368 838 l 619 838 b 724 810 669 838 704 828 b 754 735 744 792 754 767 z "},"Q":{"ha":1214,"x_min":0,"x_max":0,"o":"m 704 -208 l 996 -208 l 819 4 b 1074 161 932 30 1017 82 b 1158 449 1130 240 1158 336 l 1158 593 b 1127 783 1158 663 1148 726 b 1033 928 1106 840 1075 888 b 875 1022 992 969 939 1000 b 653 1056 811 1044 737 1056 l 561 1056 b 339 1022 477 1056 403 1044 b 181 928 275 1000 222 969 b 87 783 139 888 108 840 b 56 593 66 726 56 663 l 56 449 b 86 262 56 380 66 318 b 177 117 106 206 137 158 b 331 22 217 77 269 45 b 546 -14 393 -1 464 -13 z m 347 438 l 347 607 b 394 781 347 689 363 747 b 553 832 425 815 478 832 l 661 832 b 820 781 736 832 789 815 b 867 607 851 747 867 689 l 867 438 b 820 263 867 355 851 297 b 661 211 789 228 736 211 l 553 211 b 394 263 478 211 425 228 b 347 438 363 297 347 355 z "},"R":{"ha":1122,"x_min":0,"x_max":0,"o":"m 1090 0 l 738 426 l 771 426 b 895 445 814 426 856 433 b 998 499 934 458 969 475 b 1068 584 1027 522 1050 550 b 1094 700 1086 618 1094 656 l 1094 760 b 999 975 1094 859 1063 931 b 701 1042 935 1019 836 1042 l 90 1042 l 90 0 l 368 0 l 368 828 l 729 828 b 801 806 763 828 786 820 b 822 742 815 791 822 769 l 822 696 b 800 631 822 670 815 648 b 732 606 785 614 763 606 l 594 606 b 482 570 547 606 510 594 b 440 467 454 547 440 512 b 454 397 440 446 445 423 b 503 318 463 371 480 345 l 779 0 z "},"S":{"ha":1044,"x_min":0,"x_max":0,"o":"m 603 388 b 699 349 650 374 682 361 b 725 299 716 338 725 321 b 704 250 725 280 718 264 b 631 229 690 236 666 229 l 97 229 l 97 0 l 589 0 b 766 25 656 0 716 8 b 891 92 816 42 858 64 b 965 190 924 119 948 152 b 989 311 981 228 989 269 b 908 503 989 394 962 458 b 665 619 853 549 773 588 l 411 693 b 355 720 385 700 366 709 b 338 761 343 731 338 744 b 356 797 338 774 344 786 b 418 813 368 807 388 813 l 954 813 l 954 1042 l 419 1042 b 161 965 308 1042 222 1016 b 69 758 100 914 69 845 b 139 579 69 689 93 629 b 353 461 185 529 256 490 z "},"T":{"ha":1139,"x_min":0,"x_max":0,"o":"m 431 0 l 708 0 l 708 813 l 1104 813 l 1104 1042 l 35 1042 l 35 813 l 431 813 z "},"U":{"ha":1181,"x_min":0,"x_max":0,"o":"m 517 -18 l 667 -18 b 872 8 748 -18 817 -9 b 1005 85 928 26 972 52 b 1076 210 1038 119 1061 161 b 1097 376 1090 259 1097 314 l 1097 1042 l 819 1042 l 819 350 b 784 240 819 300 808 263 b 671 204 760 216 723 204 l 513 204 b 395 240 457 204 418 216 b 361 350 372 263 361 300 l 361 1042 l 83 1042 l 83 376 b 183 86 83 252 117 156 b 517 -18 250 17 361 -18 z "},"V":{"ha":1125,"x_min":0,"x_max":0,"o":"m 319 1042 l 14 1042 l 281 229 b 383 47 306 149 341 88 b 572 -14 425 6 488 -14 b 753 51 650 -14 710 8 b 853 229 795 95 829 154 l 1111 1042 l 831 1042 l 603 250 b 591 224 599 238 595 229 b 571 215 587 218 580 215 b 552 224 563 215 556 218 b 542 249 548 230 544 238 z "},"W":{"ha":1694,"x_min":0,"x_max":0,"o":"m 299 1042 l 21 1042 l 160 254 b 248 62 174 176 203 112 b 449 -14 293 11 360 -14 b 641 56 533 -14 597 9 b 728 246 685 102 714 165 l 821 796 b 828 815 822 804 824 811 b 844 822 831 820 837 822 b 861 815 852 822 857 820 b 868 796 865 811 867 804 l 958 249 b 1051 57 971 168 1002 104 b 1258 -14 1100 10 1169 -14 b 1442 50 1338 -14 1399 7 b 1529 236 1485 93 1514 155 l 1674 1042 l 1396 1042 l 1279 250 b 1272 225 1278 240 1276 231 b 1247 215 1267 219 1259 215 b 1229 224 1240 215 1234 218 b 1219 247 1225 229 1221 237 l 1131 774 b 1048 979 1116 858 1088 926 b 854 1058 1008 1032 943 1058 b 653 980 766 1058 699 1032 b 563 772 608 928 577 858 l 474 246 b 466 224 473 238 470 230 b 447 215 462 218 456 215 b 426 225 438 215 431 219 b 418 249 422 231 419 239 z "},"X":{"ha":1171,"x_min":0,"x_max":0,"o":"m 633 311 l 850 0 l 1157 0 l 772 521 l 1146 1042 l 833 1042 l 625 735 b 605 714 619 725 612 719 b 585 707 598 709 591 707 b 565 715 578 708 572 711 b 547 735 559 720 553 726 l 339 1042 l 14 1042 l 399 521 l 25 0 l 328 0 l 542 311 b 564 334 548 321 556 329 b 588 342 572 339 580 342 b 612 333 596 342 604 339 b 633 311 620 328 627 320 z "},"Y":{"ha":1111,"x_min":0,"x_max":0,"o":"m 417 0 l 694 0 l 694 363 l 1097 1042 l 807 1042 l 590 681 b 558 659 582 666 571 659 b 526 681 544 659 534 667 l 325 1042 l 14 1042 l 417 363 z "},"Z":{"ha":999,"x_min":0,"x_max":0,"o":"m 942 0 l 942 229 l 353 229 b 318 237 338 229 326 232 b 306 263 310 242 306 250 b 314 288 306 274 308 282 b 339 306 319 293 328 299 l 761 546 b 915 679 833 588 885 632 b 961 822 946 726 961 774 b 886 988 961 897 936 953 b 632 1042 836 1024 751 1042 l 60 1042 l 60 813 l 633 813 b 666 804 648 813 659 810 b 676 782 673 799 676 791 b 671 763 676 775 675 768 b 651 747 667 757 661 752 l 246 522 b 78 389 171 480 115 435 b 24 229 42 343 24 289 b 42 142 24 199 30 169 b 97 69 54 114 72 90 b 191 19 121 48 153 31 b 328 0 229 6 275 0 z "},"[":{"ha":607,"x_min":0,"x_max":0,"o":"m 125 -236 l 524 -236 l 524 -49 l 375 -49 l 375 840 l 524 840 l 524 1042 l 125 1042 z "},"\\":{"ha":542,"x_min":0,"x_max":0,"o":"m 250 1042 l 14 1042 l 292 -153 l 528 -153 z "},"]":{"ha":607,"x_min":0,"x_max":0,"o":"m 482 -236 l 482 1042 l 83 1042 l 83 840 l 232 840 l 232 -49 l 83 -49 l 83 -236 z "},"^":{"ha":982,"x_min":0,"x_max":0,"o":"m 564 461 l 754 461 l 614 663 b 567 709 602 679 586 695 b 492 731 547 723 522 731 b 415 708 461 731 436 723 b 368 663 395 692 379 677 l 228 461 l 418 461 l 492 575 z "},"_":{"ha":619,"x_min":0,"x_max":0,"o":"m 0 -240 l 619 -240 l 619 0 l 0 0 z "},"`":{"ha":982,"x_min":0,"x_max":0,"o":"m 597 933 l 507 1194 l 292 1194 l 389 933 z "},"a":{"ha":951,"x_min":0,"x_max":0,"o":"m 871 451 b 768 733 871 572 837 666 b 426 833 700 800 586 833 l 61 833 l 61 632 l 500 632 l 264 469 b 107 349 203 428 150 388 b 42 196 63 311 42 260 b 108 54 42 138 64 90 b 300 0 153 18 217 0 l 871 0 z m 375 201 b 338 209 357 201 345 204 b 326 232 330 214 326 222 b 336 255 326 241 330 249 b 369 282 343 261 354 270 l 621 478 l 621 201 z "},"b":{"ha":1053,"x_min":0,"x_max":0,"o":"m 81 0 l 672 0 b 914 103 775 0 856 34 b 1001 375 972 171 1001 262 l 1001 472 b 914 744 1001 585 972 676 b 672 847 856 813 775 847 l 344 847 l 344 1042 l 81 1042 z m 582 642 b 699 606 638 642 677 630 b 731 489 720 583 731 544 l 731 365 b 699 244 731 311 720 270 b 582 206 677 219 638 206 l 344 206 l 344 642 z "},"c":{"ha":863,"x_min":0,"x_max":0,"o":"m 481 632 l 793 632 l 793 833 l 472 833 b 150 735 323 833 216 801 b 51 467 84 670 51 581 l 51 365 b 150 97 51 251 84 162 b 472 0 216 32 323 0 l 793 0 l 793 201 l 481 201 b 360 229 426 201 386 211 b 322 340 335 248 322 285 l 322 483 b 360 595 322 533 335 571 b 481 632 386 620 426 632 z "},"d":{"ha":1053,"x_min":0,"x_max":0,"o":"m 972 1042 l 708 1042 l 708 833 l 381 833 b 139 731 278 833 197 799 b 51 458 81 662 51 571 l 51 375 b 139 103 51 262 81 171 b 381 0 197 34 278 0 l 972 0 z m 471 206 b 354 241 414 206 375 217 b 322 358 333 265 322 304 l 322 468 b 354 589 322 523 333 563 b 471 628 375 615 414 628 l 708 628 l 708 206 z "},"e":{"ha":971,"x_min":0,"x_max":0,"o":"m 915 339 l 915 460 b 897 617 915 517 909 569 b 834 738 885 664 864 704 b 711 817 804 772 763 798 b 517 844 659 835 594 844 l 461 844 b 147 745 316 844 211 811 b 51 481 83 679 51 591 l 51 375 b 74 222 51 319 59 269 b 148 103 90 176 114 136 b 283 27 182 71 227 45 b 489 0 339 9 407 0 l 896 0 l 896 201 l 474 201 b 354 228 417 201 377 210 b 319 333 331 245 319 281 l 319 339 z m 547 658 b 638 629 590 658 620 649 b 665 532 656 610 665 577 l 665 514 l 319 514 l 319 532 b 346 629 319 577 328 610 b 439 658 363 649 394 658 z "},"f":{"ha":683,"x_min":0,"x_max":0,"o":"m 169 0 l 433 0 l 433 632 l 669 632 l 669 833 l 406 833 l 406 860 b 421 910 406 883 411 900 b 467 925 431 920 446 925 l 669 925 l 669 1097 l 478 1097 b 249 1031 370 1097 294 1075 b 171 833 203 986 177 920 l 42 833 l 42 632 l 169 632 z "},"g":{"ha":1025,"x_min":0,"x_max":0,"o":"m 507 -208 b 843 -134 663 -208 775 -184 b 944 114 911 -84 944 -2 l 944 833 l 374 833 b 139 739 275 833 197 802 b 51 479 81 676 51 589 l 51 447 b 139 197 51 341 81 257 b 374 107 197 137 275 107 l 681 107 l 681 89 b 649 14 681 56 670 31 b 510 -11 627 -3 581 -11 l 108 -11 l 108 -208 z m 456 296 b 351 330 406 296 371 307 b 322 435 332 353 322 388 l 322 499 b 351 601 322 547 332 581 b 456 631 371 621 406 631 l 681 631 l 681 296 z "},"h":{"ha":1024,"x_min":0,"x_max":0,"o":"m 81 0 l 344 0 l 344 618 l 575 618 b 658 591 616 618 643 609 b 679 500 672 573 679 543 l 679 0 l 943 0 l 943 493 b 861 742 943 598 916 681 b 597 833 806 803 719 833 l 344 833 l 344 1042 l 81 1042 z "},"i":{"ha":458,"x_min":0,"x_max":0,"o":"m 361 906 l 361 1069 l 97 1069 l 97 906 z m 97 0 l 361 0 l 361 833 l 97 833 z "},"j":{"ha":438,"x_min":0,"x_max":0,"o":"m 347 906 l 347 1069 l 83 1069 l 83 906 z m 83 833 l 83 43 b 67 -13 83 16 78 -3 b 22 -29 57 -24 42 -29 l -42 -29 l -42 -208 l 69 -208 b 273 -140 156 -208 223 -186 b 347 65 322 -95 347 -26 l 347 833 z "},"k":{"ha":990,"x_min":0,"x_max":0,"o":"m 81 0 l 344 0 l 344 313 l 368 313 b 420 307 391 313 409 311 b 460 274 432 303 445 292 l 676 0 l 990 0 l 635 424 l 979 833 l 676 833 l 471 571 b 433 542 459 556 446 546 b 374 535 419 537 400 535 l 344 535 l 344 1042 l 81 1042 z "},"l":{"ha":458,"x_min":0,"x_max":0,"o":"m 97 1042 l 97 0 l 361 0 l 361 1042 z "},"m":{"ha":1511,"x_min":0,"x_max":0,"o":"m 81 0 l 344 0 l 344 618 l 622 618 l 622 0 l 886 0 l 886 618 l 1061 618 b 1144 591 1102 618 1129 609 b 1165 500 1158 573 1165 543 l 1165 0 l 1429 0 l 1429 493 b 1344 742 1429 598 1401 681 b 1069 833 1288 803 1196 833 l 81 833 z "},"n":{"ha":1024,"x_min":0,"x_max":0,"o":"m 81 0 l 344 0 l 344 618 l 575 618 b 658 591 616 618 643 609 b 679 500 672 573 679 543 l 679 0 l 943 0 l 943 493 b 861 742 943 598 916 681 b 597 833 806 803 719 833 l 81 833 z "},"o":{"ha":1010,"x_min":0,"x_max":0,"o":"m 958 467 b 853 744 958 582 923 675 b 554 847 784 813 684 847 l 457 847 b 157 744 327 847 227 813 b 51 467 87 675 51 582 l 51 367 b 157 90 51 251 87 159 b 457 -14 227 21 327 -14 l 554 -14 b 853 90 684 -14 784 21 b 958 367 923 159 958 251 z m 688 489 l 688 346 b 658 224 688 291 678 251 b 551 185 638 198 602 185 l 460 185 b 353 224 409 185 373 198 b 322 346 332 251 322 291 l 322 489 b 353 609 322 543 332 583 b 460 649 373 635 409 649 l 551 649 b 658 609 602 649 638 635 b 688 489 678 583 688 543 z "},"p":{"ha":1053,"x_min":0,"x_max":0,"o":"m 81 -208 l 344 -208 l 344 0 l 672 0 b 914 103 775 0 856 34 b 1001 375 972 171 1001 262 l 1001 458 b 914 731 1001 571 972 662 b 672 833 856 799 775 833 l 81 833 z m 582 628 b 699 592 638 628 677 616 b 731 475 720 569 731 530 l 731 365 b 699 244 731 311 720 270 b 582 206 677 219 638 206 l 344 206 l 344 628 z "},"q":{"ha":1053,"x_min":0,"x_max":0,"o":"m 972 833 l 381 833 b 139 731 278 833 197 799 b 51 458 81 662 51 571 l 51 375 b 139 103 51 262 81 171 b 381 0 197 34 278 0 l 708 0 l 708 -208 l 972 -208 z m 471 206 b 354 241 414 206 375 217 b 322 358 333 265 322 304 l 322 468 b 354 589 322 523 333 563 b 471 628 375 615 414 628 l 708 628 l 708 206 z "},"r":{"ha":669,"x_min":0,"x_max":0,"o":"m 81 524 l 81 0 l 344 0 l 344 521 b 369 607 344 562 353 590 b 464 632 385 624 417 632 l 649 632 l 649 833 l 404 833 b 256 807 347 833 297 825 b 156 738 215 789 181 766 b 99 639 130 709 111 676 b 81 524 87 602 81 563 z "},"s":{"ha":885,"x_min":0,"x_max":0,"o":"m 539 292 b 588 276 559 288 576 283 b 607 246 601 270 607 260 b 594 214 607 233 603 222 b 536 201 585 206 566 201 l 83 201 l 83 0 l 492 0 b 751 70 607 0 694 23 b 836 253 808 117 836 178 b 770 413 836 319 814 373 b 551 504 726 453 653 484 l 346 544 b 303 563 325 548 311 554 b 290 592 294 571 290 581 b 304 619 290 602 295 611 b 360 632 313 628 332 632 l 794 632 l 794 833 l 381 833 b 234 814 324 833 275 827 b 133 761 193 801 159 783 b 74 683 106 739 87 713 b 56 590 62 654 56 623 b 122 424 56 521 78 465 b 313 336 166 382 229 353 z "},"t":{"ha":753,"x_min":0,"x_max":0,"o":"m 28 632 l 149 632 l 149 294 b 223 73 149 195 173 122 b 469 0 272 24 355 0 l 690 0 l 690 201 l 500 201 b 428 222 467 201 443 208 b 406 294 413 235 406 259 l 406 632 l 690 632 l 690 833 l 406 833 l 406 1003 l 163 1003 l 163 833 l 28 833 z "},"u":{"ha":1024,"x_min":0,"x_max":0,"o":"m 679 215 l 449 215 b 366 242 408 215 380 224 b 344 333 352 260 344 291 l 344 833 l 81 833 l 81 340 b 163 92 81 236 108 153 b 426 0 217 31 305 0 l 943 0 l 943 833 l 679 833 z "},"v":{"ha":1004,"x_min":0,"x_max":0,"o":"m 288 833 l 15 833 l 243 192 b 344 37 268 122 302 71 b 508 -14 387 3 442 -14 b 663 38 570 -14 622 3 b 764 203 703 73 737 128 l 989 833 l 725 833 l 540 251 b 525 216 535 234 530 222 b 508 207 520 210 515 207 b 489 215 500 207 494 209 b 474 249 484 220 479 231 z "},"w":{"ha":1486,"x_min":0,"x_max":0,"o":"m 744 851 b 640 832 705 851 670 845 b 564 781 609 819 584 802 b 515 708 544 759 527 735 b 492 625 503 681 495 654 l 436 224 b 428 199 435 213 433 205 b 410 190 424 193 418 190 b 392 199 402 190 397 193 b 383 225 388 204 385 213 l 286 833 l 21 833 l 144 199 b 235 39 158 127 188 74 b 410 -14 281 4 339 -14 b 588 50 483 -14 542 7 b 669 218 633 93 660 149 l 719 600 b 725 621 720 609 722 616 b 742 628 728 625 733 628 b 759 621 750 628 756 625 b 765 601 762 616 764 610 l 825 219 b 913 50 836 149 866 93 b 1110 -14 961 7 1026 -14 b 1276 42 1175 -14 1230 5 b 1361 196 1322 79 1350 130 l 1465 833 l 1217 833 l 1125 224 b 1118 200 1124 214 1122 206 b 1100 190 1114 194 1108 190 b 1081 200 1092 190 1085 194 b 1072 224 1076 206 1073 214 l 1011 622 b 987 708 1006 652 998 681 b 938 781 975 736 959 760 b 858 832 916 802 890 819 b 744 851 827 845 789 851 z "},"x":{"ha":1026,"x_min":0,"x_max":0,"o":"m 544 222 l 704 0 l 999 0 l 693 422 l 988 833 l 701 833 l 539 596 b 513 575 530 582 521 575 b 486 596 504 575 495 582 l 322 833 l 28 833 l 346 399 l 39 0 l 325 0 l 483 222 b 515 243 494 237 504 244 b 544 222 525 242 535 235 z "},"y":{"ha":1000,"x_min":0,"x_max":0,"o":"m 488 335 l 304 833 l 14 833 l 256 240 b 313 164 269 206 289 181 b 407 139 338 147 369 139 l 474 139 l 464 111 b 420 35 452 76 437 51 b 344 13 403 20 378 13 l 93 13 l 93 -208 l 321 -208 b 560 -142 421 -208 501 -186 b 688 25 620 -98 663 -43 l 986 833 l 706 833 l 543 335 b 531 315 539 325 535 318 b 517 310 527 311 522 310 b 501 315 512 310 507 311 b 488 335 496 318 491 325 z "},"z":{"ha":929,"x_min":0,"x_max":0,"o":"m 868 0 l 868 201 l 357 201 b 327 210 344 201 334 204 b 317 233 320 215 317 223 b 326 256 317 243 320 250 b 354 269 333 261 342 266 l 658 361 b 817 449 725 381 778 411 b 876 611 857 488 876 542 b 808 772 876 678 853 731 b 574 833 762 813 684 833 l 88 833 l 88 632 l 579 632 b 610 624 593 632 603 629 b 619 603 616 619 619 612 b 610 582 619 594 616 588 b 583 568 604 576 595 572 l 290 476 b 125 386 224 456 169 426 b 60 228 81 346 60 294 b 131 65 60 163 84 109 b 351 0 179 22 252 0 z "},"{":{"ha":563,"x_min":0,"x_max":0,"o":"m 278 406 b 361 453 317 412 344 428 b 386 561 378 478 386 514 l 386 742 b 408 830 386 784 393 814 b 481 854 422 846 446 854 l 535 854 l 535 1042 l 390 1042 b 215 983 317 1042 259 1022 b 150 799 172 944 150 883 l 150 594 b 131 525 150 563 144 540 b 69 503 119 510 98 503 l 28 503 l 28 303 l 69 303 b 131 281 98 303 119 295 b 150 211 144 266 150 243 l 150 7 b 215 -178 150 -77 172 -139 b 390 -236 259 -217 317 -236 l 535 -236 l 535 -49 l 481 -49 b 408 -24 446 -49 422 -41 b 386 64 393 -8 386 21 l 386 244 b 361 353 386 292 378 328 b 278 400 344 378 317 394 z "},"|":{"ha":431,"x_min":0,"x_max":0,"o":"m 97 1042 l 97 -153 l 333 -153 l 333 1042 z "},"}":{"ha":563,"x_min":0,"x_max":0,"o":"m 285 406 l 285 400 b 201 353 246 394 218 378 b 176 244 185 328 176 292 l 176 64 b 155 -24 176 21 169 -8 b 82 -49 141 -41 116 -49 l 28 -49 l 28 -236 l 172 -236 b 347 -178 245 -236 304 -217 b 413 7 391 -139 413 -77 l 413 211 b 431 281 413 243 419 266 b 493 303 444 295 464 303 l 535 303 l 535 503 l 493 503 b 431 525 464 503 444 510 b 413 594 419 540 413 563 l 413 799 b 347 983 413 883 391 944 b 172 1042 304 1022 245 1042 l 28 1042 l 28 854 l 82 854 b 155 830 116 854 141 846 b 176 742 169 814 176 784 l 176 561 b 201 453 176 514 185 478 b 285 406 218 428 246 412 z "},"~":{"ha":1194,"x_min":0,"x_max":0,"o":"m 674 594 l 626 631 b 549 681 596 654 570 671 b 471 697 528 692 502 697 b 363 657 428 697 392 684 b 318 542 333 630 318 592 l 318 433 l 456 433 l 456 519 b 463 545 456 531 458 540 b 479 553 467 550 473 553 b 500 546 487 553 494 550 b 524 528 506 541 514 535 l 571 492 b 648 441 601 469 627 452 b 726 425 669 430 695 425 b 836 467 771 425 807 439 b 879 583 865 496 879 534 l 879 689 l 742 689 l 742 603 b 736 577 742 591 740 582 b 719 569 732 572 727 569 b 699 576 711 569 704 572 z "},"¡":{"ha":467,"x_min":0,"x_max":0,"o":"m 379 833 l 88 833 l 88 542 l 379 542 z m 383 -208 l 372 435 l 94 435 l 83 -208 z "},"¢":{"ha":932,"x_min":0,"x_max":0,"o":"m 503 -139 l 656 -139 l 656 0 l 863 0 l 863 201 l 656 201 l 656 632 l 863 632 l 863 833 l 656 833 l 656 972 l 503 972 l 503 833 l 472 833 b 150 735 323 833 216 801 b 51 467 84 670 51 581 l 51 365 b 150 97 51 251 84 162 b 472 0 216 32 323 0 l 503 0 z m 481 632 l 503 632 l 503 201 l 481 201 b 360 229 426 201 386 211 b 322 340 335 248 322 285 l 322 483 b 360 595 322 533 335 571 b 481 632 386 620 426 632 z "},"£":{"ha":1054,"x_min":0,"x_max":0,"o":"m 42 218 l 42 0 l 1013 0 l 1013 218 l 521 218 l 521 417 l 1003 417 l 1003 635 l 521 635 l 521 760 b 547 810 521 784 530 800 b 618 824 565 819 588 824 l 1003 824 l 1003 1042 l 608 1042 b 336 971 484 1042 394 1018 b 250 783 279 924 250 861 l 250 635 l 42 635 l 42 417 l 250 417 l 250 218 z "},"¤":{"ha":956,"x_min":0,"x_max":0,"o":"m 478 122 b 585 138 515 122 550 128 b 679 183 619 149 650 164 l 811 49 l 881 119 l 749 250 b 797 338 769 276 785 305 b 814 443 808 371 814 406 b 796 549 814 480 808 516 b 747 640 784 583 768 613 l 881 771 l 811 842 l 678 706 b 584 751 649 725 618 740 b 478 767 550 761 515 767 b 372 751 441 767 405 761 b 279 704 338 740 307 725 l 144 842 l 75 772 l 210 639 b 161 549 189 613 173 583 b 143 443 149 516 143 480 b 160 338 143 406 149 371 b 208 250 172 305 188 276 l 75 118 l 144 49 l 278 185 b 371 138 306 164 337 149 b 478 122 405 128 441 122 z m 478 325 b 392 359 444 325 416 336 b 356 443 368 382 356 410 b 392 529 356 477 368 506 b 478 564 416 552 444 564 b 565 529 512 564 541 552 b 601 443 589 506 601 477 b 565 359 601 410 589 382 b 478 325 541 336 512 325 z "},"¥":{"ha":1111,"x_min":0,"x_max":0,"o":"m 114 228 l 417 228 l 417 0 l 694 0 l 694 228 l 999 228 l 999 394 l 714 394 l 763 478 l 999 478 l 999 644 l 861 644 l 1097 1042 l 807 1042 l 590 681 b 558 659 582 666 571 659 b 526 681 544 659 534 667 l 325 1042 l 14 1042 l 250 644 l 114 644 l 114 478 l 349 478 l 397 394 l 114 394 z "},"¦":{"ha":431,"x_min":0,"x_max":0,"o":"m 97 610 l 333 610 l 333 1042 l 97 1042 z m 333 -153 l 333 279 l 97 279 l 97 -153 z "},"§":{"ha":1100,"x_min":0,"x_max":0,"o":"m 1017 76 b 1003 155 1017 105 1012 131 b 967 218 995 178 982 200 b 1025 299 993 240 1012 267 b 1044 406 1038 331 1044 367 b 983 577 1044 478 1024 535 b 793 664 943 619 879 648 l 411 735 b 360 755 387 739 370 746 b 346 786 351 764 346 774 b 360 819 346 798 350 809 b 415 833 369 828 388 833 l 1003 833 l 1003 1042 l 408 1042 b 262 1021 352 1042 303 1035 b 160 965 221 1007 187 988 b 102 883 134 941 115 914 b 83 785 90 852 83 819 b 98 692 83 750 88 719 b 139 618 108 664 121 639 b 76 536 111 596 90 569 b 56 428 63 504 56 468 b 113 254 56 360 75 302 b 286 164 150 206 208 176 l 682 99 b 739 78 710 94 729 87 b 754 47 749 70 754 59 b 740 15 754 35 750 24 b 685 0 731 5 713 0 l 97 0 l 97 -208 l 692 -208 b 838 -185 748 -208 797 -201 b 940 -124 879 -170 913 -150 b 998 -33 966 -98 985 -67 b 1017 76 1010 2 1017 38 z m 778 311 l 356 388 b 304 410 334 391 317 399 b 285 460 291 422 285 438 b 292 498 285 475 287 487 b 314 524 297 509 305 517 l 322 522 l 744 446 b 796 423 766 442 783 434 b 815 374 809 411 815 395 b 808 335 815 359 813 346 b 786 310 803 325 795 316 z "},"¨":{"ha":708,"x_min":0,"x_max":0,"o":"m 589 961 l 589 1139 l 403 1139 l 403 961 z m 304 961 l 304 1139 l 118 1139 l 118 961 z "},"©":{"ha":1292,"x_min":0,"x_max":0,"o":"m 1215 438 l 1215 604 b 1188 792 1215 674 1206 736 b 1106 936 1170 848 1143 896 b 963 1028 1069 976 1021 1006 b 757 1060 905 1049 837 1060 l 535 1060 b 328 1028 455 1060 386 1049 b 185 936 269 1006 222 976 b 103 792 148 896 120 848 b 76 604 85 736 76 674 l 76 438 b 103 251 76 369 85 307 b 185 108 120 195 148 147 b 328 16 222 68 269 38 b 535 -17 386 -6 455 -17 l 757 -17 b 963 16 837 -17 905 -6 b 1106 108 1021 38 1069 68 b 1188 251 1143 147 1170 195 b 1215 438 1206 307 1215 369 z m 224 396 l 224 647 b 294 863 224 744 247 815 b 510 933 341 910 413 933 l 782 933 b 999 863 880 933 952 910 b 1068 647 1045 815 1068 744 l 1068 396 b 999 181 1068 300 1045 229 b 782 110 952 134 880 110 l 510 110 b 294 181 413 110 341 134 b 224 396 247 229 224 300 z m 649 696 l 878 696 l 878 819 l 615 819 b 431 756 539 819 478 798 b 360 571 383 714 360 652 l 360 472 b 431 285 360 390 383 328 b 615 222 478 243 539 222 l 878 222 l 878 346 l 649 346 b 535 376 596 346 558 356 b 501 488 513 397 501 434 l 501 557 b 535 666 501 610 513 646 b 649 696 558 686 596 696 z "},"ª":{"ha":503,"x_min":0,"x_max":0,"o":"m 472 804 b 409 979 472 879 451 938 b 194 1042 367 1021 295 1042 l 22 1042 l 22 907 l 229 907 l 138 846 b 53 782 106 825 78 804 b 17 689 29 760 17 729 b 49 613 17 659 28 634 b 149 582 71 592 104 582 l 472 582 z m 186 718 l 311 814 l 311 718 z "},"«":{"ha":1113,"x_min":0,"x_max":0,"o":"m 543 400 l 313 522 l 543 643 l 543 883 l 164 654 b 105 605 144 642 124 626 b 76 528 86 584 76 558 l 76 515 b 105 438 76 485 86 459 b 164 389 124 417 144 401 l 543 160 z m 1015 400 l 785 522 l 1015 643 l 1015 883 l 636 654 b 577 605 616 642 596 626 b 549 528 558 584 549 558 l 549 515 b 577 438 549 485 558 459 b 636 389 596 417 616 401 l 1015 160 z "},"®":{"ha":989,"x_min":0,"x_max":0,"o":"m 913 600 l 913 725 b 832 969 913 827 886 908 b 576 1060 778 1029 693 1060 l 413 1060 b 157 969 296 1060 211 1029 b 76 725 103 908 76 827 l 76 600 b 157 360 76 501 103 421 b 413 269 211 300 296 269 l 576 269 b 832 360 693 269 778 300 b 913 600 886 421 913 501 z m 199 576 l 199 753 b 248 903 199 819 215 869 b 400 953 281 936 331 953 l 589 953 b 742 903 658 953 709 936 b 790 753 774 869 790 819 l 790 576 b 742 426 790 510 774 460 b 589 376 709 393 658 376 l 400 376 b 248 426 331 376 281 393 b 199 576 215 460 199 510 z m 700 443 l 574 625 b 676 654 617 626 651 636 b 713 756 700 673 713 706 l 713 771 b 668 862 713 816 698 847 b 560 885 638 877 602 885 l 300 885 l 300 443 l 406 443 l 406 796 l 536 796 b 590 788 562 796 580 793 b 606 756 600 783 606 772 l 606 747 b 590 716 606 731 600 721 b 536 708 580 711 562 708 l 486 708 b 434 676 457 708 440 698 b 443 621 428 655 431 637 l 571 443 z "},"¯":{"ha":708,"x_min":0,"x_max":0,"o":"m 535 968 l 535 1104 l 174 1104 l 174 968 z "},"°":{"ha":650,"x_min":0,"x_max":0,"o":"m 69 786 b 131 638 69 725 90 676 b 283 582 171 601 222 582 l 372 582 b 519 638 430 582 479 601 b 581 786 560 676 581 725 l 581 861 b 519 1008 581 922 560 971 b 372 1063 479 1044 430 1063 l 283 1063 b 131 1008 222 1063 171 1044 b 69 861 90 971 69 922 z m 244 840 b 258 898 244 865 249 884 b 301 918 266 911 281 918 l 351 918 b 399 898 375 918 391 911 b 413 840 408 884 413 865 l 413 803 b 399 750 413 781 408 763 b 351 731 391 737 375 731 l 301 731 b 258 750 281 731 266 737 b 244 803 249 763 244 781 z "},"±":{"ha":772,"x_min":0,"x_max":0,"o":"m 69 556 l 296 556 l 296 385 l 518 385 l 518 556 l 744 556 l 744 778 l 518 778 l 518 935 l 296 935 l 296 778 l 69 778 z m 111 97 l 703 97 l 703 306 l 111 306 z "},"²":{"ha":406,"x_min":0,"x_max":0,"o":"m 386 713 l 164 713 l 164 718 l 276 771 b 363 828 315 788 344 807 b 392 915 382 848 392 877 b 349 1008 392 955 377 986 b 211 1042 320 1031 274 1042 l 19 1042 l 19 911 l 188 911 b 212 906 200 911 208 909 b 218 890 216 902 218 897 b 213 877 218 886 216 881 b 196 865 210 873 204 869 l 129 836 b 32 767 82 816 50 793 b 6 656 14 741 6 704 l 6 582 l 386 582 z "},"³":{"ha":425,"x_min":0,"x_max":0,"o":"m 132 874 b 90 840 113 862 100 850 b 76 801 81 829 76 816 b 92 768 76 789 81 778 b 138 753 102 758 117 753 l 251 753 l 251 715 l 25 715 l 25 582 l 217 582 b 362 617 281 582 329 594 b 411 710 395 640 411 671 l 411 750 b 388 812 411 770 403 791 b 293 851 372 833 340 846 l 404 924 l 404 1042 l 14 1042 l 14 908 l 185 908 z "},"´":{"ha":982,"x_min":0,"x_max":0,"o":"m 375 933 l 583 933 l 681 1194 l 465 1194 z "},"¶":{"ha":1354,"x_min":0,"x_max":0,"o":"m 49 747 l 49 644 b 151 411 49 531 83 454 b 469 347 220 369 326 347 l 574 347 l 574 -208 l 851 -208 l 851 1042 l 469 1042 b 151 974 326 1042 220 1019 b 49 747 83 928 49 853 z m 986 -208 l 1264 -208 l 1264 1042 l 986 1042 z "},"·":{"ha":625,"x_min":0,"x_max":0,"o":"m 167 269 l 458 269 l 458 561 l 167 561 z "},"¸":{"ha":885,"x_min":0,"x_max":0,"o":"m 549 14 l 340 14 l 239 -261 l 454 -261 z "},"¹":{"ha":446,"x_min":0,"x_max":0,"o":"m 17 582 l 429 582 l 429 714 l 311 714 l 311 906 b 269 1001 311 942 297 973 b 167 1042 242 1028 207 1042 l 17 1042 l 17 906 l 118 906 b 131 901 124 906 128 904 b 136 886 134 897 136 893 l 136 714 l 17 714 z "},"º":{"ha":554,"x_min":0,"x_max":0,"o":"m 533 832 b 473 987 533 896 513 947 b 303 1046 433 1026 376 1046 l 253 1046 b 83 987 181 1046 125 1026 b 21 832 42 947 21 896 l 21 789 b 83 634 21 725 42 673 b 251 575 125 595 181 575 l 303 575 b 473 634 376 575 433 595 b 533 789 513 673 533 725 z m 350 844 l 350 778 b 338 724 350 754 346 736 b 294 706 329 712 315 706 l 261 706 b 217 724 240 706 225 712 b 204 778 208 736 204 754 l 204 844 b 216 897 204 868 208 885 b 261 915 224 909 239 915 l 294 915 b 338 897 315 915 329 909 b 350 844 346 885 350 868 z "},"»":{"ha":1113,"x_min":0,"x_max":0,"o":"m 949 389 b 1008 438 969 401 989 417 b 1036 515 1027 459 1036 485 l 1036 528 b 1008 605 1036 558 1027 584 b 949 654 989 626 969 642 l 569 883 l 569 643 l 800 522 l 569 400 l 569 160 z m 476 389 b 535 438 497 401 516 417 b 564 515 554 459 564 485 l 564 528 b 535 605 564 558 554 584 b 476 654 516 626 497 642 l 97 883 l 97 643 l 328 522 l 97 400 l 97 160 z "},"¼":{"ha":1181,"x_min":0,"x_max":0,"o":"m 853 582 l 1097 1042 l 875 1042 l 632 582 z m 131 582 l 543 582 l 543 714 l 425 714 l 425 906 b 383 1001 425 942 411 973 b 281 1042 356 1028 321 1042 l 131 1042 l 131 906 l 232 906 b 245 901 238 906 242 904 b 250 886 248 897 250 893 l 250 714 l 131 714 z m 658 54 l 797 54 l 797 0 l 961 0 l 961 54 l 1031 54 l 1031 188 l 961 188 l 961 339 b 925 438 961 384 949 417 b 842 469 901 459 873 469 l 815 469 b 730 445 785 469 756 461 b 667 386 703 429 682 409 l 596 282 b 551 206 575 250 560 225 b 536 149 541 187 536 168 b 567 80 536 120 546 97 b 658 54 587 63 618 54 z m 328 460 l 83 0 l 306 0 l 549 460 z m 708 188 l 797 321 l 797 188 z "},"½":{"ha":1181,"x_min":0,"x_max":0,"o":"m 853 582 l 1097 1042 l 875 1042 l 632 582 z m 131 582 l 543 582 l 543 714 l 425 714 l 425 906 b 383 1001 425 942 411 973 b 281 1042 356 1028 321 1042 l 131 1042 l 131 906 l 232 906 b 245 901 238 906 242 904 b 250 886 248 897 250 893 l 250 714 l 131 714 z m 1014 147 l 792 147 l 792 153 l 904 206 b 991 263 943 223 972 242 b 1019 350 1010 283 1019 312 b 976 443 1019 390 1005 421 b 839 476 948 465 902 476 l 647 476 l 647 346 l 815 346 b 840 340 827 346 835 344 b 846 325 844 337 846 331 b 841 312 846 320 844 316 b 824 300 838 308 832 304 l 757 271 b 660 201 710 250 677 227 b 633 90 642 175 633 138 l 633 17 l 1014 17 z m 328 460 l 83 0 l 306 0 l 549 460 z "},"¿":{"ha":869,"x_min":0,"x_max":0,"o":"m 668 833 l 376 833 l 376 542 l 668 542 z m 69 108 b 173 -131 69 1 104 -79 b 479 -208 242 -182 344 -208 l 800 -208 l 800 8 l 467 8 b 360 31 416 8 380 16 b 331 113 341 47 331 74 b 358 194 331 151 340 179 b 453 218 376 210 407 218 l 668 218 l 668 435 l 479 435 b 173 356 344 435 242 408 b 69 108 104 303 69 220 z "},"À":{"ha":1236,"x_min":0,"x_max":0,"o":"m 940 0 l 1229 0 l 886 843 b 785 999 860 908 827 960 b 615 1058 744 1039 688 1058 b 452 999 546 1058 491 1038 b 353 840 413 959 380 906 l 7 0 l 288 0 l 371 218 l 858 218 z m 592 790 b 601 808 594 798 598 804 b 617 815 605 813 610 815 b 633 808 624 815 629 813 b 642 790 636 803 639 797 l 776 433 l 454 433 z m 725 1142 l 635 1403 l 419 1403 l 517 1142 z "},"Á":{"ha":1236,"x_min":0,"x_max":0,"o":"m 940 0 l 1229 0 l 886 843 b 785 999 860 908 827 960 b 615 1058 744 1039 688 1058 b 452 999 546 1058 491 1038 b 353 840 413 959 380 906 l 7 0 l 288 0 l 371 218 l 858 218 z m 592 790 b 601 808 594 798 598 804 b 617 815 605 813 610 815 b 633 808 624 815 629 813 b 642 790 636 803 639 797 l 776 433 l 454 433 z m 518 1142 l 726 1142 l 824 1403 l 608 1403 z "},"Â":{"ha":1236,"x_min":0,"x_max":0,"o":"m 940 0 l 1229 0 l 886 843 b 785 999 860 908 827 960 b 615 1058 744 1039 688 1058 b 452 999 546 1058 491 1038 b 353 840 413 959 380 906 l 7 0 l 288 0 l 371 218 l 858 218 z m 592 790 b 601 808 594 798 598 804 b 617 815 605 813 610 815 b 633 808 624 815 629 813 b 642 790 636 803 639 797 l 776 433 l 454 433 z m 690 1142 l 881 1142 l 740 1343 b 693 1390 728 1360 713 1375 b 618 1411 674 1404 649 1411 b 542 1388 588 1411 562 1403 b 494 1343 521 1373 506 1358 l 354 1142 l 544 1142 l 618 1256 z "},"Ã":{"ha":1236,"x_min":0,"x_max":0,"o":"m 940 0 l 1229 0 l 886 843 b 785 999 860 908 827 960 b 615 1058 744 1039 688 1058 b 452 999 546 1058 491 1038 b 353 840 413 959 380 906 l 7 0 l 288 0 l 371 218 l 858 218 z m 592 790 b 601 808 594 798 598 804 b 617 815 605 813 610 815 b 633 808 624 815 629 813 b 642 790 636 803 639 797 l 776 433 l 454 433 z m 694 1303 l 647 1339 b 570 1390 617 1362 591 1379 b 492 1406 549 1400 523 1406 b 383 1365 449 1406 413 1392 b 339 1250 354 1338 339 1300 l 339 1142 l 476 1142 l 476 1228 b 483 1253 476 1240 479 1248 b 500 1261 488 1259 494 1261 b 521 1254 507 1261 514 1259 b 544 1236 527 1250 535 1244 l 592 1200 b 669 1149 622 1177 648 1160 b 747 1133 690 1139 716 1133 b 857 1176 792 1133 828 1147 b 900 1292 886 1204 900 1243 l 900 1397 l 763 1397 l 763 1311 b 757 1285 763 1299 761 1291 b 740 1278 753 1280 748 1278 b 719 1284 732 1278 725 1280 z "},"Ä":{"ha":1236,"x_min":0,"x_max":0,"o":"m 940 0 l 1229 0 l 886 843 b 785 999 860 908 827 960 b 615 1058 744 1039 688 1058 b 452 999 546 1058 491 1038 b 353 840 413 959 380 906 l 7 0 l 288 0 l 371 218 l 858 218 z m 592 790 b 601 808 594 798 598 804 b 617 815 605 813 610 815 b 633 808 624 815 629 813 b 642 790 636 803 639 797 l 776 433 l 454 433 z m 853 1169 l 853 1347 l 667 1347 l 667 1169 z m 568 1169 l 568 1347 l 382 1347 l 382 1169 z "},"Å":{"ha":1236,"x_min":0,"x_max":0,"o":"m 940 0 l 1229 0 l 886 843 b 785 999 860 908 827 960 b 615 1058 744 1039 688 1058 b 452 999 546 1058 491 1038 b 353 840 413 959 380 906 l 7 0 l 288 0 l 371 218 l 858 218 z m 592 790 b 601 808 594 798 598 804 b 617 815 605 813 610 815 b 633 808 624 815 629 813 b 642 790 636 803 639 797 l 776 433 l 454 433 z m 469 1256 b 505 1168 469 1219 481 1190 b 592 1135 528 1146 557 1135 l 646 1135 b 733 1168 680 1135 709 1146 b 768 1256 756 1190 768 1219 l 768 1289 b 733 1376 768 1325 756 1354 b 646 1410 709 1399 680 1410 l 592 1410 b 505 1376 557 1410 528 1399 b 469 1289 481 1354 469 1325 z m 563 1286 b 573 1319 563 1301 566 1312 b 601 1329 580 1326 589 1329 l 636 1329 b 665 1319 648 1329 658 1326 b 676 1286 673 1312 676 1301 l 676 1258 b 665 1226 676 1244 673 1233 b 636 1215 658 1219 648 1215 l 601 1215 b 573 1226 589 1215 580 1219 b 563 1258 566 1233 563 1244 z "},"Æ":{"ha":1782,"x_min":0,"x_max":0,"o":"m 861 0 l 1731 0 l 1731 229 l 1132 229 l 1132 410 l 1731 410 l 1731 632 l 1132 632 l 1132 813 l 1731 813 l 1731 1042 l 861 1042 z m 7 0 l 319 0 l 443 218 l 879 218 l 879 0 l 1139 0 l 1139 1042 l 871 1042 b 648 988 781 1042 707 1024 b 490 817 589 951 537 894 z m 735 735 b 780 790 750 762 765 780 b 833 806 795 800 813 806 l 879 806 l 879 433 l 564 433 z "},"Ç":{"ha":1001,"x_min":0,"x_max":0,"o":"m 960 229 l 578 229 b 396 280 489 229 428 246 b 347 447 363 314 347 369 l 347 594 b 394 762 347 672 363 728 b 571 813 426 796 485 813 l 953 813 l 953 1042 l 557 1042 b 339 1010 475 1042 402 1031 b 182 922 276 990 224 960 b 88 781 140 883 109 836 b 56 597 66 726 56 665 l 56 444 b 88 260 56 377 66 316 b 182 120 109 205 140 159 b 339 31 224 82 276 52 b 557 0 402 10 475 0 l 960 0 z m 676 14 l 468 14 l 367 -261 l 582 -261 z "},"È":{"ha":1039,"x_min":0,"x_max":0,"o":"m 90 0 l 960 0 l 960 229 l 361 229 l 361 410 l 960 410 l 960 632 l 361 632 l 361 813 l 960 813 l 960 1042 l 90 1042 z m 654 1142 l 564 1403 l 349 1403 l 446 1142 z "},"É":{"ha":1039,"x_min":0,"x_max":0,"o":"m 90 0 l 960 0 l 960 229 l 361 229 l 361 410 l 960 410 l 960 632 l 361 632 l 361 813 l 960 813 l 960 1042 l 90 1042 z m 447 1142 l 656 1142 l 753 1403 l 538 1403 z "},"Ê":{"ha":1039,"x_min":0,"x_max":0,"o":"m 90 0 l 960 0 l 960 229 l 361 229 l 361 410 l 960 410 l 960 632 l 361 632 l 361 813 l 960 813 l 960 1042 l 90 1042 z m 619 1142 l 810 1142 l 669 1343 b 622 1390 657 1360 642 1375 b 547 1411 603 1404 578 1411 b 471 1388 517 1411 491 1403 b 424 1343 450 1373 435 1358 l 283 1142 l 474 1142 l 547 1256 z "},"Ë":{"ha":1039,"x_min":0,"x_max":0,"o":"m 90 0 l 960 0 l 960 229 l 361 229 l 361 410 l 960 410 l 960 632 l 361 632 l 361 813 l 960 813 l 960 1042 l 90 1042 z m 782 1169 l 782 1347 l 596 1347 l 596 1169 z m 497 1169 l 497 1347 l 311 1347 l 311 1169 z "},"Ì":{"ha":472,"x_min":0,"x_max":0,"o":"m 97 0 l 375 0 l 375 1042 l 97 1042 z m 342 1142 l 251 1403 l 36 1403 l 133 1142 z "},"Í":{"ha":472,"x_min":0,"x_max":0,"o":"m 97 0 l 375 0 l 375 1042 l 97 1042 z m 136 1142 l 344 1142 l 442 1403 l 226 1403 z "},"Î":{"ha":472,"x_min":0,"x_max":0,"o":"m 97 0 l 375 0 l 375 1042 l 97 1042 z m 308 1142 l 499 1142 l 358 1343 b 311 1390 346 1360 331 1375 b 236 1411 292 1404 267 1411 b 160 1388 206 1411 180 1403 b 113 1343 139 1373 124 1358 l -28 1142 l 163 1142 l 236 1256 z "},"Ï":{"ha":472,"x_min":0,"x_max":0,"o":"m 97 0 l 375 0 l 375 1042 l 97 1042 z m 471 1169 l 471 1347 l 285 1347 l 285 1169 z m 186 1169 l 186 1347 l 0 1347 l 0 1169 z "},"Ð":{"ha":1213,"x_min":0,"x_max":0,"o":"m 14 597 l 14 444 l 122 444 l 122 0 l 663 0 b 880 31 745 0 817 10 b 1035 120 942 52 994 82 b 1126 260 1075 159 1106 205 b 1157 444 1147 316 1157 377 l 1157 597 b 1126 781 1157 665 1147 726 b 1035 922 1106 836 1075 883 b 880 1010 994 960 942 990 b 663 1042 817 1031 745 1042 l 122 1042 l 122 597 z m 644 822 b 821 772 732 822 791 805 b 865 596 850 738 865 679 l 865 447 b 820 271 865 364 850 305 b 638 219 790 237 729 219 l 400 219 l 400 444 l 654 444 l 654 597 l 400 597 l 400 822 z "},"Ñ":{"ha":1349,"x_min":0,"x_max":0,"o":"m 90 0 l 368 0 l 368 793 b 373 815 368 802 370 809 b 392 822 376 820 382 822 b 408 813 399 822 404 819 b 417 794 411 807 414 801 l 643 242 b 767 51 676 161 718 98 b 975 -18 817 5 886 -18 b 1083 0 1012 -18 1048 -12 b 1173 55 1117 12 1147 30 b 1235 147 1198 79 1219 110 b 1258 276 1250 184 1258 227 l 1258 1042 l 981 1042 l 981 247 b 976 226 981 238 979 231 b 957 218 972 221 966 218 b 941 227 950 218 944 221 b 932 246 938 233 935 239 l 706 799 b 583 987 674 876 633 939 b 374 1058 532 1034 463 1058 b 266 1039 337 1058 301 1052 b 176 983 231 1026 201 1007 b 114 890 150 958 130 927 b 90 764 98 853 90 811 z m 833 1303 l 786 1339 b 709 1390 756 1362 730 1379 b 631 1406 688 1400 662 1406 b 522 1365 588 1406 552 1392 b 478 1250 493 1338 478 1300 l 478 1142 l 615 1142 l 615 1228 b 622 1253 615 1240 618 1248 b 639 1261 627 1259 632 1261 b 660 1254 646 1261 653 1259 b 683 1236 666 1250 674 1244 l 731 1200 b 808 1149 761 1177 787 1160 b 886 1133 828 1139 855 1133 b 996 1176 931 1133 967 1147 b 1039 1292 1025 1204 1039 1243 l 1039 1397 l 901 1397 l 901 1311 b 896 1285 901 1299 900 1291 b 879 1278 892 1280 887 1278 b 858 1284 871 1278 864 1280 z "},"Ò":{"ha":1214,"x_min":0,"x_max":0,"o":"m 1158 449 l 1158 593 b 1127 783 1158 663 1148 726 b 1033 928 1106 840 1075 888 b 875 1022 992 969 939 1000 b 653 1056 811 1044 737 1056 l 561 1056 b 339 1022 477 1056 403 1044 b 181 928 275 1000 222 969 b 87 783 139 888 108 840 b 56 593 66 726 56 663 l 56 449 b 87 259 56 379 66 316 b 181 113 108 202 139 153 b 339 19 222 73 275 42 b 561 -14 403 -3 477 -14 l 653 -14 b 875 19 737 -14 811 -3 b 1033 113 939 42 992 73 b 1127 259 1075 153 1106 202 b 1158 449 1148 316 1158 379 z m 347 438 l 347 607 b 394 781 347 689 363 747 b 553 832 425 815 478 832 l 661 832 b 820 781 736 832 789 815 b 867 607 851 747 867 689 l 867 438 b 820 263 867 355 851 297 b 661 211 789 228 736 211 l 553 211 b 394 263 478 211 425 228 b 347 438 363 297 347 355 z m 714 1142 l 624 1403 l 408 1403 l 506 1142 z "},"Ó":{"ha":1214,"x_min":0,"x_max":0,"o":"m 1158 449 l 1158 593 b 1127 783 1158 663 1148 726 b 1033 928 1106 840 1075 888 b 875 1022 992 969 939 1000 b 653 1056 811 1044 737 1056 l 561 1056 b 339 1022 477 1056 403 1044 b 181 928 275 1000 222 969 b 87 783 139 888 108 840 b 56 593 66 726 56 663 l 56 449 b 87 259 56 379 66 316 b 181 113 108 202 139 153 b 339 19 222 73 275 42 b 561 -14 403 -3 477 -14 l 653 -14 b 875 19 737 -14 811 -3 b 1033 113 939 42 992 73 b 1127 259 1075 153 1106 202 b 1158 449 1148 316 1158 379 z m 347 438 l 347 607 b 394 781 347 689 363 747 b 553 832 425 815 478 832 l 661 832 b 820 781 736 832 789 815 b 867 607 851 747 867 689 l 867 438 b 820 263 867 355 851 297 b 661 211 789 228 736 211 l 553 211 b 394 263 478 211 425 228 b 347 438 363 297 347 355 z m 507 1142 l 715 1142 l 813 1403 l 597 1403 z "},"Ô":{"ha":1214,"x_min":0,"x_max":0,"o":"m 1158 449 l 1158 593 b 1127 783 1158 663 1148 726 b 1033 928 1106 840 1075 888 b 875 1022 992 969 939 1000 b 653 1056 811 1044 737 1056 l 561 1056 b 339 1022 477 1056 403 1044 b 181 928 275 1000 222 969 b 87 783 139 888 108 840 b 56 593 66 726 56 663 l 56 449 b 87 259 56 379 66 316 b 181 113 108 202 139 153 b 339 19 222 73 275 42 b 561 -14 403 -3 477 -14 l 653 -14 b 875 19 737 -14 811 -3 b 1033 113 939 42 992 73 b 1127 259 1075 153 1106 202 b 1158 449 1148 316 1158 379 z m 347 438 l 347 607 b 394 781 347 689 363 747 b 553 832 425 815 478 832 l 661 832 b 820 781 736 832 789 815 b 867 607 851 747 867 689 l 867 438 b 820 263 867 355 851 297 b 661 211 789 228 736 211 l 553 211 b 394 263 478 211 425 228 b 347 438 363 297 347 355 z m 679 1142 l 869 1142 l 729 1343 b 682 1390 717 1360 701 1375 b 607 1411 663 1404 638 1411 b 531 1388 576 1411 551 1403 b 483 1343 510 1373 494 1358 l 343 1142 l 533 1142 l 607 1256 z "},"Õ":{"ha":1214,"x_min":0,"x_max":0,"o":"m 1158 449 l 1158 593 b 1127 783 1158 663 1148 726 b 1033 928 1106 840 1075 888 b 875 1022 992 969 939 1000 b 653 1056 811 1044 737 1056 l 561 1056 b 339 1022 477 1056 403 1044 b 181 928 275 1000 222 969 b 87 783 139 888 108 840 b 56 593 66 726 56 663 l 56 449 b 87 259 56 379 66 316 b 181 113 108 202 139 153 b 339 19 222 73 275 42 b 561 -14 403 -3 477 -14 l 653 -14 b 875 19 737 -14 811 -3 b 1033 113 939 42 992 73 b 1127 259 1075 153 1106 202 b 1158 449 1148 316 1158 379 z m 347 438 l 347 607 b 394 781 347 689 363 747 b 553 832 425 815 478 832 l 661 832 b 820 781 736 832 789 815 b 867 607 851 747 867 689 l 867 438 b 820 263 867 355 851 297 b 661 211 789 228 736 211 l 553 211 b 394 263 478 211 425 228 b 347 438 363 297 347 355 z m 683 1303 l 636 1339 b 559 1390 606 1362 580 1379 b 481 1406 538 1400 512 1406 b 372 1365 438 1406 402 1392 b 328 1250 343 1338 328 1300 l 328 1142 l 465 1142 l 465 1228 b 472 1253 465 1240 468 1248 b 489 1261 477 1259 482 1261 b 510 1254 496 1261 503 1259 b 533 1236 516 1250 524 1244 l 581 1200 b 658 1149 611 1177 637 1160 b 736 1133 678 1139 705 1133 b 846 1176 781 1133 817 1147 b 889 1292 875 1204 889 1243 l 889 1397 l 751 1397 l 751 1311 b 746 1285 751 1299 750 1291 b 729 1278 742 1280 737 1278 b 708 1284 721 1278 714 1280 z "},"Ö":{"ha":1214,"x_min":0,"x_max":0,"o":"m 1158 449 l 1158 593 b 1127 783 1158 663 1148 726 b 1033 928 1106 840 1075 888 b 875 1022 992 969 939 1000 b 653 1056 811 1044 737 1056 l 561 1056 b 339 1022 477 1056 403 1044 b 181 928 275 1000 222 969 b 87 783 139 888 108 840 b 56 593 66 726 56 663 l 56 449 b 87 259 56 379 66 316 b 181 113 108 202 139 153 b 339 19 222 73 275 42 b 561 -14 403 -3 477 -14 l 653 -14 b 875 19 737 -14 811 -3 b 1033 113 939 42 992 73 b 1127 259 1075 153 1106 202 b 1158 449 1148 316 1158 379 z m 347 438 l 347 607 b 394 781 347 689 363 747 b 553 832 425 815 478 832 l 661 832 b 820 781 736 832 789 815 b 867 607 851 747 867 689 l 867 438 b 820 263 867 355 851 297 b 661 211 789 228 736 211 l 553 211 b 394 263 478 211 425 228 b 347 438 363 297 347 355 z m 842 1169 l 842 1347 l 656 1347 l 656 1169 z m 557 1169 l 557 1347 l 371 1347 l 371 1169 z "},"×":{"ha":814,"x_min":0,"x_max":0,"o":"m 75 689 l 250 514 l 81 344 l 238 188 l 407 357 l 582 182 l 739 339 l 564 514 l 733 683 l 576 840 l 407 671 l 232 846 z "},"Ø":{"ha":1214,"x_min":0,"x_max":0,"o":"m 49 0 l 178 0 l 240 67 b 381 7 280 41 327 21 b 561 -14 434 -7 494 -14 l 653 -14 b 875 19 737 -14 811 -3 b 1033 113 939 42 992 73 b 1127 259 1075 153 1106 202 b 1158 449 1148 316 1158 379 l 1158 593 b 1130 774 1158 659 1149 719 b 1046 915 1111 828 1083 875 l 1165 1042 l 1032 1042 l 971 978 b 831 1035 931 1003 884 1022 b 653 1056 778 1049 719 1056 l 561 1056 b 339 1022 477 1056 403 1044 b 181 928 275 1000 222 969 b 87 783 139 888 108 840 b 56 593 66 726 56 663 l 56 449 b 84 268 56 383 65 323 b 168 126 103 213 131 166 z m 347 438 l 347 607 b 394 781 347 689 363 747 b 553 832 425 815 478 832 l 661 832 b 743 824 693 832 720 829 b 801 797 766 818 786 809 l 360 329 b 351 378 356 344 353 360 b 347 438 348 397 347 416 z m 553 211 b 471 219 521 211 494 214 b 411 246 448 225 428 234 l 856 714 b 864 665 859 699 862 683 b 867 607 866 648 867 628 l 867 438 b 820 263 867 355 851 297 b 661 211 789 228 736 211 z "},"Ù":{"ha":1181,"x_min":0,"x_max":0,"o":"m 517 -18 l 667 -18 b 872 8 748 -18 817 -9 b 1005 85 928 26 972 52 b 1076 210 1038 119 1061 161 b 1097 376 1090 259 1097 314 l 1097 1042 l 819 1042 l 819 350 b 784 240 819 300 808 263 b 671 204 760 216 723 204 l 513 204 b 395 240 457 204 418 216 b 361 350 372 263 361 300 l 361 1042 l 83 1042 l 83 376 b 183 86 83 252 117 156 b 517 -18 250 17 361 -18 z m 711 1142 l 621 1403 l 406 1403 l 503 1142 z "},"Ú":{"ha":1181,"x_min":0,"x_max":0,"o":"m 517 -18 l 667 -18 b 872 8 748 -18 817 -9 b 1005 85 928 26 972 52 b 1076 210 1038 119 1061 161 b 1097 376 1090 259 1097 314 l 1097 1042 l 819 1042 l 819 350 b 784 240 819 300 808 263 b 671 204 760 216 723 204 l 513 204 b 395 240 457 204 418 216 b 361 350 372 263 361 300 l 361 1042 l 83 1042 l 83 376 b 183 86 83 252 117 156 b 517 -18 250 17 361 -18 z m 504 1142 l 713 1142 l 810 1403 l 594 1403 z "},"Û":{"ha":1181,"x_min":0,"x_max":0,"o":"m 517 -18 l 667 -18 b 872 8 748 -18 817 -9 b 1005 85 928 26 972 52 b 1076 210 1038 119 1061 161 b 1097 376 1090 259 1097 314 l 1097 1042 l 819 1042 l 819 350 b 784 240 819 300 808 263 b 671 204 760 216 723 204 l 513 204 b 395 240 457 204 418 216 b 361 350 372 263 361 300 l 361 1042 l 83 1042 l 83 376 b 183 86 83 252 117 156 b 517 -18 250 17 361 -18 z m 676 1142 l 867 1142 l 726 1343 b 679 1390 714 1360 699 1375 b 604 1411 660 1404 635 1411 b 528 1388 574 1411 548 1403 b 481 1343 507 1373 492 1358 l 340 1142 l 531 1142 l 604 1256 z "},"Ü":{"ha":1181,"x_min":0,"x_max":0,"o":"m 517 -18 l 667 -18 b 872 8 748 -18 817 -9 b 1005 85 928 26 972 52 b 1076 210 1038 119 1061 161 b 1097 376 1090 259 1097 314 l 1097 1042 l 819 1042 l 819 350 b 784 240 819 300 808 263 b 671 204 760 216 723 204 l 513 204 b 395 240 457 204 418 216 b 361 350 372 263 361 300 l 361 1042 l 83 1042 l 83 376 b 183 86 83 252 117 156 b 517 -18 250 17 361 -18 z m 839 1169 l 839 1347 l 653 1347 l 653 1169 z m 554 1169 l 554 1347 l 368 1347 l 368 1169 z "},"Ý":{"ha":1111,"x_min":0,"x_max":0,"o":"m 417 0 l 694 0 l 694 363 l 1097 1042 l 807 1042 l 590 681 b 558 659 582 666 571 659 b 526 681 544 659 534 667 l 325 1042 l 14 1042 l 417 363 z m 456 1142 l 664 1142 l 761 1403 l 546 1403 z "},"Þ":{"ha":1081,"x_min":0,"x_max":0,"o":"m 90 1042 l 90 0 l 368 0 l 368 208 l 611 208 b 929 272 755 208 861 230 b 1032 506 998 315 1032 393 l 1032 608 b 929 835 1032 714 998 789 b 611 903 861 880 755 903 l 368 903 l 368 1042 z m 619 699 b 724 672 669 699 704 690 b 754 596 744 653 754 628 l 754 514 b 724 440 754 482 744 458 b 619 413 704 422 669 413 l 368 413 l 368 699 z "},"ß":{"ha":1058,"x_min":0,"x_max":0,"o":"m 449 1069 b 168 986 327 1069 234 1042 b 69 721 102 931 69 842 l 69 0 l 333 0 l 333 738 b 360 828 333 781 342 811 b 436 853 378 844 404 853 l 646 853 b 720 831 680 853 705 845 b 743 768 735 816 743 795 l 743 743 b 722 677 743 714 736 692 b 642 654 707 662 681 654 l 456 654 l 456 418 l 642 418 b 740 397 689 418 722 411 b 767 344 758 382 767 365 l 767 308 b 743 244 767 281 759 259 b 638 222 727 230 692 222 l 428 222 l 428 0 l 624 0 b 794 13 688 0 744 4 b 917 56 843 21 884 35 b 992 140 950 76 975 104 b 1017 274 1008 175 1017 220 l 1017 338 b 980 481 1017 394 1004 442 b 856 564 955 519 914 547 b 967 642 909 581 946 607 b 997 753 987 676 997 713 l 997 799 b 910 1001 997 888 968 955 b 633 1069 853 1047 760 1069 z "},"à":{"ha":951,"x_min":0,"x_max":0,"o":"m 871 451 b 768 733 871 572 837 666 b 426 833 700 800 586 833 l 61 833 l 61 632 l 500 632 l 264 469 b 107 349 203 428 150 388 b 42 196 63 311 42 260 b 108 54 42 138 64 90 b 300 0 153 18 217 0 l 871 0 z m 375 201 b 338 209 357 201 345 204 b 326 232 330 214 326 222 b 336 255 326 241 330 249 b 369 282 343 261 354 270 l 621 478 l 621 201 z m 600 933 l 510 1194 l 294 1194 l 392 933 z "},"á":{"ha":951,"x_min":0,"x_max":0,"o":"m 871 451 b 768 733 871 572 837 666 b 426 833 700 800 586 833 l 61 833 l 61 632 l 500 632 l 264 469 b 107 349 203 428 150 388 b 42 196 63 311 42 260 b 108 54 42 138 64 90 b 300 0 153 18 217 0 l 871 0 z m 375 201 b 338 209 357 201 345 204 b 326 232 330 214 326 222 b 336 255 326 241 330 249 b 369 282 343 261 354 270 l 621 478 l 621 201 z m 393 933 l 601 933 l 699 1194 l 483 1194 z "},"â":{"ha":951,"x_min":0,"x_max":0,"o":"m 871 451 b 768 733 871 572 837 666 b 426 833 700 800 586 833 l 61 833 l 61 632 l 500 632 l 264 469 b 107 349 203 428 150 388 b 42 196 63 311 42 260 b 108 54 42 138 64 90 b 300 0 153 18 217 0 l 871 0 z m 375 201 b 338 209 357 201 345 204 b 326 232 330 214 326 222 b 336 255 326 241 330 249 b 369 282 343 261 354 270 l 621 478 l 621 201 z m 565 933 l 756 933 l 615 1135 b 568 1181 603 1151 588 1167 b 493 1203 549 1196 524 1203 b 417 1180 463 1203 437 1195 b 369 1135 396 1165 381 1150 l 229 933 l 419 933 l 493 1047 z "},"ã":{"ha":951,"x_min":0,"x_max":0,"o":"m 871 451 b 768 733 871 572 837 666 b 426 833 700 800 586 833 l 61 833 l 61 632 l 500 632 l 264 469 b 107 349 203 428 150 388 b 42 196 63 311 42 260 b 108 54 42 138 64 90 b 300 0 153 18 217 0 l 871 0 z m 375 201 b 338 209 357 201 345 204 b 326 232 330 214 326 222 b 336 255 326 241 330 249 b 369 282 343 261 354 270 l 621 478 l 621 201 z m 569 1094 l 522 1131 b 445 1181 492 1154 466 1171 b 367 1197 424 1192 398 1197 b 258 1157 324 1197 288 1184 b 214 1042 229 1130 214 1092 l 214 933 l 351 933 l 351 1019 b 358 1045 351 1031 354 1040 b 375 1053 363 1050 369 1053 b 396 1046 382 1053 389 1050 b 419 1028 402 1041 410 1035 l 467 992 b 544 941 497 969 523 952 b 622 925 565 930 591 925 b 732 967 667 925 703 939 b 775 1083 761 996 775 1034 l 775 1189 l 638 1189 l 638 1103 b 632 1077 638 1091 636 1082 b 615 1069 628 1072 623 1069 b 594 1076 607 1069 600 1072 z "},"ä":{"ha":951,"x_min":0,"x_max":0,"o":"m 871 451 b 768 733 871 572 837 666 b 426 833 700 800 586 833 l 61 833 l 61 632 l 500 632 l 264 469 b 107 349 203 428 150 388 b 42 196 63 311 42 260 b 108 54 42 138 64 90 b 300 0 153 18 217 0 l 871 0 z m 375 201 b 338 209 357 201 345 204 b 326 232 330 214 326 222 b 336 255 326 241 330 249 b 369 282 343 261 354 270 l 621 478 l 621 201 z m 728 961 l 728 1139 l 542 1139 l 542 961 z m 443 961 l 443 1139 l 257 1139 l 257 961 z "},"å":{"ha":951,"x_min":0,"x_max":0,"o":"m 871 451 b 768 733 871 572 837 666 b 426 833 700 800 586 833 l 61 833 l 61 632 l 500 632 l 264 469 b 107 349 203 428 150 388 b 42 196 63 311 42 260 b 108 54 42 138 64 90 b 300 0 153 18 217 0 l 871 0 z m 375 201 b 338 209 357 201 345 204 b 326 232 330 214 326 222 b 336 255 326 241 330 249 b 369 282 343 261 354 270 l 621 478 l 621 201 z m 343 1047 b 378 960 343 1011 355 982 b 465 926 402 938 431 926 l 519 926 b 606 960 554 926 583 938 b 642 1047 630 982 642 1011 l 642 1081 b 606 1168 642 1117 630 1146 b 519 1201 583 1190 554 1201 l 465 1201 b 378 1168 431 1201 402 1190 b 343 1081 355 1146 343 1117 z m 436 1078 b 447 1110 436 1093 440 1103 b 475 1121 453 1117 463 1121 l 510 1121 b 539 1110 522 1121 531 1117 b 550 1078 546 1103 550 1093 l 550 1050 b 539 1017 550 1035 546 1024 b 510 1007 531 1010 522 1007 l 475 1007 b 447 1017 463 1007 453 1010 b 436 1050 440 1024 436 1035 z "},"æ":{"ha":1556,"x_min":0,"x_max":0,"o":"m 1074 0 l 1481 0 l 1481 201 l 1058 201 b 939 228 1002 201 962 210 b 904 333 916 245 904 281 l 904 339 l 1500 339 l 1500 460 b 1482 617 1500 517 1494 569 b 1419 738 1470 664 1449 704 b 1296 817 1389 772 1348 798 b 1101 844 1244 835 1179 844 l 1046 844 b 869 819 976 844 918 836 b 750 739 821 802 781 775 b 626 810 719 771 677 795 b 426 833 575 826 509 833 l 61 833 l 61 632 l 518 632 l 264 469 b 106 351 202 430 149 390 b 42 196 63 311 42 260 b 108 54 42 138 64 90 b 300 0 153 18 217 0 l 525 0 b 667 28 578 0 625 9 b 768 103 709 47 743 72 b 887 28 799 71 838 46 b 1074 0 935 9 998 0 z m 1132 658 b 1223 629 1175 658 1205 649 b 1250 532 1241 610 1250 577 l 1250 514 l 904 514 l 904 532 b 931 629 904 577 913 610 b 1024 658 948 649 979 658 z m 347 201 b 310 209 330 201 317 204 b 299 232 302 214 299 222 b 308 256 299 241 302 249 b 342 282 315 262 326 271 l 635 489 l 635 285 b 615 224 635 260 628 240 b 553 201 602 209 581 201 z "},"ç":{"ha":863,"x_min":0,"x_max":0,"o":"m 481 632 l 793 632 l 793 833 l 472 833 b 150 735 323 833 216 801 b 51 467 84 670 51 581 l 51 365 b 150 97 51 251 84 162 b 472 0 216 32 323 0 l 793 0 l 793 201 l 481 201 b 360 229 426 201 386 211 b 322 340 335 248 322 285 l 322 483 b 360 595 322 533 335 571 b 481 632 386 620 426 632 z m 608 28 l 400 28 l 299 -247 l 514 -247 z "},"è":{"ha":971,"x_min":0,"x_max":0,"o":"m 915 339 l 915 460 b 897 617 915 517 909 569 b 834 738 885 664 864 704 b 711 817 804 772 763 798 b 517 844 659 835 594 844 l 461 844 b 147 745 316 844 211 811 b 51 481 83 679 51 591 l 51 375 b 74 222 51 319 59 269 b 148 103 90 176 114 136 b 283 27 182 71 227 45 b 489 0 339 9 407 0 l 896 0 l 896 201 l 474 201 b 354 228 417 201 377 210 b 319 333 331 245 319 281 l 319 339 z m 547 658 b 638 629 590 658 620 649 b 665 532 656 610 665 577 l 665 514 l 319 514 l 319 532 b 346 629 319 577 328 610 b 439 658 363 649 394 658 z m 594 933 l 504 1194 l 289 1194 l 386 933 z "},"é":{"ha":971,"x_min":0,"x_max":0,"o":"m 915 339 l 915 460 b 897 617 915 517 909 569 b 834 738 885 664 864 704 b 711 817 804 772 763 798 b 517 844 659 835 594 844 l 461 844 b 147 745 316 844 211 811 b 51 481 83 679 51 591 l 51 375 b 74 222 51 319 59 269 b 148 103 90 176 114 136 b 283 27 182 71 227 45 b 489 0 339 9 407 0 l 896 0 l 896 201 l 474 201 b 354 228 417 201 377 210 b 319 333 331 245 319 281 l 319 339 z m 547 658 b 638 629 590 658 620 649 b 665 532 656 610 665 577 l 665 514 l 319 514 l 319 532 b 346 629 319 577 328 610 b 439 658 363 649 394 658 z m 389 933 l 597 933 l 694 1194 l 479 1194 z "},"ê":{"ha":971,"x_min":0,"x_max":0,"o":"m 915 339 l 915 460 b 897 617 915 517 909 569 b 834 738 885 664 864 704 b 711 817 804 772 763 798 b 517 844 659 835 594 844 l 461 844 b 147 745 316 844 211 811 b 51 481 83 679 51 591 l 51 375 b 74 222 51 319 59 269 b 148 103 90 176 114 136 b 283 27 182 71 227 45 b 489 0 339 9 407 0 l 896 0 l 896 201 l 474 201 b 354 228 417 201 377 210 b 319 333 331 245 319 281 l 319 339 z m 547 658 b 638 629 590 658 620 649 b 665 532 656 610 665 577 l 665 514 l 319 514 l 319 532 b 346 629 319 577 328 610 b 439 658 363 649 394 658 z m 561 933 l 751 933 l 611 1135 b 564 1181 599 1151 583 1167 b 489 1203 544 1196 519 1203 b 413 1180 458 1203 433 1195 b 365 1135 392 1165 376 1150 l 225 933 l 415 933 l 489 1047 z "},"ë":{"ha":971,"x_min":0,"x_max":0,"o":"m 915 339 l 915 460 b 897 617 915 517 909 569 b 834 738 885 664 864 704 b 711 817 804 772 763 798 b 517 844 659 835 594 844 l 461 844 b 147 745 316 844 211 811 b 51 481 83 679 51 591 l 51 375 b 74 222 51 319 59 269 b 148 103 90 176 114 136 b 283 27 182 71 227 45 b 489 0 339 9 407 0 l 896 0 l 896 201 l 474 201 b 354 228 417 201 377 210 b 319 333 331 245 319 281 l 319 339 z m 547 658 b 638 629 590 658 620 649 b 665 532 656 610 665 577 l 665 514 l 319 514 l 319 532 b 346 629 319 577 328 610 b 439 658 363 649 394 658 z m 724 961 l 724 1139 l 538 1139 l 538 961 z m 439 961 l 439 1139 l 253 1139 l 253 961 z "},"ì":{"ha":458,"x_min":0,"x_max":0,"o":"m 97 0 l 361 0 l 361 833 l 97 833 z m 335 933 l 244 1194 l 29 1194 l 126 933 z "},"í":{"ha":458,"x_min":0,"x_max":0,"o":"m 97 0 l 361 0 l 361 833 l 97 833 z m 129 933 l 338 933 l 435 1194 l 219 1194 z "},"î":{"ha":458,"x_min":0,"x_max":0,"o":"m 97 0 l 361 0 l 361 833 l 97 833 z m 301 933 l 492 933 l 351 1135 b 304 1181 339 1151 324 1167 b 229 1203 285 1196 260 1203 b 153 1180 199 1203 173 1195 b 106 1135 132 1165 117 1150 l -35 933 l 156 933 l 229 1047 z "},"ï":{"ha":458,"x_min":0,"x_max":0,"o":"m 97 0 l 361 0 l 361 833 l 97 833 z m 464 961 l 464 1139 l 278 1139 l 278 961 z m 179 961 l 179 1139 l -7 1139 l -7 961 z "},"ð":{"ha":999,"x_min":0,"x_max":0,"o":"m 292 825 l 292 714 l 543 788 l 585 754 b 644 699 612 733 631 714 b 668 653 656 683 664 668 l 431 653 b 126 588 288 653 186 631 b 35 369 65 544 35 471 l 35 281 b 125 63 35 181 65 109 b 436 -7 185 16 289 -7 l 504 -7 b 842 75 662 -7 774 20 b 943 353 909 130 943 222 l 943 535 b 938 636 943 573 941 606 b 917 717 934 666 927 693 b 874 788 906 742 892 766 b 801 861 855 811 831 835 l 943 903 l 943 1014 l 703 944 l 585 1042 l 224 1042 l 442 868 z m 526 192 l 436 192 b 328 216 382 192 346 200 b 300 288 309 232 300 256 l 300 360 b 333 433 300 395 311 419 b 451 454 354 447 394 454 l 672 454 l 672 326 b 641 219 672 273 662 237 b 526 192 620 201 582 192 z "},"ñ":{"ha":1024,"x_min":0,"x_max":0,"o":"m 81 0 l 344 0 l 344 618 l 575 618 b 658 591 616 618 643 609 b 679 500 672 573 679 543 l 679 0 l 943 0 l 943 493 b 861 742 943 598 916 681 b 597 833 806 803 719 833 l 81 833 z m 588 1094 l 540 1131 b 463 1181 510 1154 484 1171 b 385 1197 442 1192 416 1197 b 276 1157 342 1197 306 1184 b 232 1042 247 1130 232 1092 l 232 933 l 369 933 l 369 1019 b 376 1045 369 1031 372 1040 b 393 1053 381 1050 387 1053 b 414 1046 400 1053 407 1050 b 438 1028 420 1041 428 1035 l 485 992 b 562 941 515 969 541 952 b 640 925 583 930 609 925 b 750 967 685 925 721 939 b 793 1083 779 996 793 1034 l 793 1189 l 656 1189 l 656 1103 b 650 1077 656 1091 654 1082 b 633 1069 646 1072 641 1069 b 613 1076 625 1069 618 1072 z "},"ò":{"ha":1010,"x_min":0,"x_max":0,"o":"m 958 467 b 853 744 958 582 923 675 b 554 847 784 813 684 847 l 457 847 b 157 744 327 847 227 813 b 51 467 87 675 51 582 l 51 367 b 157 90 51 251 87 159 b 457 -14 227 21 327 -14 l 554 -14 b 853 90 684 -14 784 21 b 958 367 923 159 958 251 z m 688 489 l 688 346 b 658 224 688 291 678 251 b 551 185 638 198 602 185 l 460 185 b 353 224 409 185 373 198 b 322 346 332 251 322 291 l 322 489 b 353 609 322 543 332 583 b 460 649 373 635 409 649 l 551 649 b 658 609 602 649 638 635 b 688 489 678 583 688 543 z m 611 933 l 521 1194 l 306 1194 l 403 933 z "},"ó":{"ha":1010,"x_min":0,"x_max":0,"o":"m 958 467 b 853 744 958 582 923 675 b 554 847 784 813 684 847 l 457 847 b 157 744 327 847 227 813 b 51 467 87 675 51 582 l 51 367 b 157 90 51 251 87 159 b 457 -14 227 21 327 -14 l 554 -14 b 853 90 684 -14 784 21 b 958 367 923 159 958 251 z m 688 489 l 688 346 b 658 224 688 291 678 251 b 551 185 638 198 602 185 l 460 185 b 353 224 409 185 373 198 b 322 346 332 251 322 291 l 322 489 b 353 609 322 543 332 583 b 460 649 373 635 409 649 l 551 649 b 658 609 602 649 638 635 b 688 489 678 583 688 543 z m 406 933 l 614 933 l 711 1194 l 496 1194 z "},"ô":{"ha":1010,"x_min":0,"x_max":0,"o":"m 958 467 b 853 744 958 582 923 675 b 554 847 784 813 684 847 l 457 847 b 157 744 327 847 227 813 b 51 467 87 675 51 582 l 51 367 b 157 90 51 251 87 159 b 457 -14 227 21 327 -14 l 554 -14 b 853 90 684 -14 784 21 b 958 367 923 159 958 251 z m 688 489 l 688 346 b 658 224 688 291 678 251 b 551 185 638 198 602 185 l 460 185 b 353 224 409 185 373 198 b 322 346 332 251 322 291 l 322 489 b 353 609 322 543 332 583 b 460 649 373 635 409 649 l 551 649 b 658 609 602 649 638 635 b 688 489 678 583 688 543 z m 578 933 l 768 933 l 628 1135 b 581 1181 616 1151 600 1167 b 506 1203 561 1196 536 1203 b 429 1180 475 1203 450 1195 b 382 1135 409 1165 393 1150 l 242 933 l 432 933 l 506 1047 z "},"õ":{"ha":1010,"x_min":0,"x_max":0,"o":"m 958 467 b 853 744 958 582 923 675 b 554 847 784 813 684 847 l 457 847 b 157 744 327 847 227 813 b 51 467 87 675 51 582 l 51 367 b 157 90 51 251 87 159 b 457 -14 227 21 327 -14 l 554 -14 b 853 90 684 -14 784 21 b 958 367 923 159 958 251 z m 688 489 l 688 346 b 658 224 688 291 678 251 b 551 185 638 198 602 185 l 460 185 b 353 224 409 185 373 198 b 322 346 332 251 322 291 l 322 489 b 353 609 322 543 332 583 b 460 649 373 635 409 649 l 551 649 b 658 609 602 649 638 635 b 688 489 678 583 688 543 z m 581 1094 l 533 1131 b 456 1181 503 1154 477 1171 b 378 1197 435 1192 409 1197 b 269 1157 335 1197 299 1184 b 225 1042 240 1130 225 1092 l 225 933 l 363 933 l 363 1019 b 369 1045 363 1031 365 1040 b 386 1053 374 1050 380 1053 b 407 1046 394 1053 400 1050 b 431 1028 413 1041 421 1035 l 478 992 b 555 941 508 969 534 952 b 633 925 576 930 602 925 b 743 967 678 925 714 939 b 786 1083 772 996 786 1034 l 786 1189 l 649 1189 l 649 1103 b 643 1077 649 1091 647 1082 b 626 1069 639 1072 634 1069 b 606 1076 618 1069 611 1072 z "},"ö":{"ha":1010,"x_min":0,"x_max":0,"o":"m 958 467 b 853 744 958 582 923 675 b 554 847 784 813 684 847 l 457 847 b 157 744 327 847 227 813 b 51 467 87 675 51 582 l 51 367 b 157 90 51 251 87 159 b 457 -14 227 21 327 -14 l 554 -14 b 853 90 684 -14 784 21 b 958 367 923 159 958 251 z m 688 489 l 688 346 b 658 224 688 291 678 251 b 551 185 638 198 602 185 l 460 185 b 353 224 409 185 373 198 b 322 346 332 251 322 291 l 322 489 b 353 609 322 543 332 583 b 460 649 373 635 409 649 l 551 649 b 658 609 602 649 638 635 b 688 489 678 583 688 543 z m 740 961 l 740 1139 l 554 1139 l 554 961 z m 456 961 l 456 1139 l 269 1139 l 269 961 z "},"÷":{"ha":758,"x_min":0,"x_max":0,"o":"m 268 729 l 490 729 l 490 965 l 268 965 z m 69 410 l 689 410 l 689 632 l 69 632 z m 268 76 l 490 76 l 490 313 l 268 313 z "},"ø":{"ha":1010,"x_min":0,"x_max":0,"o":"m 49 0 l 178 0 l 218 43 b 326 1 250 25 285 10 b 457 -14 366 -9 410 -14 l 554 -14 b 853 90 684 -14 784 21 b 958 367 923 159 958 251 l 958 467 b 935 617 958 521 950 571 b 865 733 919 662 896 701 l 960 833 l 826 833 l 789 793 b 683 833 757 811 722 824 b 554 847 643 843 600 847 l 457 847 b 157 744 327 847 227 813 b 51 467 87 675 51 582 l 51 367 b 75 217 51 312 59 262 b 144 101 91 172 114 134 z m 322 346 l 322 489 b 353 609 322 543 332 583 b 460 649 373 635 409 649 l 551 649 b 599 644 569 649 585 647 b 636 629 614 641 626 636 l 325 296 b 323 319 324 303 323 311 b 322 346 322 328 322 337 z m 688 489 l 688 346 b 658 224 688 291 678 251 b 551 185 638 198 602 185 l 460 185 b 409 190 440 185 423 187 b 372 207 395 194 382 200 l 685 540 b 687 516 686 533 686 525 b 688 489 687 507 688 498 z "},"ù":{"ha":1024,"x_min":0,"x_max":0,"o":"m 679 215 l 449 215 b 366 242 408 215 380 224 b 344 333 352 260 344 291 l 344 833 l 81 833 l 81 340 b 163 92 81 236 108 153 b 426 0 217 31 305 0 l 943 0 l 943 833 l 679 833 z m 618 933 l 528 1194 l 313 1194 l 410 933 z "},"ú":{"ha":1024,"x_min":0,"x_max":0,"o":"m 679 215 l 449 215 b 366 242 408 215 380 224 b 344 333 352 260 344 291 l 344 833 l 81 833 l 81 340 b 163 92 81 236 108 153 b 426 0 217 31 305 0 l 943 0 l 943 833 l 679 833 z m 413 933 l 621 933 l 718 1194 l 503 1194 z "},"û":{"ha":1024,"x_min":0,"x_max":0,"o":"m 679 215 l 449 215 b 366 242 408 215 380 224 b 344 333 352 260 344 291 l 344 833 l 81 833 l 81 340 b 163 92 81 236 108 153 b 426 0 217 31 305 0 l 943 0 l 943 833 l 679 833 z m 585 933 l 775 933 l 635 1135 b 588 1181 623 1151 607 1167 b 513 1203 568 1196 543 1203 b 436 1180 482 1203 456 1195 b 389 1135 416 1165 400 1150 l 249 933 l 439 933 l 513 1047 z "},"ü":{"ha":1024,"x_min":0,"x_max":0,"o":"m 679 215 l 449 215 b 366 242 408 215 380 224 b 344 333 352 260 344 291 l 344 833 l 81 833 l 81 340 b 163 92 81 236 108 153 b 426 0 217 31 305 0 l 943 0 l 943 833 l 679 833 z m 747 961 l 747 1139 l 561 1139 l 561 961 z m 463 961 l 463 1139 l 276 1139 l 276 961 z "},"ý":{"ha":1000,"x_min":0,"x_max":0,"o":"m 488 335 l 304 833 l 14 833 l 256 240 b 313 164 269 206 289 181 b 407 139 338 147 369 139 l 474 139 l 464 111 b 420 35 452 76 437 51 b 344 13 403 20 378 13 l 93 13 l 93 -208 l 321 -208 b 560 -142 421 -208 501 -186 b 688 25 620 -98 663 -43 l 986 833 l 706 833 l 543 335 b 531 315 539 325 535 318 b 517 310 527 311 522 310 b 501 315 512 310 507 311 b 488 335 496 318 491 325 z m 400 933 l 608 933 l 706 1194 l 490 1194 z "},"þ":{"ha":1053,"x_min":0,"x_max":0,"o":"m 81 -208 l 344 -208 l 344 0 l 672 0 b 914 103 775 0 856 34 b 1001 375 972 171 1001 262 l 1001 458 b 914 731 1001 571 972 662 b 672 833 856 799 775 833 l 344 833 l 344 1042 l 81 1042 z m 582 628 b 699 592 638 628 677 616 b 731 475 720 569 731 530 l 731 365 b 699 244 731 311 720 270 b 582 206 677 219 638 206 l 344 206 l 344 628 z "},"ÿ":{"ha":1000,"x_min":0,"x_max":0,"o":"m 488 335 l 304 833 l 14 833 l 256 240 b 313 164 269 206 289 181 b 407 139 338 147 369 139 l 474 139 l 464 111 b 420 35 452 76 437 51 b 344 13 403 20 378 13 l 93 13 l 93 -208 l 321 -208 b 560 -142 421 -208 501 -186 b 688 25 620 -98 663 -43 l 986 833 l 706 833 l 543 335 b 531 315 539 325 535 318 b 517 310 527 311 522 310 b 501 315 512 310 507 311 b 488 335 496 318 491 325 z m 735 961 l 735 1139 l 549 1139 l 549 961 z m 450 961 l 450 1139 l 264 1139 l 264 961 z "},"Ā":{"ha":1236,"x_min":0,"x_max":0,"o":"m 940 0 l 1229 0 l 886 843 b 785 999 860 908 827 960 b 615 1058 744 1039 688 1058 b 452 999 546 1058 491 1038 b 353 840 413 959 380 906 l 7 0 l 288 0 l 371 218 l 858 218 z m 592 790 b 601 808 594 798 598 804 b 617 815 605 813 610 815 b 633 808 624 815 629 813 b 642 790 636 803 639 797 l 776 433 l 454 433 z m 799 1176 l 799 1313 l 438 1313 l 438 1176 z "},"ā":{"ha":951,"x_min":0,"x_max":0,"o":"m 871 451 b 768 733 871 572 837 666 b 426 833 700 800 586 833 l 61 833 l 61 632 l 500 632 l 264 469 b 107 349 203 428 150 388 b 42 196 63 311 42 260 b 108 54 42 138 64 90 b 300 0 153 18 217 0 l 871 0 z m 375 201 b 338 209 357 201 345 204 b 326 232 330 214 326 222 b 336 255 326 241 330 249 b 369 282 343 261 354 270 l 621 478 l 621 201 z m 674 968 l 674 1104 l 313 1104 l 313 968 z "},"Ă":{"ha":1236,"x_min":0,"x_max":0,"o":"m 940 0 l 1229 0 l 886 843 b 785 999 860 908 827 960 b 615 1058 744 1039 688 1058 b 452 999 546 1058 491 1038 b 353 840 413 959 380 906 l 7 0 l 288 0 l 371 218 l 858 218 z m 592 790 b 601 808 594 798 598 804 b 617 815 605 813 610 815 b 633 808 624 815 629 813 b 642 790 636 803 639 797 l 776 433 l 454 433 z m 388 1361 l 388 1244 b 426 1162 388 1211 400 1184 b 519 1129 451 1140 482 1129 l 704 1129 b 795 1162 738 1129 769 1140 b 835 1244 822 1184 835 1211 l 835 1361 l 701 1361 l 701 1290 b 688 1256 701 1275 697 1264 b 654 1244 679 1248 668 1244 l 571 1244 b 537 1256 557 1244 546 1248 b 524 1290 528 1264 524 1275 l 524 1361 z "},"ă":{"ha":951,"x_min":0,"x_max":0,"o":"m 871 451 b 768 733 871 572 837 666 b 426 833 700 800 586 833 l 61 833 l 61 632 l 500 632 l 264 469 b 107 349 203 428 150 388 b 42 196 63 311 42 260 b 108 54 42 138 64 90 b 300 0 153 18 217 0 l 871 0 z m 375 201 b 338 209 357 201 345 204 b 326 232 330 214 326 222 b 336 255 326 241 330 249 b 369 282 343 261 354 270 l 621 478 l 621 201 z m 261 1153 l 261 1036 b 299 953 261 1003 274 975 b 393 921 325 932 356 921 l 578 921 b 669 953 612 921 642 932 b 708 1036 695 975 708 1003 l 708 1153 l 575 1153 l 575 1082 b 562 1048 575 1067 571 1056 b 528 1036 553 1040 542 1036 l 444 1036 b 410 1048 431 1036 419 1040 b 397 1082 402 1056 397 1067 l 397 1153 z "},"Ą":{"ha":1236,"x_min":0,"x_max":0,"o":"m 940 0 l 1229 0 l 886 843 b 785 999 860 908 827 960 b 615 1058 744 1039 688 1058 b 452 999 546 1058 491 1038 b 353 840 413 959 380 906 l 7 0 l 288 0 l 371 218 l 858 218 z m 592 790 b 601 808 594 798 598 804 b 617 815 605 813 610 815 b 633 808 624 815 629 813 b 642 790 636 803 639 797 l 776 433 l 454 433 z m 1074 0 l 1028 -46 b 980 -108 1005 -69 989 -90 b 967 -162 971 -127 967 -145 b 1001 -235 967 -191 978 -215 b 1111 -264 1023 -254 1060 -264 l 1229 -264 l 1229 -157 l 1181 -157 b 1151 -149 1168 -157 1158 -154 b 1142 -129 1145 -144 1142 -137 b 1149 -106 1142 -121 1144 -113 b 1168 -81 1153 -99 1160 -91 l 1229 0 z "},"ą":{"ha":951,"x_min":0,"x_max":0,"o":"m 871 451 b 768 733 871 572 837 666 b 426 833 700 800 586 833 l 61 833 l 61 632 l 500 632 l 264 469 b 107 349 203 428 150 388 b 42 196 63 311 42 260 b 108 54 42 138 64 90 b 300 0 153 18 217 0 l 871 0 z m 375 201 b 338 209 357 201 345 204 b 326 232 330 214 326 222 b 336 255 326 241 330 249 b 369 282 343 261 354 270 l 621 478 l 621 201 z m 715 0 l 669 -46 b 622 -108 646 -69 630 -90 b 608 -162 613 -127 608 -145 b 642 -235 608 -191 620 -215 b 753 -264 665 -254 702 -264 l 871 -264 l 871 -157 l 822 -157 b 793 -149 809 -157 800 -154 b 783 -129 787 -144 783 -137 b 790 -106 783 -121 786 -113 b 810 -81 795 -99 801 -91 l 871 0 z "},"Ć":{"ha":1001,"x_min":0,"x_max":0,"o":"m 960 229 l 578 229 b 396 280 489 229 428 246 b 347 447 363 314 347 369 l 347 594 b 394 762 347 672 363 728 b 571 813 426 796 485 813 l 953 813 l 953 1042 l 557 1042 b 339 1010 475 1042 402 1031 b 182 922 276 990 224 960 b 88 781 140 883 109 836 b 56 597 66 726 56 665 l 56 444 b 88 260 56 377 66 316 b 182 120 109 205 140 159 b 339 31 224 82 276 52 b 557 0 402 10 475 0 l 960 0 z m 471 1142 l 679 1142 l 776 1403 l 561 1403 z "},"ć":{"ha":863,"x_min":0,"x_max":0,"o":"m 481 632 l 793 632 l 793 833 l 472 833 b 150 735 323 833 216 801 b 51 467 84 670 51 581 l 51 365 b 150 97 51 251 84 162 b 472 0 216 32 323 0 l 793 0 l 793 201 l 481 201 b 360 229 426 201 386 211 b 322 340 335 248 322 285 l 322 483 b 360 595 322 533 335 571 b 481 632 386 620 426 632 z m 388 933 l 596 933 l 693 1194 l 478 1194 z "},"Ċ":{"ha":1001,"x_min":0,"x_max":0,"o":"m 960 229 l 578 229 b 396 280 489 229 428 246 b 347 447 363 314 347 369 l 347 594 b 394 762 347 672 363 728 b 571 813 426 796 485 813 l 953 813 l 953 1042 l 557 1042 b 339 1010 475 1042 402 1031 b 182 922 276 990 224 960 b 88 781 140 883 109 836 b 56 597 66 726 56 665 l 56 444 b 88 260 56 377 66 316 b 182 120 109 205 140 159 b 339 31 224 82 276 52 b 557 0 402 10 475 0 l 960 0 z m 667 1128 l 667 1306 l 474 1306 l 474 1128 z "},"ċ":{"ha":863,"x_min":0,"x_max":0,"o":"m 481 632 l 793 632 l 793 833 l 472 833 b 150 735 323 833 216 801 b 51 467 84 670 51 581 l 51 365 b 150 97 51 251 84 162 b 472 0 216 32 323 0 l 793 0 l 793 201 l 481 201 b 360 229 426 201 386 211 b 322 340 335 248 322 285 l 322 483 b 360 595 322 533 335 571 b 481 632 386 620 426 632 z m 583 919 l 583 1097 l 390 1097 l 390 919 z "},"Č":{"ha":1001,"x_min":0,"x_max":0,"o":"m 960 229 l 578 229 b 396 280 489 229 428 246 b 347 447 363 314 347 369 l 347 594 b 394 762 347 672 363 728 b 571 813 426 796 485 813 l 953 813 l 953 1042 l 557 1042 b 339 1010 475 1042 402 1031 b 182 922 276 990 224 960 b 88 781 140 883 109 836 b 56 597 66 726 56 665 l 56 444 b 88 260 56 377 66 316 b 182 120 109 205 140 159 b 339 31 224 82 276 52 b 557 0 402 10 475 0 l 960 0 z m 694 1181 l 835 1382 l 644 1382 l 572 1268 l 499 1382 l 308 1382 l 449 1181 b 496 1135 460 1166 475 1151 b 572 1113 516 1120 542 1113 b 647 1134 603 1113 628 1120 b 694 1181 667 1148 682 1164 z "},"č":{"ha":863,"x_min":0,"x_max":0,"o":"m 481 632 l 793 632 l 793 833 l 472 833 b 150 735 323 833 216 801 b 51 467 84 670 51 581 l 51 365 b 150 97 51 251 84 162 b 472 0 216 32 323 0 l 793 0 l 793 201 l 481 201 b 360 229 426 201 386 211 b 322 340 335 248 322 285 l 322 483 b 360 595 322 533 335 571 b 481 632 386 620 426 632 z m 610 972 l 750 1174 l 560 1174 l 488 1060 l 414 1174 l 224 1174 l 364 972 b 411 927 375 957 391 942 b 488 904 431 912 457 904 b 563 926 518 904 543 911 b 610 972 582 940 598 956 z "},"Ď":{"ha":1181,"x_min":0,"x_max":0,"o":"m 631 1042 l 90 1042 l 90 0 l 631 0 b 848 31 713 0 785 10 b 1003 120 910 52 962 82 b 1094 260 1044 159 1074 205 b 1125 444 1115 316 1125 377 l 1125 597 b 1094 781 1125 665 1115 726 b 1003 922 1074 836 1044 883 b 848 1010 962 960 910 990 b 631 1042 785 1031 713 1042 z m 613 822 b 789 772 700 822 759 805 b 833 596 819 738 833 679 l 833 447 b 788 271 833 364 818 305 b 606 219 758 237 697 219 l 368 219 l 368 822 z m 714 1181 l 854 1382 l 664 1382 l 592 1268 l 518 1382 l 328 1382 l 468 1181 b 515 1135 479 1166 495 1151 b 592 1113 536 1120 561 1113 b 667 1134 622 1113 647 1120 b 714 1181 686 1148 702 1164 z "},"ď":{"ha":1275,"x_min":0,"x_max":0,"o":"m 972 1042 l 708 1042 l 708 833 l 381 833 b 139 731 278 833 197 799 b 51 458 81 662 51 571 l 51 375 b 139 103 51 262 81 171 b 381 0 197 34 278 0 l 972 0 z m 471 206 b 354 241 414 206 375 217 b 322 358 333 265 322 304 l 322 468 b 354 589 322 523 333 563 b 471 628 375 615 414 628 l 708 628 l 708 206 z m 1022 671 l 1203 671 l 1261 1042 l 1081 1042 z "},"Đ":{"ha":1213,"x_min":0,"x_max":0,"o":"m 14 597 l 14 444 l 122 444 l 122 0 l 663 0 b 880 31 745 0 817 10 b 1035 120 942 52 994 82 b 1126 260 1075 159 1106 205 b 1157 444 1147 316 1157 377 l 1157 597 b 1126 781 1157 665 1147 726 b 1035 922 1106 836 1075 883 b 880 1010 994 960 942 990 b 663 1042 817 1031 745 1042 l 122 1042 l 122 597 z m 644 822 b 821 772 732 822 791 805 b 865 596 850 738 865 679 l 865 447 b 820 271 865 364 850 305 b 638 219 790 237 729 219 l 400 219 l 400 444 l 654 444 l 654 597 l 400 597 l 400 822 z "},"đ":{"ha":1053,"x_min":0,"x_max":0,"o":"m 538 1000 l 538 875 l 708 875 l 708 833 l 381 833 b 139 731 278 833 197 799 b 51 458 81 662 51 571 l 51 375 b 139 103 51 262 81 171 b 381 0 197 34 278 0 l 972 0 l 972 875 l 1039 875 l 1039 1000 l 972 1000 l 972 1042 l 708 1042 l 708 1000 z m 471 206 b 354 241 414 206 375 217 b 322 358 333 265 322 304 l 322 468 b 354 589 322 523 333 563 b 471 628 375 615 414 628 l 708 628 l 708 206 z "},"Ē":{"ha":1039,"x_min":0,"x_max":0,"o":"m 90 0 l 960 0 l 960 229 l 361 229 l 361 410 l 960 410 l 960 632 l 361 632 l 361 813 l 960 813 l 960 1042 l 90 1042 z m 728 1176 l 728 1313 l 367 1313 l 367 1176 z "},"ē":{"ha":971,"x_min":0,"x_max":0,"o":"m 915 339 l 915 460 b 897 617 915 517 909 569 b 834 738 885 664 864 704 b 711 817 804 772 763 798 b 517 844 659 835 594 844 l 461 844 b 147 745 316 844 211 811 b 51 481 83 679 51 591 l 51 375 b 74 222 51 319 59 269 b 148 103 90 176 114 136 b 283 27 182 71 227 45 b 489 0 339 9 407 0 l 896 0 l 896 201 l 474 201 b 354 228 417 201 377 210 b 319 333 331 245 319 281 l 319 339 z m 547 658 b 638 629 590 658 620 649 b 665 532 656 610 665 577 l 665 514 l 319 514 l 319 532 b 346 629 319 577 328 610 b 439 658 363 649 394 658 z m 669 968 l 669 1104 l 308 1104 l 308 968 z "},"Ĕ":{"ha":1039,"x_min":0,"x_max":0,"o":"m 90 0 l 960 0 l 960 229 l 361 229 l 361 410 l 960 410 l 960 632 l 361 632 l 361 813 l 960 813 l 960 1042 l 90 1042 z m 317 1361 l 317 1244 b 355 1162 317 1211 329 1184 b 449 1129 380 1140 412 1129 l 633 1129 b 724 1162 668 1129 698 1140 b 764 1244 751 1184 764 1211 l 764 1361 l 631 1361 l 631 1290 b 617 1256 631 1275 626 1264 b 583 1244 609 1248 597 1244 l 500 1244 b 466 1256 486 1244 475 1248 b 453 1290 457 1264 453 1275 l 453 1361 z "},"ĕ":{"ha":971,"x_min":0,"x_max":0,"o":"m 915 339 l 915 460 b 897 617 915 517 909 569 b 834 738 885 664 864 704 b 711 817 804 772 763 798 b 517 844 659 835 594 844 l 461 844 b 147 745 316 844 211 811 b 51 481 83 679 51 591 l 51 375 b 74 222 51 319 59 269 b 148 103 90 176 114 136 b 283 27 182 71 227 45 b 489 0 339 9 407 0 l 896 0 l 896 201 l 474 201 b 354 228 417 201 377 210 b 319 333 331 245 319 281 l 319 339 z m 547 658 b 638 629 590 658 620 649 b 665 532 656 610 665 577 l 665 514 l 319 514 l 319 532 b 346 629 319 577 328 610 b 439 658 363 649 394 658 z m 257 1153 l 257 1036 b 295 953 257 1003 270 975 b 389 921 321 932 352 921 l 574 921 b 665 953 608 921 638 932 b 704 1036 691 975 704 1003 l 704 1153 l 571 1153 l 571 1082 b 558 1048 571 1067 566 1056 b 524 1036 549 1040 538 1036 l 440 1036 b 406 1048 426 1036 415 1040 b 393 1082 397 1056 393 1067 l 393 1153 z "},"Ė":{"ha":1039,"x_min":0,"x_max":0,"o":"m 90 0 l 960 0 l 960 229 l 361 229 l 361 410 l 960 410 l 960 632 l 361 632 l 361 813 l 960 813 l 960 1042 l 90 1042 z m 643 1128 l 643 1306 l 450 1306 l 450 1128 z "},"ė":{"ha":971,"x_min":0,"x_max":0,"o":"m 915 339 l 915 460 b 897 617 915 517 909 569 b 834 738 885 664 864 704 b 711 817 804 772 763 798 b 517 844 659 835 594 844 l 461 844 b 147 745 316 844 211 811 b 51 481 83 679 51 591 l 51 375 b 74 222 51 319 59 269 b 148 103 90 176 114 136 b 283 27 182 71 227 45 b 489 0 339 9 407 0 l 896 0 l 896 201 l 474 201 b 354 228 417 201 377 210 b 319 333 331 245 319 281 l 319 339 z m 547 658 b 638 629 590 658 620 649 b 665 532 656 610 665 577 l 665 514 l 319 514 l 319 532 b 346 629 319 577 328 610 b 439 658 363 649 394 658 z m 585 919 l 585 1097 l 392 1097 l 392 919 z "},"Ę":{"ha":1039,"x_min":0,"x_max":0,"o":"m 90 0 l 960 0 l 960 229 l 361 229 l 361 410 l 960 410 l 960 632 l 361 632 l 361 813 l 960 813 l 960 1042 l 90 1042 z m 804 0 l 758 -46 b 710 -108 735 -69 719 -90 b 697 -162 702 -127 697 -145 b 731 -235 697 -191 709 -215 b 842 -264 754 -254 791 -264 l 960 -264 l 960 -157 l 911 -157 b 882 -149 898 -157 888 -154 b 872 -129 875 -144 872 -137 b 879 -106 872 -121 875 -113 b 899 -81 884 -99 890 -91 l 960 0 z "},"ę":{"ha":971,"x_min":0,"x_max":0,"o":"m 915 339 l 915 460 b 897 617 915 517 909 569 b 834 738 885 664 864 704 b 711 817 804 772 763 798 b 517 844 659 835 594 844 l 461 844 b 147 745 316 844 211 811 b 51 481 83 679 51 591 l 51 375 b 74 222 51 319 59 269 b 148 103 90 176 114 136 b 283 27 182 71 227 45 b 489 0 339 9 407 0 l 896 0 l 896 201 l 474 201 b 354 228 417 201 377 210 b 319 333 331 245 319 281 l 319 339 z m 547 658 b 638 629 590 658 620 649 b 665 532 656 610 665 577 l 665 514 l 319 514 l 319 532 b 346 629 319 577 328 610 b 439 658 363 649 394 658 z m 740 0 l 694 -46 b 647 -108 671 -69 655 -90 b 633 -162 638 -127 633 -145 b 667 -235 633 -191 645 -215 b 778 -264 690 -254 727 -264 l 896 -264 l 896 -157 l 847 -157 b 818 -149 834 -157 825 -154 b 808 -129 812 -144 808 -137 b 815 -106 808 -121 811 -113 b 835 -81 820 -99 826 -91 l 896 0 z "},"Ě":{"ha":1039,"x_min":0,"x_max":0,"o":"m 90 0 l 960 0 l 960 229 l 361 229 l 361 410 l 960 410 l 960 632 l 361 632 l 361 813 l 960 813 l 960 1042 l 90 1042 z m 671 1181 l 811 1382 l 621 1382 l 549 1268 l 475 1382 l 285 1382 l 425 1181 b 472 1135 436 1166 452 1151 b 549 1113 493 1120 518 1113 b 624 1134 579 1113 604 1120 b 671 1181 643 1148 659 1164 z "},"ě":{"ha":971,"x_min":0,"x_max":0,"o":"m 915 339 l 915 460 b 897 617 915 517 909 569 b 834 738 885 664 864 704 b 711 817 804 772 763 798 b 517 844 659 835 594 844 l 461 844 b 147 745 316 844 211 811 b 51 481 83 679 51 591 l 51 375 b 74 222 51 319 59 269 b 148 103 90 176 114 136 b 283 27 182 71 227 45 b 489 0 339 9 407 0 l 896 0 l 896 201 l 474 201 b 354 228 417 201 377 210 b 319 333 331 245 319 281 l 319 339 z m 547 658 b 638 629 590 658 620 649 b 665 532 656 610 665 577 l 665 514 l 319 514 l 319 532 b 346 629 319 577 328 610 b 439 658 363 649 394 658 z m 611 972 l 751 1174 l 561 1174 l 489 1060 l 415 1174 l 225 1174 l 365 972 b 413 927 376 957 392 942 b 489 904 433 912 458 904 b 564 926 519 904 544 911 b 611 972 583 940 599 956 z "},"Ğ":{"ha":1188,"x_min":0,"x_max":0,"o":"m 1099 1042 l 557 1042 b 339 1010 475 1042 402 1031 b 182 922 276 990 224 960 b 88 781 140 883 109 836 b 56 597 66 726 56 665 l 56 449 b 181 108 56 303 97 190 b 561 -14 265 27 392 -14 l 713 -14 b 1013 60 843 -14 943 11 b 1118 289 1083 109 1118 185 l 1118 618 l 588 618 l 588 399 l 868 399 l 868 307 b 834 234 868 274 857 249 b 722 211 811 219 774 211 l 553 211 b 394 263 478 211 425 228 b 347 438 363 297 347 355 l 347 594 b 394 762 347 672 363 728 b 571 813 426 796 485 813 l 1099 813 z m 396 1361 l 396 1244 b 434 1162 396 1211 409 1184 b 528 1129 459 1140 491 1129 l 713 1129 b 803 1162 747 1129 777 1140 b 843 1244 830 1184 843 1211 l 843 1361 l 710 1361 l 710 1290 b 697 1256 710 1275 705 1264 b 663 1244 688 1248 676 1244 l 579 1244 b 545 1256 565 1244 554 1248 b 532 1290 536 1264 532 1275 l 532 1361 z "},"ğ":{"ha":1025,"x_min":0,"x_max":0,"o":"m 507 -208 b 843 -134 663 -208 775 -184 b 944 114 911 -84 944 -2 l 944 833 l 374 833 b 139 739 275 833 197 802 b 51 479 81 676 51 589 l 51 447 b 139 197 51 341 81 257 b 374 107 197 137 275 107 l 681 107 l 681 89 b 649 14 681 56 670 31 b 510 -11 627 -3 581 -11 l 108 -11 l 108 -208 z m 456 296 b 351 330 406 296 371 307 b 322 435 332 353 322 388 l 322 499 b 351 601 322 547 332 581 b 456 631 371 621 406 631 l 681 631 l 681 296 z m 310 1153 l 310 1036 b 348 953 310 1003 322 975 b 442 921 373 932 405 921 l 626 921 b 717 953 661 921 691 932 b 757 1036 744 975 757 1003 l 757 1153 l 624 1153 l 624 1082 b 610 1048 624 1067 619 1056 b 576 1036 602 1040 590 1036 l 493 1036 b 459 1048 479 1036 468 1040 b 446 1082 450 1056 446 1067 l 446 1153 z "},"Ġ":{"ha":1188,"x_min":0,"x_max":0,"o":"m 1099 1042 l 557 1042 b 339 1010 475 1042 402 1031 b 182 922 276 990 224 960 b 88 781 140 883 109 836 b 56 597 66 726 56 665 l 56 449 b 181 108 56 303 97 190 b 561 -14 265 27 392 -14 l 713 -14 b 1013 60 843 -14 943 11 b 1118 289 1083 109 1118 185 l 1118 618 l 588 618 l 588 399 l 868 399 l 868 307 b 834 234 868 274 857 249 b 722 211 811 219 774 211 l 553 211 b 394 263 478 211 425 228 b 347 438 363 297 347 355 l 347 594 b 394 762 347 672 363 728 b 571 813 426 796 485 813 l 1099 813 z m 722 1128 l 722 1306 l 529 1306 l 529 1128 z "},"ġ":{"ha":1025,"x_min":0,"x_max":0,"o":"m 507 -208 b 843 -134 663 -208 775 -184 b 944 114 911 -84 944 -2 l 944 833 l 374 833 b 139 739 275 833 197 802 b 51 479 81 676 51 589 l 51 447 b 139 197 51 341 81 257 b 374 107 197 137 275 107 l 681 107 l 681 89 b 649 14 681 56 670 31 b 510 -11 627 -3 581 -11 l 108 -11 l 108 -208 z m 456 296 b 351 330 406 296 371 307 b 322 435 332 353 322 388 l 322 499 b 351 601 322 547 332 581 b 456 631 371 621 406 631 l 681 631 l 681 296 z m 636 919 l 636 1097 l 443 1097 l 443 919 z "},"Ģ":{"ha":1188,"x_min":0,"x_max":0,"o":"m 1099 1042 l 557 1042 b 339 1010 475 1042 402 1031 b 182 922 276 990 224 960 b 88 781 140 883 109 836 b 56 597 66 726 56 665 l 56 449 b 181 108 56 303 97 190 b 561 -14 265 27 392 -14 l 713 -14 b 1013 60 843 -14 943 11 b 1118 289 1083 109 1118 185 l 1118 618 l 588 618 l 588 399 l 868 399 l 868 307 b 834 234 868 274 857 249 b 722 211 811 219 774 211 l 553 211 b 394 263 478 211 425 228 b 347 438 363 297 347 355 l 347 594 b 394 762 347 672 363 728 b 571 813 426 796 485 813 l 1099 813 z m 486 -261 l 693 -261 b 726 -164 711 -217 722 -184 b 733 -90 731 -144 733 -119 l 733 -56 l 522 -56 l 522 -90 b 515 -164 522 -119 520 -144 b 486 -261 511 -184 501 -217 z "},"ģ":{"ha":1025,"x_min":0,"x_max":0,"o":"m 507 -208 b 843 -134 663 -208 775 -184 b 944 114 911 -84 944 -2 l 944 833 l 374 833 b 139 739 275 833 197 802 b 51 479 81 676 51 589 l 51 447 b 139 197 51 341 81 257 b 374 107 197 137 275 107 l 681 107 l 681 89 b 649 14 681 56 670 31 b 510 -11 627 -3 581 -11 l 108 -11 l 108 -208 z m 456 296 b 351 330 406 296 371 307 b 322 435 332 353 322 388 l 322 499 b 351 601 322 547 332 581 b 456 631 371 621 406 631 l 681 631 l 681 296 z "},"Ħ":{"ha":1201,"x_min":0,"x_max":0,"o":"m 90 0 l 368 0 l 368 404 l 861 404 l 861 0 l 1139 0 l 1139 764 l 1219 764 l 1219 917 l 1139 917 l 1139 1042 l 861 1042 l 861 917 l 368 917 l 368 1042 l 90 1042 l 90 917 l 10 917 l 10 764 l 90 764 z m 368 647 l 368 764 l 861 764 l 861 647 z "},"ħ":{"ha":1024,"x_min":0,"x_max":0,"o":"m 81 0 l 344 0 l 344 618 l 575 618 b 658 591 616 618 643 609 b 679 500 672 573 679 543 l 679 0 l 943 0 l 943 493 b 861 742 943 598 916 681 b 597 833 806 803 719 833 l 344 833 l 344 875 l 608 875 l 608 1000 l 344 1000 l 344 1042 l 81 1042 l 81 1000 l 10 1000 l 10 875 l 81 875 z "},"Ĩ":{"ha":472,"x_min":0,"x_max":0,"o":"m 97 0 l 375 0 l 375 1042 l 97 1042 z m 313 1303 l 265 1339 b 188 1390 235 1362 209 1379 b 110 1406 167 1400 141 1406 b 1 1365 67 1406 31 1392 b -43 1250 -28 1338 -43 1300 l -43 1142 l 94 1142 l 94 1228 b 101 1253 94 1240 97 1248 b 118 1261 106 1259 112 1261 b 139 1254 125 1261 132 1259 b 163 1236 145 1250 153 1244 l 210 1200 b 287 1149 240 1177 266 1160 b 365 1133 308 1139 334 1133 b 475 1176 410 1133 446 1147 b 518 1292 504 1204 518 1243 l 518 1397 l 381 1397 l 381 1311 b 375 1285 381 1299 379 1291 b 358 1278 371 1280 366 1278 b 338 1284 350 1278 343 1280 z "},"ĩ":{"ha":458,"x_min":0,"x_max":0,"o":"m 97 0 l 361 0 l 361 833 l 97 833 z m 306 1094 l 258 1131 b 181 1181 228 1154 202 1171 b 103 1197 160 1192 134 1197 b -6 1157 60 1197 24 1184 b -50 1042 -35 1130 -50 1092 l -50 933 l 88 933 l 88 1019 b 94 1045 88 1031 90 1040 b 111 1053 99 1050 105 1053 b 132 1046 119 1053 125 1050 b 156 1028 138 1041 146 1035 l 203 992 b 280 941 233 969 259 952 b 358 925 301 930 327 925 b 468 967 403 925 439 939 b 511 1083 497 996 511 1034 l 511 1189 l 374 1189 l 374 1103 b 368 1077 374 1091 372 1082 b 351 1069 364 1072 359 1069 b 331 1076 343 1069 336 1072 z "},"Ī":{"ha":472,"x_min":0,"x_max":0,"o":"m 97 0 l 375 0 l 375 1042 l 97 1042 z m 417 1176 l 417 1313 l 56 1313 l 56 1176 z "},"ī":{"ha":458,"x_min":0,"x_max":0,"o":"m 97 0 l 361 0 l 361 833 l 97 833 z m 410 968 l 410 1104 l 49 1104 l 49 968 z "},"Ĭ":{"ha":472,"x_min":0,"x_max":0,"o":"m 97 0 l 375 0 l 375 1042 l 97 1042 z m 4 1361 l 4 1244 b 42 1162 4 1211 17 1184 b 136 1129 68 1140 99 1129 l 321 1129 b 412 1162 355 1129 385 1140 b 451 1244 438 1184 451 1211 l 451 1361 l 318 1361 l 318 1290 b 305 1256 318 1275 314 1264 b 271 1244 296 1248 285 1244 l 188 1244 b 153 1256 174 1244 162 1248 b 140 1290 145 1264 140 1275 l 140 1361 z "},"ĭ":{"ha":458,"x_min":0,"x_max":0,"o":"m 97 0 l 361 0 l 361 833 l 97 833 z m -3 1153 l -3 1036 b 35 953 -3 1003 10 975 b 129 921 61 932 92 921 l 314 921 b 405 953 348 921 378 932 b 444 1036 431 975 444 1003 l 444 1153 l 311 1153 l 311 1082 b 298 1048 311 1067 307 1056 b 264 1036 289 1040 278 1036 l 181 1036 b 147 1048 167 1036 155 1040 b 133 1082 138 1056 133 1067 l 133 1153 z "},"Į":{"ha":472,"x_min":0,"x_max":0,"o":"m 97 0 l 375 0 l 375 1042 l 97 1042 z m 192 0 l 146 -46 b 98 -108 123 -69 107 -90 b 85 -162 89 -127 85 -145 b 119 -235 85 -191 96 -215 b 229 -264 141 -254 178 -264 l 347 -264 l 347 -157 l 299 -157 b 269 -149 286 -157 276 -154 b 260 -129 263 -144 260 -137 b 267 -106 260 -121 262 -113 b 286 -81 271 -99 278 -91 l 347 0 z "},"į":{"ha":458,"x_min":0,"x_max":0,"o":"m 361 906 l 361 1069 l 97 1069 l 97 906 z m 97 0 l 361 0 l 361 833 l 97 833 z m 185 0 l 139 -46 b 91 -108 116 -69 100 -90 b 78 -162 82 -127 78 -145 b 112 -235 78 -191 89 -215 b 222 -264 134 -254 171 -264 l 340 -264 l 340 -157 l 292 -157 b 263 -149 279 -157 269 -154 b 253 -129 256 -144 253 -137 b 260 -106 253 -121 255 -113 b 279 -81 264 -99 271 -91 l 340 0 z "},"İ":{"ha":472,"x_min":0,"x_max":0,"o":"m 97 0 l 375 0 l 375 1042 l 97 1042 z m 332 1128 l 332 1306 l 139 1306 l 139 1128 z "},"ı":{"ha":458,"x_min":0,"x_max":0,"o":"m 97 0 l 361 0 l 361 833 l 97 833 z "},"Ķ":{"ha":1118,"x_min":0,"x_max":0,"o":"m 83 0 l 361 0 l 361 408 l 413 408 b 480 393 441 408 464 403 b 539 331 496 383 516 362 l 783 0 l 1104 0 l 697 533 l 1093 1042 l 781 1042 l 529 703 b 478 653 510 677 493 660 b 413 642 463 645 441 642 l 361 642 l 361 1042 l 83 1042 z m 433 -261 l 640 -261 b 674 -164 658 -217 669 -184 b 681 -90 678 -144 681 -119 l 681 -56 l 469 -56 l 469 -90 b 463 -164 469 -119 467 -144 b 433 -261 458 -184 448 -217 z "},"ķ":{"ha":990,"x_min":0,"x_max":0,"o":"m 81 0 l 344 0 l 344 313 l 368 313 b 420 307 391 313 409 311 b 460 274 432 303 445 292 l 676 0 l 990 0 l 635 424 l 979 833 l 676 833 l 471 571 b 433 542 459 556 446 546 b 374 535 419 537 400 535 l 344 535 l 344 1042 l 81 1042 z m 376 -261 l 583 -261 b 617 -164 601 -217 612 -184 b 624 -90 621 -144 624 -119 l 624 -56 l 413 -56 l 413 -90 b 406 -164 413 -119 410 -144 b 376 -261 401 -184 391 -217 z "},"ĸ":{"ha":990,"x_min":0,"x_max":0,"o":"m 81 0 l 344 0 l 344 313 l 368 313 b 420 307 391 313 409 311 b 460 274 432 303 445 292 l 676 0 l 990 0 l 635 424 l 979 833 l 676 833 l 471 571 b 433 542 459 556 446 546 b 374 535 419 537 400 535 l 344 535 l 344 833 l 81 833 z "},"Ĺ":{"ha":939,"x_min":0,"x_max":0,"o":"m 90 0 l 897 0 l 897 229 l 368 229 l 368 1042 l 90 1042 z m 131 1142 l 339 1142 l 436 1403 l 221 1403 z "},"ĺ":{"ha":458,"x_min":0,"x_max":0,"o":"m 97 1042 l 97 0 l 361 0 l 361 1042 z m 129 1142 l 338 1142 l 435 1403 l 219 1403 z "},"Ļ":{"ha":939,"x_min":0,"x_max":0,"o":"m 90 0 l 897 0 l 897 229 l 368 229 l 368 1042 l 90 1042 z m 339 -261 l 546 -261 b 579 -164 563 -217 575 -184 b 586 -90 584 -144 586 -119 l 586 -56 l 375 -56 l 375 -90 b 368 -164 375 -119 373 -144 b 339 -261 363 -184 354 -217 z "},"ļ":{"ha":458,"x_min":0,"x_max":0,"o":"m 97 1042 l 97 0 l 361 0 l 361 1042 z m 88 -261 l 294 -261 b 328 -164 312 -217 323 -184 b 335 -90 332 -144 335 -119 l 335 -56 l 124 -56 l 124 -90 b 117 -164 124 -119 121 -144 b 88 -261 112 -184 102 -217 z "},"Ľ":{"ha":939,"x_min":0,"x_max":0,"o":"m 90 0 l 897 0 l 897 229 l 368 229 l 368 1042 l 90 1042 z m 467 671 l 647 671 l 706 1042 l 525 1042 z "},"ľ":{"ha":664,"x_min":0,"x_max":0,"o":"m 97 1042 l 97 0 l 361 0 l 361 1042 z m 425 671 l 606 671 l 664 1042 l 483 1042 z "},"Ŀ":{"ha":939,"x_min":0,"x_max":0,"o":"m 90 0 l 897 0 l 897 229 l 368 229 l 368 1042 l 90 1042 z m 797 544 l 797 722 l 604 722 l 604 544 z "},"ŀ":{"ha":658,"x_min":0,"x_max":0,"o":"m 97 1042 l 97 0 l 361 0 l 361 1042 z m 631 461 l 631 639 l 438 639 l 438 461 z "},"Ł":{"ha":1019,"x_min":0,"x_max":0,"o":"m 150 0 l 957 0 l 957 229 l 428 229 l 428 483 l 779 611 l 779 764 l 428 636 l 428 1042 l 150 1042 l 150 536 l 14 486 l 14 333 l 150 383 z "},"ł":{"ha":458,"x_min":0,"x_max":0,"o":"m 14 486 l 14 333 l 97 388 l 97 0 l 361 0 l 361 557 l 444 611 l 444 764 l 361 710 l 361 1042 l 97 1042 l 97 540 z "},"Ń":{"ha":1349,"x_min":0,"x_max":0,"o":"m 90 0 l 368 0 l 368 793 b 373 815 368 802 370 809 b 392 822 376 820 382 822 b 408 813 399 822 404 819 b 417 794 411 807 414 801 l 643 242 b 767 51 676 161 718 98 b 975 -18 817 5 886 -18 b 1083 0 1012 -18 1048 -12 b 1173 55 1117 12 1147 30 b 1235 147 1198 79 1219 110 b 1258 276 1250 184 1258 227 l 1258 1042 l 981 1042 l 981 247 b 976 226 981 238 979 231 b 957 218 972 221 966 218 b 941 227 950 218 944 221 b 932 246 938 233 935 239 l 706 799 b 583 987 674 876 633 939 b 374 1058 532 1034 463 1058 b 266 1039 337 1058 301 1052 b 176 983 231 1026 201 1007 b 114 890 150 958 130 927 b 90 764 98 853 90 811 z m 657 1142 l 865 1142 l 963 1403 l 747 1403 z "},"ń":{"ha":1024,"x_min":0,"x_max":0,"o":"m 81 0 l 344 0 l 344 618 l 575 618 b 658 591 616 618 643 609 b 679 500 672 573 679 543 l 679 0 l 943 0 l 943 493 b 861 742 943 598 916 681 b 597 833 806 803 719 833 l 81 833 z m 413 933 l 621 933 l 718 1194 l 503 1194 z "},"Ņ":{"ha":1349,"x_min":0,"x_max":0,"o":"m 90 0 l 368 0 l 368 793 b 373 815 368 802 370 809 b 392 822 376 820 382 822 b 408 813 399 822 404 819 b 417 794 411 807 414 801 l 643 242 b 767 51 676 161 718 98 b 975 -18 817 5 886 -18 b 1083 0 1012 -18 1048 -12 b 1173 55 1117 12 1147 30 b 1235 147 1198 79 1219 110 b 1258 276 1250 184 1258 227 l 1258 1042 l 981 1042 l 981 247 b 976 226 981 238 979 231 b 957 218 972 221 966 218 b 941 227 950 218 944 221 b 932 246 938 233 935 239 l 706 799 b 583 987 674 876 633 939 b 374 1058 532 1034 463 1058 b 266 1039 337 1058 301 1052 b 176 983 231 1026 201 1007 b 114 890 150 958 130 927 b 90 764 98 853 90 811 z m 436 -261 l 643 -261 b 676 -164 661 -217 672 -184 b 683 -90 681 -144 683 -119 l 683 -56 l 472 -56 l 472 -90 b 465 -164 472 -119 470 -144 b 436 -261 461 -184 451 -217 z "},"ņ":{"ha":1024,"x_min":0,"x_max":0,"o":"m 81 0 l 344 0 l 344 618 l 575 618 b 658 591 616 618 643 609 b 679 500 672 573 679 543 l 679 0 l 943 0 l 943 493 b 861 742 943 598 916 681 b 597 833 806 803 719 833 l 81 833 z m 371 -261 l 578 -261 b 611 -164 595 -217 606 -184 b 618 -90 616 -144 618 -119 l 618 -56 l 407 -56 l 407 -90 b 400 -164 407 -119 405 -144 b 371 -261 395 -184 386 -217 z "},"Ň":{"ha":1349,"x_min":0,"x_max":0,"o":"m 90 0 l 368 0 l 368 793 b 373 815 368 802 370 809 b 392 822 376 820 382 822 b 408 813 399 822 404 819 b 417 794 411 807 414 801 l 643 242 b 767 51 676 161 718 98 b 975 -18 817 5 886 -18 b 1083 0 1012 -18 1048 -12 b 1173 55 1117 12 1147 30 b 1235 147 1198 79 1219 110 b 1258 276 1250 184 1258 227 l 1258 1042 l 981 1042 l 981 247 b 976 226 981 238 979 231 b 957 218 972 221 966 218 b 941 227 950 218 944 221 b 932 246 938 233 935 239 l 706 799 b 583 987 674 876 633 939 b 374 1058 532 1034 463 1058 b 266 1039 337 1058 301 1052 b 176 983 231 1026 201 1007 b 114 890 150 958 130 927 b 90 764 98 853 90 811 z m 881 1181 l 1021 1382 l 831 1382 l 758 1268 l 685 1382 l 494 1382 l 635 1181 b 682 1135 646 1166 662 1151 b 758 1113 702 1120 728 1113 b 833 1134 789 1113 814 1120 b 881 1181 853 1148 869 1164 z "},"ň":{"ha":1024,"x_min":0,"x_max":0,"o":"m 81 0 l 344 0 l 344 618 l 575 618 b 658 591 616 618 643 609 b 679 500 672 573 679 543 l 679 0 l 943 0 l 943 493 b 861 742 943 598 916 681 b 597 833 806 803 719 833 l 81 833 z m 635 972 l 775 1174 l 585 1174 l 513 1060 l 439 1174 l 249 1174 l 389 972 b 436 927 400 957 416 942 b 513 904 456 912 482 904 b 588 926 543 904 568 911 b 635 972 607 940 623 956 z "},"Ŋ":{"ha":1349,"x_min":0,"x_max":0,"o":"m 90 0 l 368 0 l 368 779 b 372 801 368 788 369 796 b 389 808 375 806 381 808 b 405 799 395 808 401 805 b 417 781 409 793 413 787 l 793 0 l 526 0 l 526 -208 l 814 -208 b 1153 -101 970 -208 1084 -173 b 1258 192 1223 -30 1258 68 l 1258 1042 l 981 1042 l 981 204 l 706 799 b 580 985 670 875 628 937 b 374 1058 531 1034 463 1058 b 266 1039 337 1058 301 1052 b 176 983 231 1026 201 1007 b 114 890 150 958 130 927 b 90 764 98 853 90 811 z "},"ŋ":{"ha":1024,"x_min":0,"x_max":0,"o":"m 81 0 l 344 0 l 344 618 l 575 618 b 658 591 616 618 643 609 b 679 500 672 573 679 543 l 679 43 b 663 -13 679 16 674 -3 b 618 -29 653 -24 638 -29 l 554 -29 l 554 -208 l 665 -208 b 869 -140 751 -208 819 -186 b 943 65 918 -95 943 -26 l 943 493 b 861 742 943 598 916 681 b 597 833 806 803 719 833 l 81 833 z "},"Ō":{"ha":1214,"x_min":0,"x_max":0,"o":"m 1158 449 l 1158 593 b 1127 783 1158 663 1148 726 b 1033 928 1106 840 1075 888 b 875 1022 992 969 939 1000 b 653 1056 811 1044 737 1056 l 561 1056 b 339 1022 477 1056 403 1044 b 181 928 275 1000 222 969 b 87 783 139 888 108 840 b 56 593 66 726 56 663 l 56 449 b 87 259 56 379 66 316 b 181 113 108 202 139 153 b 339 19 222 73 275 42 b 561 -14 403 -3 477 -14 l 653 -14 b 875 19 737 -14 811 -3 b 1033 113 939 42 992 73 b 1127 259 1075 153 1106 202 b 1158 449 1148 316 1158 379 z m 347 438 l 347 607 b 394 781 347 689 363 747 b 553 832 425 815 478 832 l 661 832 b 820 781 736 832 789 815 b 867 607 851 747 867 689 l 867 438 b 820 263 867 355 851 297 b 661 211 789 228 736 211 l 553 211 b 394 263 478 211 425 228 b 347 438 363 297 347 355 z m 788 1176 l 788 1313 l 426 1313 l 426 1176 z "},"ō":{"ha":1010,"x_min":0,"x_max":0,"o":"m 958 467 b 853 744 958 582 923 675 b 554 847 784 813 684 847 l 457 847 b 157 744 327 847 227 813 b 51 467 87 675 51 582 l 51 367 b 157 90 51 251 87 159 b 457 -14 227 21 327 -14 l 554 -14 b 853 90 684 -14 784 21 b 958 367 923 159 958 251 z m 688 489 l 688 346 b 658 224 688 291 678 251 b 551 185 638 198 602 185 l 460 185 b 353 224 409 185 373 198 b 322 346 332 251 322 291 l 322 489 b 353 609 322 543 332 583 b 460 649 373 635 409 649 l 551 649 b 658 609 602 649 638 635 b 688 489 678 583 688 543 z m 686 968 l 686 1104 l 325 1104 l 325 968 z "},"Ŏ":{"ha":1214,"x_min":0,"x_max":0,"o":"m 1158 449 l 1158 593 b 1127 783 1158 663 1148 726 b 1033 928 1106 840 1075 888 b 875 1022 992 969 939 1000 b 653 1056 811 1044 737 1056 l 561 1056 b 339 1022 477 1056 403 1044 b 181 928 275 1000 222 969 b 87 783 139 888 108 840 b 56 593 66 726 56 663 l 56 449 b 87 259 56 379 66 316 b 181 113 108 202 139 153 b 339 19 222 73 275 42 b 561 -14 403 -3 477 -14 l 653 -14 b 875 19 737 -14 811 -3 b 1033 113 939 42 992 73 b 1127 259 1075 153 1106 202 b 1158 449 1148 316 1158 379 z m 347 438 l 347 607 b 394 781 347 689 363 747 b 553 832 425 815 478 832 l 661 832 b 820 781 736 832 789 815 b 867 607 851 747 867 689 l 867 438 b 820 263 867 355 851 297 b 661 211 789 228 736 211 l 553 211 b 394 263 478 211 425 228 b 347 438 363 297 347 355 z m 376 1361 l 376 1244 b 415 1162 376 1211 389 1184 b 508 1129 440 1140 471 1129 l 693 1129 b 784 1162 727 1129 758 1140 b 824 1244 810 1184 824 1211 l 824 1361 l 690 1361 l 690 1290 b 677 1256 690 1275 686 1264 b 643 1244 668 1248 657 1244 l 560 1244 b 526 1256 546 1244 534 1248 b 513 1290 517 1264 513 1275 l 513 1361 z "},"ŏ":{"ha":1010,"x_min":0,"x_max":0,"o":"m 958 467 b 853 744 958 582 923 675 b 554 847 784 813 684 847 l 457 847 b 157 744 327 847 227 813 b 51 467 87 675 51 582 l 51 367 b 157 90 51 251 87 159 b 457 -14 227 21 327 -14 l 554 -14 b 853 90 684 -14 784 21 b 958 367 923 159 958 251 z m 688 489 l 688 346 b 658 224 688 291 678 251 b 551 185 638 198 602 185 l 460 185 b 353 224 409 185 373 198 b 322 346 332 251 322 291 l 322 489 b 353 609 322 543 332 583 b 460 649 373 635 409 649 l 551 649 b 658 609 602 649 638 635 b 688 489 678 583 688 543 z m 274 1153 l 274 1036 b 312 953 274 1003 286 975 b 406 921 337 932 369 921 l 590 921 b 681 953 625 921 655 932 b 721 1036 708 975 721 1003 l 721 1153 l 588 1153 l 588 1082 b 574 1048 588 1067 583 1056 b 540 1036 566 1040 554 1036 l 457 1036 b 423 1048 443 1036 432 1040 b 410 1082 414 1056 410 1067 l 410 1153 z "},"Ő":{"ha":1214,"x_min":0,"x_max":0,"o":"m 1158 449 l 1158 593 b 1127 783 1158 663 1148 726 b 1033 928 1106 840 1075 888 b 875 1022 992 969 939 1000 b 653 1056 811 1044 737 1056 l 561 1056 b 339 1022 477 1056 403 1044 b 181 928 275 1000 222 969 b 87 783 139 888 108 840 b 56 593 66 726 56 663 l 56 449 b 87 259 56 379 66 316 b 181 113 108 202 139 153 b 339 19 222 73 275 42 b 561 -14 403 -3 477 -14 l 653 -14 b 875 19 737 -14 811 -3 b 1033 113 939 42 992 73 b 1127 259 1075 153 1106 202 b 1158 449 1148 316 1158 379 z m 347 438 l 347 607 b 394 781 347 689 363 747 b 553 832 425 815 478 832 l 661 832 b 820 781 736 832 789 815 b 867 607 851 747 867 689 l 867 438 b 820 263 867 355 851 297 b 661 211 789 228 736 211 l 553 211 b 394 263 478 211 425 228 b 347 438 363 297 347 355 z m 375 1142 l 583 1142 l 681 1403 l 465 1403 z m 653 1142 l 861 1142 l 958 1403 l 743 1403 z "},"ő":{"ha":1010,"x_min":0,"x_max":0,"o":"m 958 467 b 853 744 958 582 923 675 b 554 847 784 813 684 847 l 457 847 b 157 744 327 847 227 813 b 51 467 87 675 51 582 l 51 367 b 157 90 51 251 87 159 b 457 -14 227 21 327 -14 l 554 -14 b 853 90 684 -14 784 21 b 958 367 923 159 958 251 z m 688 489 l 688 346 b 658 224 688 291 678 251 b 551 185 638 198 602 185 l 460 185 b 353 224 409 185 373 198 b 322 346 332 251 322 291 l 322 489 b 353 609 322 543 332 583 b 460 649 373 635 409 649 l 551 649 b 658 609 602 649 638 635 b 688 489 678 583 688 543 z m 274 933 l 482 933 l 579 1194 l 364 1194 z m 551 933 l 760 933 l 857 1194 l 642 1194 z "},"Œ":{"ha":1706,"x_min":0,"x_max":0,"o":"m 56 597 l 56 444 b 86 260 56 377 66 316 b 178 120 106 205 137 159 b 333 31 219 82 270 52 b 550 0 395 10 468 0 l 1626 0 l 1626 229 l 1090 229 l 1090 410 l 1626 410 l 1626 632 l 1090 632 l 1090 813 l 1626 813 l 1626 1042 l 550 1042 b 333 1010 468 1042 395 1031 b 178 922 270 990 219 960 b 86 781 137 883 106 836 b 56 597 66 726 56 665 z m 575 219 b 392 271 483 219 422 237 b 347 447 362 305 347 364 l 347 596 b 392 772 347 679 362 738 b 568 822 421 805 480 822 l 813 822 l 813 219 z "},"œ":{"ha":1607,"x_min":0,"x_max":0,"o":"m 958 467 b 853 744 958 582 923 675 b 554 847 784 813 684 847 l 457 847 b 157 744 327 847 227 813 b 51 467 87 675 51 582 l 51 367 b 157 90 51 251 87 159 b 457 -14 227 21 327 -14 l 554 -14 b 853 90 684 -14 784 21 b 958 367 923 159 958 251 z m 688 489 l 688 346 b 658 224 688 291 678 251 b 551 185 638 198 602 185 l 460 185 b 353 224 409 185 373 198 b 322 346 332 251 322 291 l 322 489 b 353 609 322 543 332 583 b 460 649 373 635 409 649 l 551 649 b 658 609 602 649 638 635 b 688 489 678 583 688 543 z m 1551 339 l 1551 460 b 1533 617 1551 517 1545 569 b 1470 738 1521 664 1500 704 b 1347 817 1440 772 1399 798 b 1153 844 1295 835 1231 844 l 1097 844 b 783 745 952 844 847 811 b 688 481 719 679 688 591 l 688 375 b 710 222 688 319 695 269 b 784 103 726 176 750 136 b 919 27 818 71 863 45 b 1125 0 975 9 1044 0 l 1532 0 l 1532 201 l 1110 201 b 990 228 1053 201 1013 210 b 956 333 967 245 956 281 l 956 339 z m 1183 658 b 1274 629 1226 658 1256 649 b 1301 532 1292 610 1301 577 l 1301 514 l 956 514 l 956 532 b 982 629 956 577 964 610 b 1075 658 1000 649 1031 658 z "},"Ŕ":{"ha":1122,"x_min":0,"x_max":0,"o":"m 1090 0 l 738 426 l 771 426 b 895 445 814 426 856 433 b 998 499 934 458 969 475 b 1068 584 1027 522 1050 550 b 1094 700 1086 618 1094 656 l 1094 760 b 999 975 1094 859 1063 931 b 701 1042 935 1019 836 1042 l 90 1042 l 90 0 l 368 0 l 368 828 l 729 828 b 801 806 763 828 786 820 b 822 742 815 791 822 769 l 822 696 b 800 631 822 670 815 648 b 732 606 785 614 763 606 l 594 606 b 482 570 547 606 510 594 b 440 467 454 547 440 512 b 454 397 440 446 445 423 b 503 318 463 371 480 345 l 779 0 z m 447 1142 l 656 1142 l 753 1403 l 538 1403 z "},"ŕ":{"ha":669,"x_min":0,"x_max":0,"o":"m 81 524 l 81 0 l 344 0 l 344 521 b 369 607 344 562 353 590 b 464 632 385 624 417 632 l 649 632 l 649 833 l 404 833 b 256 807 347 833 297 825 b 156 738 215 789 181 766 b 99 639 130 709 111 676 b 81 524 87 602 81 563 z m 235 933 l 443 933 l 540 1194 l 325 1194 z "},"Ŗ":{"ha":1122,"x_min":0,"x_max":0,"o":"m 1090 0 l 738 426 l 771 426 b 895 445 814 426 856 433 b 998 499 934 458 969 475 b 1068 584 1027 522 1050 550 b 1094 700 1086 618 1094 656 l 1094 760 b 999 975 1094 859 1063 931 b 701 1042 935 1019 836 1042 l 90 1042 l 90 0 l 368 0 l 368 828 l 729 828 b 801 806 763 828 786 820 b 822 742 815 791 822 769 l 822 696 b 800 631 822 670 815 648 b 732 606 785 614 763 606 l 594 606 b 482 570 547 606 510 594 b 440 467 454 547 440 512 b 454 397 440 446 445 423 b 503 318 463 371 480 345 l 779 0 z m 407 -261 l 614 -261 b 647 -164 631 -217 643 -184 b 654 -90 652 -144 654 -119 l 654 -56 l 443 -56 l 443 -90 b 436 -164 443 -119 441 -144 b 407 -261 431 -184 422 -217 z "},"ŗ":{"ha":669,"x_min":0,"x_max":0,"o":"m 81 524 l 81 0 l 344 0 l 344 521 b 369 607 344 562 353 590 b 464 632 385 624 417 632 l 649 632 l 649 833 l 404 833 b 256 807 347 833 297 825 b 156 738 215 789 181 766 b 99 639 130 709 111 676 b 81 524 87 602 81 563 z m 193 -261 l 400 -261 b 433 -164 418 -217 429 -184 b 440 -90 438 -144 440 -119 l 440 -56 l 229 -56 l 229 -90 b 222 -164 229 -119 227 -144 b 193 -261 218 -184 208 -217 z "},"Ř":{"ha":1122,"x_min":0,"x_max":0,"o":"m 1090 0 l 738 426 l 771 426 b 895 445 814 426 856 433 b 998 499 934 458 969 475 b 1068 584 1027 522 1050 550 b 1094 700 1086 618 1094 656 l 1094 760 b 999 975 1094 859 1063 931 b 701 1042 935 1019 836 1042 l 90 1042 l 90 0 l 368 0 l 368 828 l 729 828 b 801 806 763 828 786 820 b 822 742 815 791 822 769 l 822 696 b 800 631 822 670 815 648 b 732 606 785 614 763 606 l 594 606 b 482 570 547 606 510 594 b 440 467 454 547 440 512 b 454 397 440 446 445 423 b 503 318 463 371 480 345 l 779 0 z m 671 1181 l 811 1382 l 621 1382 l 549 1268 l 475 1382 l 285 1382 l 425 1181 b 472 1135 436 1166 452 1151 b 549 1113 493 1120 518 1113 b 624 1134 579 1113 604 1120 b 671 1181 643 1148 659 1164 z "},"ř":{"ha":669,"x_min":0,"x_max":0,"o":"m 81 524 l 81 0 l 344 0 l 344 521 b 369 607 344 562 353 590 b 464 632 385 624 417 632 l 649 632 l 649 833 l 404 833 b 256 807 347 833 297 825 b 156 738 215 789 181 766 b 99 639 130 709 111 676 b 81 524 87 602 81 563 z m 457 972 l 597 1174 l 407 1174 l 335 1060 l 261 1174 l 71 1174 l 211 972 b 258 927 222 957 238 942 b 335 904 279 912 304 904 b 410 926 365 904 390 911 b 457 972 429 940 445 956 z "},"Ś":{"ha":1044,"x_min":0,"x_max":0,"o":"m 603 388 b 699 349 650 374 682 361 b 725 299 716 338 725 321 b 704 250 725 280 718 264 b 631 229 690 236 666 229 l 97 229 l 97 0 l 589 0 b 766 25 656 0 716 8 b 891 92 816 42 858 64 b 965 190 924 119 948 152 b 989 311 981 228 989 269 b 908 503 989 394 962 458 b 665 619 853 549 773 588 l 411 693 b 355 720 385 700 366 709 b 338 761 343 731 338 744 b 356 797 338 774 344 786 b 418 813 368 807 388 813 l 954 813 l 954 1042 l 419 1042 b 161 965 308 1042 222 1016 b 69 758 100 914 69 845 b 139 579 69 689 93 629 b 353 461 185 529 256 490 z m 464 1142 l 672 1142 l 769 1403 l 554 1403 z "},"ś":{"ha":885,"x_min":0,"x_max":0,"o":"m 539 292 b 588 276 559 288 576 283 b 607 246 601 270 607 260 b 594 214 607 233 603 222 b 536 201 585 206 566 201 l 83 201 l 83 0 l 492 0 b 751 70 607 0 694 23 b 836 253 808 117 836 178 b 770 413 836 319 814 373 b 551 504 726 453 653 484 l 346 544 b 303 563 325 548 311 554 b 290 592 294 571 290 581 b 304 619 290 602 295 611 b 360 632 313 628 332 632 l 794 632 l 794 833 l 381 833 b 234 814 324 833 275 827 b 133 761 193 801 159 783 b 74 683 106 739 87 713 b 56 590 62 654 56 623 b 122 424 56 521 78 465 b 313 336 166 382 229 353 z m 343 933 l 551 933 l 649 1194 l 433 1194 z "},"Ş":{"ha":1044,"x_min":0,"x_max":0,"o":"m 603 388 b 699 349 650 374 682 361 b 725 299 716 338 725 321 b 704 250 725 280 718 264 b 631 229 690 236 666 229 l 97 229 l 97 0 l 589 0 b 766 25 656 0 716 8 b 891 92 816 42 858 64 b 965 190 924 119 948 152 b 989 311 981 228 989 269 b 908 503 989 394 962 458 b 665 619 853 549 773 588 l 411 693 b 355 720 385 700 366 709 b 338 761 343 731 338 744 b 356 797 338 774 344 786 b 418 813 368 807 388 813 l 954 813 l 954 1042 l 419 1042 b 161 965 308 1042 222 1016 b 69 758 100 914 69 845 b 139 579 69 689 93 629 b 353 461 185 529 256 490 z m 629 14 l 421 14 l 319 -261 l 535 -261 z "},"ş":{"ha":885,"x_min":0,"x_max":0,"o":"m 539 292 b 588 276 559 288 576 283 b 607 246 601 270 607 260 b 594 214 607 233 603 222 b 536 201 585 206 566 201 l 83 201 l 83 0 l 492 0 b 751 70 607 0 694 23 b 836 253 808 117 836 178 b 770 413 836 319 814 373 b 551 504 726 453 653 484 l 346 544 b 303 563 325 548 311 554 b 290 592 294 571 290 581 b 304 619 290 602 295 611 b 360 632 313 628 332 632 l 794 632 l 794 833 l 381 833 b 234 814 324 833 275 827 b 133 761 193 801 159 783 b 74 683 106 739 87 713 b 56 590 62 654 56 623 b 122 424 56 521 78 465 b 313 336 166 382 229 353 z m 550 14 l 342 14 l 240 -261 l 456 -261 z "},"Š":{"ha":1044,"x_min":0,"x_max":0,"o":"m 603 388 b 699 349 650 374 682 361 b 725 299 716 338 725 321 b 704 250 725 280 718 264 b 631 229 690 236 666 229 l 97 229 l 97 0 l 589 0 b 766 25 656 0 716 8 b 891 92 816 42 858 64 b 965 190 924 119 948 152 b 989 311 981 228 989 269 b 908 503 989 394 962 458 b 665 619 853 549 773 588 l 411 693 b 355 720 385 700 366 709 b 338 761 343 731 338 744 b 356 797 338 774 344 786 b 418 813 368 807 388 813 l 954 813 l 954 1042 l 419 1042 b 161 965 308 1042 222 1016 b 69 758 100 914 69 845 b 139 579 69 689 93 629 b 353 461 185 529 256 490 z m 688 1181 l 828 1382 l 638 1382 l 565 1268 l 492 1382 l 301 1382 l 442 1181 b 489 1135 453 1166 469 1151 b 565 1113 509 1120 535 1113 b 640 1134 596 1113 621 1120 b 688 1181 660 1148 675 1164 z "},"š":{"ha":885,"x_min":0,"x_max":0,"o":"m 539 292 b 588 276 559 288 576 283 b 607 246 601 270 607 260 b 594 214 607 233 603 222 b 536 201 585 206 566 201 l 83 201 l 83 0 l 492 0 b 751 70 607 0 694 23 b 836 253 808 117 836 178 b 770 413 836 319 814 373 b 551 504 726 453 653 484 l 346 544 b 303 563 325 548 311 554 b 290 592 294 571 290 581 b 304 619 290 602 295 611 b 360 632 313 628 332 632 l 794 632 l 794 833 l 381 833 b 234 814 324 833 275 827 b 133 761 193 801 159 783 b 74 683 106 739 87 713 b 56 590 62 654 56 623 b 122 424 56 521 78 465 b 313 336 166 382 229 353 z m 565 972 l 706 1174 l 515 1174 l 443 1060 l 369 1174 l 179 1174 l 319 972 b 367 927 331 957 346 942 b 443 904 387 912 413 904 b 518 926 474 904 499 911 b 565 972 538 940 553 956 z "},"Ţ":{"ha":1139,"x_min":0,"x_max":0,"o":"m 431 0 l 708 0 l 708 813 l 1104 813 l 1104 1042 l 35 1042 l 35 813 l 431 813 z m 675 14 l 467 14 l 365 -261 l 581 -261 z "},"ţ":{"ha":753,"x_min":0,"x_max":0,"o":"m 28 632 l 149 632 l 149 294 b 223 73 149 195 173 122 b 469 0 272 24 355 0 l 690 0 l 690 201 l 500 201 b 428 222 467 201 443 208 b 406 294 413 235 406 259 l 406 632 l 690 632 l 690 833 l 406 833 l 406 1003 l 163 1003 l 163 833 l 28 833 z m 581 14 l 372 14 l 271 -261 l 486 -261 z "},"Ť":{"ha":1139,"x_min":0,"x_max":0,"o":"m 431 0 l 708 0 l 708 813 l 1104 813 l 1104 1042 l 35 1042 l 35 813 l 431 813 z m 693 1181 l 833 1382 l 643 1382 l 571 1268 l 497 1382 l 307 1382 l 447 1181 b 494 1135 458 1166 474 1151 b 571 1113 515 1120 540 1113 b 646 1134 601 1113 626 1120 b 693 1181 665 1148 681 1164 z "},"ť":{"ha":753,"x_min":0,"x_max":0,"o":"m 469 901 l 636 901 l 694 1110 l 528 1110 z m 28 632 l 149 632 l 149 294 b 223 73 149 195 173 122 b 469 0 272 24 355 0 l 690 0 l 690 201 l 500 201 b 428 222 467 201 443 208 b 406 294 413 235 406 259 l 406 632 l 690 632 l 690 833 l 406 833 l 406 1003 l 163 1003 l 163 833 l 28 833 z "},"Ŧ":{"ha":1139,"x_min":0,"x_max":0,"o":"m 431 0 l 708 0 l 708 375 l 963 375 l 963 528 l 708 528 l 708 813 l 1104 813 l 1104 1042 l 35 1042 l 35 813 l 431 813 l 431 528 l 176 528 l 176 375 l 431 375 z "},"ŧ":{"ha":753,"x_min":0,"x_max":0,"o":"m 65 486 l 65 361 l 149 361 l 149 294 b 223 73 149 195 173 122 b 469 0 272 24 355 0 l 690 0 l 690 201 l 500 201 b 428 222 467 201 443 208 b 406 294 413 235 406 259 l 406 361 l 608 361 l 608 486 l 406 486 l 406 632 l 690 632 l 690 833 l 406 833 l 406 1003 l 163 1003 l 163 833 l 28 833 l 28 632 l 149 632 l 149 486 z "},"Ũ":{"ha":1181,"x_min":0,"x_max":0,"o":"m 517 -18 l 667 -18 b 872 8 748 -18 817 -9 b 1005 85 928 26 972 52 b 1076 210 1038 119 1061 161 b 1097 376 1090 259 1097 314 l 1097 1042 l 819 1042 l 819 350 b 784 240 819 300 808 263 b 671 204 760 216 723 204 l 513 204 b 395 240 457 204 418 216 b 361 350 372 263 361 300 l 361 1042 l 83 1042 l 83 376 b 183 86 83 252 117 156 b 517 -18 250 17 361 -18 z m 681 1303 l 633 1339 b 556 1390 603 1362 577 1379 b 478 1406 535 1400 509 1406 b 369 1365 435 1406 399 1392 b 325 1250 340 1338 325 1300 l 325 1142 l 463 1142 l 463 1228 b 469 1253 463 1240 465 1248 b 486 1261 474 1259 480 1261 b 507 1254 494 1261 500 1259 b 531 1236 513 1250 521 1244 l 578 1200 b 655 1149 608 1177 634 1160 b 733 1133 676 1139 702 1133 b 843 1176 778 1133 814 1147 b 886 1292 872 1204 886 1243 l 886 1397 l 749 1397 l 749 1311 b 743 1285 749 1299 747 1291 b 726 1278 739 1280 734 1278 b 706 1284 718 1278 711 1280 z "},"ũ":{"ha":1024,"x_min":0,"x_max":0,"o":"m 679 215 l 449 215 b 366 242 408 215 380 224 b 344 333 352 260 344 291 l 344 833 l 81 833 l 81 340 b 163 92 81 236 108 153 b 426 0 217 31 305 0 l 943 0 l 943 833 l 679 833 z m 588 1094 l 540 1131 b 463 1181 510 1154 484 1171 b 385 1197 442 1192 416 1197 b 276 1157 342 1197 306 1184 b 232 1042 247 1130 232 1092 l 232 933 l 369 933 l 369 1019 b 376 1045 369 1031 372 1040 b 393 1053 381 1050 387 1053 b 414 1046 400 1053 407 1050 b 438 1028 420 1041 428 1035 l 485 992 b 562 941 515 969 541 952 b 640 925 583 930 609 925 b 750 967 685 925 721 939 b 793 1083 779 996 793 1034 l 793 1189 l 656 1189 l 656 1103 b 650 1077 656 1091 654 1082 b 633 1069 646 1072 641 1069 b 613 1076 625 1069 618 1072 z "},"Ū":{"ha":1181,"x_min":0,"x_max":0,"o":"m 517 -18 l 667 -18 b 872 8 748 -18 817 -9 b 1005 85 928 26 972 52 b 1076 210 1038 119 1061 161 b 1097 376 1090 259 1097 314 l 1097 1042 l 819 1042 l 819 350 b 784 240 819 300 808 263 b 671 204 760 216 723 204 l 513 204 b 395 240 457 204 418 216 b 361 350 372 263 361 300 l 361 1042 l 83 1042 l 83 376 b 183 86 83 252 117 156 b 517 -18 250 17 361 -18 z m 785 1176 l 785 1313 l 424 1313 l 424 1176 z "},"ū":{"ha":1024,"x_min":0,"x_max":0,"o":"m 679 215 l 449 215 b 366 242 408 215 380 224 b 344 333 352 260 344 291 l 344 833 l 81 833 l 81 340 b 163 92 81 236 108 153 b 426 0 217 31 305 0 l 943 0 l 943 833 l 679 833 z m 693 968 l 693 1104 l 332 1104 l 332 968 z "},"Ŭ":{"ha":1181,"x_min":0,"x_max":0,"o":"m 517 -18 l 667 -18 b 872 8 748 -18 817 -9 b 1005 85 928 26 972 52 b 1076 210 1038 119 1061 161 b 1097 376 1090 259 1097 314 l 1097 1042 l 819 1042 l 819 350 b 784 240 819 300 808 263 b 671 204 760 216 723 204 l 513 204 b 395 240 457 204 418 216 b 361 350 372 263 361 300 l 361 1042 l 83 1042 l 83 376 b 183 86 83 252 117 156 b 517 -18 250 17 361 -18 z m 374 1361 l 374 1244 b 412 1162 374 1211 386 1184 b 506 1129 437 1140 469 1129 l 690 1129 b 781 1162 725 1129 755 1140 b 821 1244 808 1184 821 1211 l 821 1361 l 688 1361 l 688 1290 b 674 1256 688 1275 683 1264 b 640 1244 666 1248 654 1244 l 557 1244 b 523 1256 543 1244 532 1248 b 510 1290 514 1264 510 1275 l 510 1361 z "},"ŭ":{"ha":1024,"x_min":0,"x_max":0,"o":"m 679 215 l 449 215 b 366 242 408 215 380 224 b 344 333 352 260 344 291 l 344 833 l 81 833 l 81 340 b 163 92 81 236 108 153 b 426 0 217 31 305 0 l 943 0 l 943 833 l 679 833 z m 281 1153 l 281 1036 b 319 953 281 1003 293 975 b 413 921 344 932 375 921 l 597 921 b 688 953 631 921 662 932 b 728 1036 715 975 728 1003 l 728 1153 l 594 1153 l 594 1082 b 581 1048 594 1067 590 1056 b 547 1036 572 1040 561 1036 l 464 1036 b 430 1048 450 1036 439 1040 b 417 1082 421 1056 417 1067 l 417 1153 z "},"Ů":{"ha":1181,"x_min":0,"x_max":0,"o":"m 517 -18 l 667 -18 b 872 8 748 -18 817 -9 b 1005 85 928 26 972 52 b 1076 210 1038 119 1061 161 b 1097 376 1090 259 1097 314 l 1097 1042 l 819 1042 l 819 350 b 784 240 819 300 808 263 b 671 204 760 216 723 204 l 513 204 b 395 240 457 204 418 216 b 361 350 372 263 361 300 l 361 1042 l 83 1042 l 83 376 b 183 86 83 252 117 156 b 517 -18 250 17 361 -18 z m 456 1256 b 491 1168 456 1219 467 1190 b 578 1135 515 1146 544 1135 l 632 1135 b 719 1168 666 1135 695 1146 b 754 1256 742 1190 754 1219 l 754 1289 b 719 1376 754 1325 742 1354 b 632 1410 695 1399 666 1410 l 578 1410 b 491 1376 544 1410 515 1399 b 456 1289 467 1354 456 1325 z m 549 1286 b 559 1319 549 1301 552 1312 b 588 1329 566 1326 575 1329 l 622 1329 b 651 1319 634 1329 644 1326 b 663 1286 659 1312 663 1301 l 663 1258 b 651 1226 663 1244 659 1233 b 622 1215 644 1219 634 1215 l 588 1215 b 559 1226 575 1215 566 1219 b 549 1258 552 1233 549 1244 z "},"ů":{"ha":1024,"x_min":0,"x_max":0,"o":"m 679 215 l 449 215 b 366 242 408 215 380 224 b 344 333 352 260 344 291 l 344 833 l 81 833 l 81 340 b 163 92 81 236 108 153 b 426 0 217 31 305 0 l 943 0 l 943 833 l 679 833 z m 363 1047 b 398 960 363 1011 374 982 b 485 926 422 938 450 926 l 539 926 b 626 960 573 926 602 938 b 661 1047 649 982 661 1011 l 661 1081 b 626 1168 661 1117 649 1146 b 539 1201 602 1190 573 1201 l 485 1201 b 398 1168 450 1201 422 1190 b 363 1081 374 1146 363 1117 z m 456 1078 b 466 1110 456 1093 459 1103 b 494 1121 473 1117 482 1121 l 529 1121 b 558 1110 541 1121 551 1117 b 569 1078 566 1103 569 1093 l 569 1050 b 558 1017 569 1035 566 1024 b 529 1007 551 1010 541 1007 l 494 1007 b 466 1017 482 1007 473 1010 b 456 1050 459 1024 456 1035 z "},"Ű":{"ha":1181,"x_min":0,"x_max":0,"o":"m 517 -18 l 667 -18 b 872 8 748 -18 817 -9 b 1005 85 928 26 972 52 b 1076 210 1038 119 1061 161 b 1097 376 1090 259 1097 314 l 1097 1042 l 819 1042 l 819 350 b 784 240 819 300 808 263 b 671 204 760 216 723 204 l 513 204 b 395 240 457 204 418 216 b 361 350 372 263 361 300 l 361 1042 l 83 1042 l 83 376 b 183 86 83 252 117 156 b 517 -18 250 17 361 -18 z m 372 1142 l 581 1142 l 678 1403 l 463 1403 z m 650 1142 l 858 1142 l 956 1403 l 740 1403 z "},"ű":{"ha":1024,"x_min":0,"x_max":0,"o":"m 679 215 l 449 215 b 366 242 408 215 380 224 b 344 333 352 260 344 291 l 344 833 l 81 833 l 81 340 b 163 92 81 236 108 153 b 426 0 217 31 305 0 l 943 0 l 943 833 l 679 833 z m 281 933 l 489 933 l 586 1194 l 371 1194 z m 558 933 l 767 933 l 864 1194 l 649 1194 z "},"Ų":{"ha":1181,"x_min":0,"x_max":0,"o":"m 517 -18 l 667 -18 b 872 8 748 -18 817 -9 b 1005 85 928 26 972 52 b 1076 210 1038 119 1061 161 b 1097 376 1090 259 1097 314 l 1097 1042 l 819 1042 l 819 350 b 784 240 819 300 808 263 b 671 204 760 216 723 204 l 513 204 b 395 240 457 204 418 216 b 361 350 372 263 361 300 l 361 1042 l 83 1042 l 83 376 b 183 86 83 252 117 156 b 517 -18 250 17 361 -18 z m 546 0 l 500 -46 b 452 -108 477 -69 461 -90 b 439 -162 443 -127 439 -145 b 473 -235 439 -191 450 -215 b 583 -264 496 -254 532 -264 l 701 -264 l 701 -157 l 653 -157 b 624 -149 640 -157 630 -154 b 614 -129 617 -144 614 -137 b 621 -106 614 -121 616 -113 b 640 -81 625 -99 632 -91 l 701 0 z "},"ų":{"ha":1024,"x_min":0,"x_max":0,"o":"m 679 215 l 449 215 b 366 242 408 215 380 224 b 344 333 352 260 344 291 l 344 833 l 81 833 l 81 340 b 163 92 81 236 108 153 b 426 0 217 31 305 0 l 943 0 l 943 833 l 679 833 z m 788 0 l 742 -46 b 694 -108 719 -69 703 -90 b 681 -162 685 -127 681 -145 b 715 -235 681 -191 692 -215 b 825 -264 737 -254 774 -264 l 943 -264 l 943 -157 l 894 -157 b 865 -149 881 -157 872 -154 b 856 -129 859 -144 856 -137 b 863 -106 856 -121 858 -113 b 882 -81 867 -99 874 -91 l 943 0 z "},"Ŵ":{"ha":1681,"x_min":0,"x_max":0,"o":"m 299 1042 l 21 1042 l 160 254 b 248 62 174 176 203 112 b 449 -14 293 11 360 -14 b 641 56 533 -14 597 9 b 728 246 685 102 714 165 l 821 796 b 828 815 822 804 824 811 b 844 822 831 820 837 822 b 861 815 852 822 857 820 b 868 796 865 811 867 804 l 958 249 b 1051 57 971 168 1002 104 b 1258 -14 1100 10 1169 -14 b 1442 50 1338 -14 1399 7 b 1529 236 1485 93 1514 155 l 1674 1042 l 1396 1042 l 1279 250 b 1272 225 1278 240 1276 231 b 1247 215 1267 219 1259 215 b 1229 224 1240 215 1234 218 b 1219 247 1225 229 1221 237 l 1131 774 b 1048 979 1116 858 1088 926 b 854 1058 1008 1032 943 1058 b 653 980 766 1058 699 1032 b 563 772 608 928 577 858 l 474 246 b 466 224 473 238 470 230 b 447 215 462 218 456 215 b 426 225 438 215 431 219 b 418 249 422 231 419 239 z m 919 1142 l 1110 1142 l 969 1343 b 922 1390 957 1360 942 1375 b 847 1411 903 1404 878 1411 b 771 1388 817 1411 791 1403 b 724 1343 750 1373 735 1358 l 583 1142 l 774 1142 l 847 1256 z "},"ŵ":{"ha":1486,"x_min":0,"x_max":0,"o":"m 744 851 b 640 832 705 851 670 845 b 564 781 609 819 584 802 b 515 708 544 759 527 735 b 492 625 503 681 495 654 l 436 224 b 428 199 435 213 433 205 b 410 190 424 193 418 190 b 392 199 402 190 397 193 b 383 225 388 204 385 213 l 286 833 l 21 833 l 144 199 b 235 39 158 127 188 74 b 410 -14 281 4 339 -14 b 588 50 483 -14 542 7 b 669 218 633 93 660 149 l 719 600 b 725 621 720 609 722 616 b 742 628 728 625 733 628 b 759 621 750 628 756 625 b 765 601 762 616 764 610 l 825 219 b 913 50 836 149 866 93 b 1110 -14 961 7 1026 -14 b 1276 42 1175 -14 1230 5 b 1361 196 1322 79 1350 130 l 1465 833 l 1217 833 l 1125 224 b 1118 200 1124 214 1122 206 b 1100 190 1114 194 1108 190 b 1081 200 1092 190 1085 194 b 1072 224 1076 206 1073 214 l 1011 622 b 987 708 1006 652 998 681 b 938 781 975 736 959 760 b 858 832 916 802 890 819 b 744 851 827 845 789 851 z m 810 933 l 1000 933 l 860 1135 b 813 1181 848 1151 832 1167 b 738 1203 793 1196 768 1203 b 661 1180 707 1203 681 1195 b 614 1135 641 1165 625 1150 l 474 933 l 664 933 l 738 1047 z "},"Ŷ":{"ha":1111,"x_min":0,"x_max":0,"o":"m 417 0 l 694 0 l 694 363 l 1097 1042 l 807 1042 l 590 681 b 558 659 582 666 571 659 b 526 681 544 659 534 667 l 325 1042 l 14 1042 l 417 363 z m 628 1142 l 818 1142 l 678 1343 b 631 1390 666 1360 650 1375 b 556 1411 611 1404 586 1411 b 479 1388 525 1411 500 1403 b 432 1343 459 1373 443 1358 l 292 1142 l 482 1142 l 556 1256 z "},"ŷ":{"ha":1000,"x_min":0,"x_max":0,"o":"m 488 335 l 304 833 l 14 833 l 256 240 b 313 164 269 206 289 181 b 407 139 338 147 369 139 l 474 139 l 464 111 b 420 35 452 76 437 51 b 344 13 403 20 378 13 l 93 13 l 93 -208 l 321 -208 b 560 -142 421 -208 501 -186 b 688 25 620 -98 663 -43 l 986 833 l 706 833 l 543 335 b 531 315 539 325 535 318 b 517 310 527 311 522 310 b 501 315 512 310 507 311 b 488 335 496 318 491 325 z m 572 933 l 763 933 l 622 1135 b 575 1181 610 1151 594 1167 b 500 1203 556 1196 531 1203 b 424 1180 469 1203 444 1195 b 376 1135 403 1165 388 1150 l 236 933 l 426 933 l 500 1047 z "},"Ÿ":{"ha":1111,"x_min":0,"x_max":0,"o":"m 417 0 l 694 0 l 694 363 l 1097 1042 l 807 1042 l 590 681 b 558 659 582 666 571 659 b 526 681 544 659 534 667 l 325 1042 l 14 1042 l 417 363 z m 790 1169 l 790 1347 l 604 1347 l 604 1169 z m 506 1169 l 506 1347 l 319 1347 l 319 1169 z "},"Ź":{"ha":999,"x_min":0,"x_max":0,"o":"m 942 0 l 942 229 l 353 229 b 318 237 338 229 326 232 b 306 263 310 242 306 250 b 314 288 306 274 308 282 b 339 306 319 293 328 299 l 761 546 b 915 679 833 588 885 632 b 961 822 946 726 961 774 b 886 988 961 897 936 953 b 632 1042 836 1024 751 1042 l 60 1042 l 60 813 l 633 813 b 666 804 648 813 659 810 b 676 782 673 799 676 791 b 671 763 676 775 675 768 b 651 747 667 757 661 752 l 246 522 b 78 389 171 480 115 435 b 24 229 42 343 24 289 b 42 142 24 199 30 169 b 97 69 54 114 72 90 b 191 19 121 48 153 31 b 328 0 229 6 275 0 z m 414 1142 l 622 1142 l 719 1403 l 504 1403 z "},"ź":{"ha":929,"x_min":0,"x_max":0,"o":"m 868 0 l 868 201 l 357 201 b 327 210 344 201 334 204 b 317 233 320 215 317 223 b 326 256 317 243 320 250 b 354 269 333 261 342 266 l 658 361 b 817 449 725 381 778 411 b 876 611 857 488 876 542 b 808 772 876 678 853 731 b 574 833 762 813 684 833 l 88 833 l 88 632 l 579 632 b 610 624 593 632 603 629 b 619 603 616 619 619 612 b 610 582 619 594 616 588 b 583 568 604 576 595 572 l 290 476 b 125 386 224 456 169 426 b 60 228 81 346 60 294 b 131 65 60 163 84 109 b 351 0 179 22 252 0 z m 372 933 l 581 933 l 678 1194 l 463 1194 z "},"Ż":{"ha":999,"x_min":0,"x_max":0,"o":"m 942 0 l 942 229 l 353 229 b 318 237 338 229 326 232 b 306 263 310 242 306 250 b 314 288 306 274 308 282 b 339 306 319 293 328 299 l 761 546 b 915 679 833 588 885 632 b 961 822 946 726 961 774 b 886 988 961 897 936 953 b 632 1042 836 1024 751 1042 l 60 1042 l 60 813 l 633 813 b 666 804 648 813 659 810 b 676 782 673 799 676 791 b 671 763 676 775 675 768 b 651 747 667 757 661 752 l 246 522 b 78 389 171 480 115 435 b 24 229 42 343 24 289 b 42 142 24 199 30 169 b 97 69 54 114 72 90 b 191 19 121 48 153 31 b 328 0 229 6 275 0 z m 610 1128 l 610 1306 l 417 1306 l 417 1128 z "},"ż":{"ha":929,"x_min":0,"x_max":0,"o":"m 868 0 l 868 201 l 357 201 b 327 210 344 201 334 204 b 317 233 320 215 317 223 b 326 256 317 243 320 250 b 354 269 333 261 342 266 l 658 361 b 817 449 725 381 778 411 b 876 611 857 488 876 542 b 808 772 876 678 853 731 b 574 833 762 813 684 833 l 88 833 l 88 632 l 579 632 b 610 624 593 632 603 629 b 619 603 616 619 619 612 b 610 582 619 594 616 588 b 583 568 604 576 595 572 l 290 476 b 125 386 224 456 169 426 b 60 228 81 346 60 294 b 131 65 60 163 84 109 b 351 0 179 22 252 0 z m 568 919 l 568 1097 l 375 1097 l 375 919 z "},"Ž":{"ha":999,"x_min":0,"x_max":0,"o":"m 942 0 l 942 229 l 353 229 b 318 237 338 229 326 232 b 306 263 310 242 306 250 b 314 288 306 274 308 282 b 339 306 319 293 328 299 l 761 546 b 915 679 833 588 885 632 b 961 822 946 726 961 774 b 886 988 961 897 936 953 b 632 1042 836 1024 751 1042 l 60 1042 l 60 813 l 633 813 b 666 804 648 813 659 810 b 676 782 673 799 676 791 b 671 763 676 775 675 768 b 651 747 667 757 661 752 l 246 522 b 78 389 171 480 115 435 b 24 229 42 343 24 289 b 42 142 24 199 30 169 b 97 69 54 114 72 90 b 191 19 121 48 153 31 b 328 0 229 6 275 0 z m 638 1181 l 778 1382 l 588 1382 l 515 1268 l 442 1382 l 251 1382 l 392 1181 b 439 1135 403 1166 419 1151 b 515 1113 459 1120 485 1113 b 590 1134 546 1113 571 1120 b 638 1181 610 1148 625 1164 z "},"ž":{"ha":901,"x_min":0,"x_max":0,"o":"m 868 0 l 868 201 l 357 201 b 327 210 344 201 334 204 b 317 233 320 215 317 223 b 326 256 317 243 320 250 b 354 269 333 261 342 266 l 658 361 b 817 449 725 381 778 411 b 876 611 857 488 876 542 b 808 772 876 678 853 731 b 574 833 762 813 684 833 l 88 833 l 88 632 l 579 632 b 610 624 593 632 603 629 b 619 603 616 619 619 612 b 610 582 619 594 616 588 b 583 568 604 576 595 572 l 290 476 b 125 386 224 456 169 426 b 60 228 81 346 60 294 b 131 65 60 163 84 109 b 351 0 179 22 252 0 z m 581 972 l 721 1174 l 531 1174 l 458 1060 l 385 1174 l 194 1174 l 335 972 b 382 927 346 957 362 942 b 458 904 402 912 428 904 b 533 926 489 904 514 911 b 581 972 553 940 569 956 z "},"Ə":{"ha":1128,"x_min":0,"x_max":0,"o":"m 56 631 l 56 426 b 74 253 56 363 62 306 b 137 118 86 200 107 155 b 260 31 167 81 208 52 b 454 0 312 10 376 0 l 663 0 b 850 31 736 0 798 10 b 977 119 902 52 944 81 b 1049 255 1010 156 1034 202 b 1072 433 1065 308 1072 368 l 1072 667 b 1049 819 1072 722 1065 773 b 976 938 1034 866 1009 905 b 841 1015 942 971 897 997 b 635 1042 785 1033 716 1042 l 75 1042 l 75 819 l 636 819 b 756 793 693 819 732 811 b 790 688 779 775 790 740 l 790 631 z m 451 221 b 360 250 409 221 378 231 b 333 347 342 269 333 302 l 333 421 l 790 421 l 790 347 b 764 250 790 302 781 269 b 671 221 746 231 715 221 z "},"Ș":{"ha":1044,"x_min":0,"x_max":0,"o":"m 603 388 b 699 349 650 374 682 361 b 725 299 716 338 725 321 b 704 250 725 280 718 264 b 631 229 690 236 666 229 l 97 229 l 97 0 l 589 0 b 766 25 656 0 716 8 b 891 92 816 42 858 64 b 965 190 924 119 948 152 b 989 311 981 228 989 269 b 908 503 989 394 962 458 b 665 619 853 549 773 588 l 411 693 b 355 720 385 700 366 709 b 338 761 343 731 338 744 b 356 797 338 774 344 786 b 418 813 368 807 388 813 l 954 813 l 954 1042 l 419 1042 b 161 965 308 1042 222 1016 b 69 758 100 914 69 845 b 139 579 69 689 93 629 b 353 461 185 529 256 490 z m 382 -261 l 589 -261 b 622 -164 606 -217 618 -184 b 629 -90 627 -144 629 -119 l 629 -56 l 418 -56 l 418 -90 b 411 -164 418 -119 416 -144 b 382 -261 406 -184 397 -217 z "},"ș":{"ha":885,"x_min":0,"x_max":0,"o":"m 539 292 b 588 276 559 288 576 283 b 607 246 601 270 607 260 b 594 214 607 233 603 222 b 536 201 585 206 566 201 l 83 201 l 83 0 l 492 0 b 751 70 607 0 694 23 b 836 253 808 117 836 178 b 770 413 836 319 814 373 b 551 504 726 453 653 484 l 346 544 b 303 563 325 548 311 554 b 290 592 294 571 290 581 b 304 619 290 602 295 611 b 360 632 313 628 332 632 l 794 632 l 794 833 l 381 833 b 234 814 324 833 275 827 b 133 761 193 801 159 783 b 74 683 106 739 87 713 b 56 590 62 654 56 623 b 122 424 56 521 78 465 b 313 336 166 382 229 353 z m 303 -261 l 510 -261 b 543 -164 527 -217 538 -184 b 550 -90 548 -144 550 -119 l 550 -56 l 339 -56 l 339 -90 b 332 -164 339 -119 337 -144 b 303 -261 327 -184 318 -217 z "},"Ț":{"ha":1139,"x_min":0,"x_max":0,"o":"m 431 0 l 708 0 l 708 813 l 1104 813 l 1104 1042 l 35 1042 l 35 813 l 431 813 z m 429 -261 l 636 -261 b 669 -164 654 -217 665 -184 b 676 -90 674 -144 676 -119 l 676 -56 l 465 -56 l 465 -90 b 458 -164 465 -119 463 -144 b 429 -261 454 -184 444 -217 z "},"ț":{"ha":753,"x_min":0,"x_max":0,"o":"m 28 632 l 149 632 l 149 294 b 223 73 149 195 173 122 b 469 0 272 24 355 0 l 690 0 l 690 201 l 500 201 b 428 222 467 201 443 208 b 406 294 413 235 406 259 l 406 632 l 690 632 l 690 833 l 406 833 l 406 1003 l 163 1003 l 163 833 l 28 833 z m 333 -261 l 540 -261 b 574 -164 558 -217 569 -184 b 581 -90 578 -144 581 -119 l 581 -56 l 369 -56 l 369 -90 b 363 -164 369 -119 367 -144 b 333 -261 358 -184 348 -217 z "},"ə":{"ha":971,"x_min":0,"x_max":0,"o":"m 56 494 l 56 374 b 74 217 56 316 62 264 b 137 95 86 169 107 129 b 260 17 167 61 208 35 b 454 -11 312 -2 376 -11 l 510 -11 b 824 88 655 -11 760 22 b 919 353 888 154 919 243 l 919 458 b 897 611 919 514 912 565 b 823 730 881 657 857 697 b 688 806 789 763 744 788 b 482 833 632 824 563 833 l 75 833 l 75 632 l 497 632 b 617 606 554 632 594 623 b 651 500 640 588 651 553 l 651 494 z m 424 175 b 333 204 381 175 351 185 b 306 301 315 224 306 256 l 306 319 l 651 319 l 651 301 b 625 204 651 256 643 224 b 532 175 607 185 576 175 z "},"ˆ":{"ha":982,"x_min":0,"x_max":0,"o":"m 564 933 l 754 933 l 614 1135 b 567 1181 602 1151 586 1167 b 492 1203 547 1196 522 1203 b 415 1180 461 1203 436 1195 b 368 1135 395 1165 379 1150 l 228 933 l 418 933 l 492 1047 z "},"ˇ":{"ha":982,"x_min":0,"x_max":0,"o":"m 614 972 l 754 1174 l 564 1174 l 492 1060 l 418 1174 l 228 1174 l 368 972 b 415 927 379 957 395 942 b 492 904 436 912 461 904 b 567 926 522 904 547 911 b 614 972 586 940 602 956 z "},"˘":{"ha":1010,"x_min":0,"x_max":0,"o":"m 274 1153 l 274 1036 b 312 953 274 1003 286 975 b 406 921 337 932 369 921 l 590 921 b 681 953 625 921 655 932 b 721 1036 708 975 721 1003 l 721 1153 l 588 1153 l 588 1082 b 574 1048 588 1067 583 1056 b 540 1036 566 1040 554 1036 l 457 1036 b 423 1048 443 1036 432 1040 b 410 1082 414 1056 410 1067 l 410 1153 z "},"˙":{"ha":708,"x_min":0,"x_max":0,"o":"m 450 919 l 450 1097 l 257 1097 l 257 919 z "},"˚":{"ha":1010,"x_min":0,"x_max":0,"o":"m 356 1047 b 391 960 356 1011 367 982 b 478 926 415 938 444 926 l 532 926 b 619 960 566 926 595 938 b 654 1047 642 982 654 1011 l 654 1081 b 619 1168 654 1117 642 1146 b 532 1201 595 1190 566 1201 l 478 1201 b 391 1168 444 1201 415 1190 b 356 1081 367 1146 356 1117 z m 449 1078 b 459 1110 449 1093 452 1103 b 488 1121 466 1117 475 1121 l 522 1121 b 551 1110 534 1121 544 1117 b 563 1078 559 1103 563 1093 l 563 1050 b 551 1017 563 1035 559 1024 b 522 1007 544 1010 534 1007 l 488 1007 b 459 1017 475 1007 466 1010 b 449 1050 452 1024 449 1035 z "},"˛":{"ha":453,"x_min":0,"x_max":0,"o":"m 165 0 l 119 -46 b 72 -108 96 -69 80 -90 b 58 -162 63 -127 58 -145 b 92 -235 58 -191 70 -215 b 203 -264 115 -254 152 -264 l 321 -264 l 321 -157 l 272 -157 b 243 -149 259 -157 250 -154 b 233 -129 237 -144 233 -137 b 240 -106 233 -121 236 -113 b 260 -81 245 -99 251 -91 l 321 0 z "},"˜":{"ha":1194,"x_min":0,"x_max":0,"o":"m 674 1094 l 626 1131 b 549 1181 596 1154 570 1171 b 471 1197 528 1192 502 1197 b 363 1157 428 1197 392 1184 b 318 1042 333 1130 318 1092 l 318 933 l 456 933 l 456 1019 b 463 1045 456 1031 458 1040 b 479 1053 467 1050 473 1053 b 500 1046 487 1053 494 1050 b 524 1028 506 1041 514 1035 l 571 992 b 648 941 601 969 627 952 b 726 925 669 930 695 925 b 836 967 771 925 807 939 b 879 1083 865 996 879 1034 l 879 1189 l 742 1189 l 742 1103 b 736 1077 742 1091 740 1082 b 719 1069 732 1072 727 1069 b 699 1076 711 1069 704 1072 z "},"˝":{"ha":708,"x_min":0,"x_max":0,"o":"m 122 933 l 331 933 l 428 1194 l 213 1194 z m 400 933 l 608 933 l 706 1194 l 490 1194 z "}," ":{"ha":167,"x_min":0,"x_max":0,"o":""},"–":{"ha":717,"x_min":0,"x_max":0,"o":"m 83 294 l 633 294 l 633 535 l 83 535 z "},"—":{"ha":1064,"x_min":0,"x_max":0,"o":"m 83 294 l 981 294 l 981 535 l 83 535 z "},"‘":{"ha":425,"x_min":0,"x_max":0,"o":"m 375 1042 l 181 1042 b 106 906 147 996 122 951 b 81 751 89 861 81 810 l 81 654 l 317 654 l 317 767 b 328 905 317 816 321 862 b 375 1042 336 948 352 994 z "},"’":{"ha":425,"x_min":0,"x_max":0,"o":"m 50 654 l 244 654 b 319 790 278 700 303 745 b 344 944 336 834 344 886 l 344 1042 l 108 1042 l 108 929 b 97 791 108 880 104 834 b 50 654 89 748 73 702 z "},"‚":{"ha":425,"x_min":0,"x_max":0,"o":"m 50 -193 l 244 -193 b 319 -58 278 -148 303 -103 b 344 97 336 -13 344 39 l 344 194 l 108 194 l 108 82 b 97 -56 108 33 104 -13 b 50 -193 89 -99 73 -145 z "},"“":{"ha":731,"x_min":0,"x_max":0,"o":"m 375 1042 l 181 1042 b 106 906 147 996 122 951 b 81 751 89 861 81 810 l 81 654 l 317 654 l 317 767 b 328 905 317 816 321 862 b 375 1042 336 948 352 994 z m 681 1042 l 486 1042 b 411 906 453 996 428 951 b 386 751 394 861 386 810 l 386 654 l 622 654 l 622 767 b 634 905 622 816 626 862 b 681 1042 642 948 657 994 z "},"”":{"ha":731,"x_min":0,"x_max":0,"o":"m 356 654 l 550 654 b 625 790 583 700 608 745 b 650 944 642 834 650 886 l 650 1042 l 414 1042 l 414 929 b 402 791 414 880 410 834 b 356 654 394 748 379 702 z m 50 654 l 244 654 b 319 790 278 700 303 745 b 344 944 336 834 344 886 l 344 1042 l 108 1042 l 108 929 b 97 791 108 880 104 834 b 50 654 89 748 73 702 z "},"„":{"ha":731,"x_min":0,"x_max":0,"o":"m 356 -193 l 550 -193 b 625 -58 583 -148 608 -103 b 650 97 642 -13 650 39 l 650 194 l 414 194 l 414 82 b 402 -56 414 33 410 -13 b 356 -193 394 -99 379 -145 z m 50 -193 l 244 -193 b 319 -58 278 -148 303 -103 b 344 97 336 -13 344 39 l 344 194 l 108 194 l 108 82 b 97 -56 108 33 104 -13 b 50 -193 89 -99 73 -145 z "},"†":{"ha":847,"x_min":0,"x_max":0,"o":"m 42 590 l 292 590 l 292 0 l 556 0 l 556 590 l 806 590 l 806 806 l 556 806 l 556 1042 l 292 1042 l 292 806 l 42 806 z "},"‡":{"ha":847,"x_min":0,"x_max":0,"o":"m 42 236 l 292 236 l 292 0 l 556 0 l 556 236 l 806 236 l 806 451 l 556 451 l 556 590 l 806 590 l 806 806 l 556 806 l 556 1042 l 292 1042 l 292 806 l 42 806 l 42 590 l 292 590 l 292 451 l 42 451 z "},"•":{"ha":786,"x_min":0,"x_max":0,"o":"m 181 378 b 227 253 181 329 196 287 b 349 201 258 219 299 201 l 438 201 b 559 253 488 201 528 219 b 606 378 590 287 606 329 l 606 456 b 559 580 606 505 590 546 b 438 631 528 614 488 631 l 349 631 b 227 580 299 631 258 614 b 181 456 196 546 181 505 z "},"…":{"ha":1319,"x_min":0,"x_max":0,"o":"m 944 0 l 1236 0 l 1236 292 l 944 292 z m 83 0 l 375 0 l 375 292 l 83 292 z m 514 0 l 806 0 l 806 292 l 514 292 z "},"‰":{"ha":1786,"x_min":0,"x_max":0,"o":"m 56 765 b 120 610 56 701 77 650 b 278 551 163 571 216 551 l 375 551 b 527 610 433 551 484 571 b 592 765 570 650 592 701 l 592 844 b 527 998 592 908 570 959 b 375 1056 484 1036 433 1056 l 278 1056 b 120 998 216 1056 163 1036 b 56 844 77 959 56 908 z m 878 582 l 1094 1042 l 872 1042 l 657 582 z m 238 818 b 253 878 238 843 243 863 b 303 900 263 893 280 900 l 343 900 b 395 878 368 900 385 893 b 410 818 405 863 410 843 l 410 783 b 395 728 410 760 405 742 b 343 707 385 714 368 707 l 303 707 b 253 728 280 707 263 714 b 238 783 243 742 238 760 z m 1194 203 b 1259 48 1194 139 1216 87 b 1417 -11 1302 9 1355 -11 l 1514 -11 b 1666 48 1572 -11 1623 9 b 1731 203 1709 87 1731 139 l 1731 282 b 1666 435 1731 346 1709 397 b 1514 493 1623 474 1572 493 l 1417 493 b 1259 435 1355 493 1302 474 b 1194 282 1216 397 1194 346 z m 583 200 b 648 45 583 136 605 84 b 806 -14 691 6 744 -14 l 903 -14 b 1055 45 961 -14 1012 6 b 1119 200 1098 84 1119 136 l 1119 279 b 1055 433 1119 343 1098 394 b 903 490 1012 471 961 490 l 806 490 b 648 433 744 490 691 471 b 583 279 605 394 583 343 z m 297 460 l 81 0 l 303 0 l 518 460 z m 1376 256 b 1392 315 1376 281 1381 300 b 1442 338 1402 330 1419 338 l 1482 338 b 1534 315 1507 338 1524 330 b 1549 256 1544 300 1549 281 l 1549 221 b 1534 165 1549 198 1544 179 b 1482 144 1524 151 1507 144 l 1442 144 b 1392 165 1419 144 1402 151 b 1376 221 1381 179 1376 198 z m 765 253 b 781 313 765 278 770 298 b 831 335 791 327 807 335 l 871 335 b 923 313 896 335 913 327 b 938 253 933 298 938 278 l 938 218 b 923 163 938 195 933 176 b 871 142 913 149 896 142 l 831 142 b 781 163 807 142 791 149 b 765 218 770 176 765 195 z "},"‹":{"ha":640,"x_min":0,"x_max":0,"o":"m 543 400 l 313 522 l 543 643 l 543 883 l 164 654 b 105 605 144 642 124 626 b 76 528 86 584 76 558 l 76 515 b 105 438 76 485 86 459 b 164 389 124 417 144 401 l 543 160 z "},"›":{"ha":640,"x_min":0,"x_max":0,"o":"m 476 389 b 535 438 497 401 516 417 b 564 515 554 459 564 485 l 564 528 b 535 605 564 558 554 584 b 476 654 516 626 497 642 l 97 883 l 97 643 l 328 522 l 97 400 l 97 160 z "},"€":{"ha":1107,"x_min":0,"x_max":0,"o":"m 28 313 l 176 313 b 335 84 200 216 253 140 b 663 0 417 28 526 0 l 1065 0 l 1065 215 l 683 215 b 542 238 622 215 575 223 b 471 313 508 253 485 278 l 913 313 l 913 479 l 453 479 l 453 563 l 913 563 l 913 729 l 471 729 b 540 803 484 763 507 788 b 676 826 572 819 618 826 l 1058 826 l 1058 1042 l 663 1042 b 335 958 526 1042 417 1014 b 176 729 253 902 200 825 l 28 729 l 28 563 l 161 563 l 161 479 l 28 479 z "},"₼":{"ha":1386,"x_min":0,"x_max":0,"o":"m 846 583 b 951 556 895 583 930 574 b 983 454 973 537 983 503 l 983 0 l 1261 0 l 1261 396 b 1156 715 1261 534 1226 640 b 825 833 1086 789 976 829 l 825 1042 l 561 1042 l 561 833 b 230 715 410 829 300 789 b 125 396 160 640 125 534 l 125 0 l 403 0 l 403 454 b 435 556 403 503 413 537 b 540 583 456 574 491 583 l 561 583 l 561 139 l 825 139 l 825 583 z "},"₽":{"ha":1219,"x_min":0,"x_max":0,"o":"m 10 306 l 10 139 l 229 139 l 229 0 l 507 0 l 507 139 l 886 139 l 886 306 l 507 306 l 507 382 l 750 382 b 1067 446 893 382 998 403 b 1171 679 1136 488 1171 566 l 1171 747 b 1068 974 1171 853 1137 928 b 750 1042 1000 1019 894 1042 l 229 1042 l 229 586 l 10 586 l 10 382 l 229 382 l 229 306 z m 507 838 l 758 838 b 863 810 808 838 843 828 b 893 735 883 792 893 767 l 893 688 b 863 613 893 656 883 631 b 758 586 843 595 808 586 l 507 586 z "},"№":{"ha":2074,"x_min":0,"x_max":0,"o":"m 90 0 l 368 0 l 368 793 b 373 815 368 802 370 809 b 392 822 376 820 382 822 b 408 813 399 822 404 819 b 417 794 411 807 414 801 l 643 242 b 767 51 676 161 718 98 b 975 -18 817 5 886 -18 b 1083 0 1012 -18 1048 -12 b 1173 55 1117 12 1147 30 b 1235 147 1198 79 1219 110 b 1258 276 1250 184 1258 227 l 1258 1042 l 981 1042 l 981 247 b 976 226 981 238 979 231 b 957 218 972 221 966 218 b 941 227 950 218 944 221 b 932 246 938 233 935 239 l 706 799 b 583 987 674 876 633 939 b 374 1058 532 1034 463 1058 b 266 1039 337 1058 301 1052 b 176 983 231 1026 201 1007 b 114 890 150 958 130 927 b 90 764 98 853 90 811 z m 2074 719 b 1988 963 2074 824 2045 905 b 1735 1050 1930 1021 1846 1050 l 1704 1050 b 1448 963 1588 1050 1503 1021 b 1365 719 1393 905 1365 824 l 1365 685 b 1448 442 1365 580 1393 499 b 1704 356 1503 384 1588 356 l 1735 356 b 1988 442 1846 356 1930 384 b 2074 685 2045 499 2074 580 z m 1863 738 l 1863 669 b 1838 578 1863 629 1854 598 b 1753 549 1821 559 1793 549 l 1688 549 b 1606 578 1650 549 1623 559 b 1579 669 1588 598 1579 629 l 1579 738 b 1606 827 1579 777 1588 807 b 1688 857 1623 847 1650 857 l 1753 857 b 1838 827 1793 857 1821 847 b 1863 738 1854 807 1863 777 z m 1431 86 l 2008 86 l 2008 261 l 1431 261 z "},"™":{"ha":1050,"x_min":0,"x_max":0,"o":"m 701 757 b 692 760 698 757 695 758 b 688 772 690 763 688 767 l 668 914 b 617 1027 661 968 644 1005 b 518 1060 591 1049 558 1060 b 418 1023 475 1060 442 1047 b 379 922 394 998 381 965 l 365 642 l 499 642 l 508 900 b 511 917 508 907 509 913 b 521 924 513 922 516 924 b 530 917 525 924 528 922 b 535 901 532 913 534 908 l 556 757 b 609 658 562 710 580 677 b 701 631 638 640 669 631 b 794 658 736 631 766 640 b 844 757 821 677 838 710 l 865 901 b 870 917 866 908 868 913 b 881 924 872 922 876 924 b 889 917 884 924 887 922 b 892 900 891 913 892 907 l 901 642 l 1036 642 l 1022 922 b 984 1023 1020 965 1008 998 b 883 1060 960 1047 927 1060 b 788 1026 848 1060 816 1048 b 735 914 760 1003 742 966 l 714 772 b 710 761 713 768 712 764 b 701 757 708 758 705 757 z m 101 642 l 247 642 l 247 921 l 349 921 l 349 1049 l 0 1049 l 0 921 l 101 921 z "},"⅓":{"ha":1181,"x_min":0,"x_max":0,"o":"m 853 582 l 1097 1042 l 875 1042 l 632 582 z m 131 582 l 543 582 l 543 714 l 425 714 l 425 906 b 383 1001 425 942 411 973 b 281 1042 356 1028 321 1042 l 131 1042 l 131 906 l 232 906 b 245 901 238 906 242 904 b 250 886 248 897 250 893 l 250 714 l 131 714 z m 328 460 l 83 0 l 306 0 l 549 460 z m 746 292 b 704 258 727 280 713 268 b 690 219 695 247 690 234 b 706 186 690 207 695 196 b 751 171 716 176 731 171 l 865 171 l 865 133 l 639 133 l 639 0 l 831 0 b 976 35 894 0 943 12 b 1025 128 1009 58 1025 89 l 1025 168 b 1001 230 1025 188 1017 209 b 907 269 986 251 954 264 l 1018 342 l 1018 460 l 628 460 l 628 326 l 799 326 z "},"←":{"ha":1103,"x_min":0,"x_max":0,"o":"m 1047 646 l 422 646 l 868 1042 l 510 1042 l 136 703 b 53 609 98 669 71 637 b 28 519 36 581 28 551 b 52 432 28 488 36 459 b 135 339 68 405 96 374 l 510 -1 l 868 -1 l 422 396 l 1047 396 z "},"↑":{"ha":1210,"x_min":0,"x_max":0,"o":"m 744 0 l 744 679 l 1154 335 l 1154 651 l 788 942 b 690 1019 748 973 715 999 b 604 1050 664 1040 636 1050 b 522 1021 573 1050 545 1040 b 424 943 498 1001 465 975 l 56 651 l 56 335 l 467 679 l 467 0 z "},"→":{"ha":1103,"x_min":0,"x_max":0,"o":"m 235 -1 l 593 -1 l 967 338 b 1049 431 1005 372 1032 403 b 1075 521 1066 459 1075 489 b 1051 608 1075 552 1067 581 b 968 701 1034 635 1007 666 l 593 1042 l 235 1042 l 681 644 l 56 644 l 56 394 l 681 394 z "},"↓":{"ha":1210,"x_min":0,"x_max":0,"o":"m 744 1042 l 467 1042 l 467 363 l 56 707 l 56 390 l 424 99 b 522 21 465 66 498 40 b 604 -8 545 1 573 -8 b 690 22 636 -8 664 2 b 788 100 715 43 748 69 l 1154 390 l 1154 707 l 744 363 z "},"↖":{"ha":1094,"x_min":0,"x_max":0,"o":"m 1039 254 l 531 763 l 1039 763 l 1039 1010 l 342 1010 b 217 1001 291 1010 249 1007 b 136 957 185 995 158 980 b 93 878 114 935 100 908 b 83 754 87 847 83 806 l 83 56 l 331 56 l 331 564 l 839 56 z "},"↗":{"ha":1094,"x_min":0,"x_max":0,"o":"m 56 254 l 256 56 l 764 564 l 764 56 l 1011 56 l 1011 754 b 1001 878 1011 806 1008 847 b 958 957 995 908 981 935 b 877 1001 936 980 909 995 b 753 1010 845 1007 804 1010 l 56 1010 l 56 763 l 564 763 z "},"↘":{"ha":1094,"x_min":0,"x_max":0,"o":"m 56 279 l 56 32 l 753 32 b 877 41 804 32 845 35 b 958 85 909 47 936 62 b 1001 164 981 107 995 133 b 1011 288 1008 194 1011 236 l 1011 986 l 764 986 l 764 478 l 256 986 l 56 788 l 564 279 z "},"↙":{"ha":1094,"x_min":0,"x_max":0,"o":"m 1039 279 l 531 279 l 1039 788 l 839 986 l 331 478 l 331 986 l 83 986 l 83 288 b 93 164 83 236 87 194 b 136 85 100 133 114 107 b 217 41 158 62 185 47 b 342 32 249 35 291 32 l 1039 32 z "},"−":{"ha":731,"x_min":0,"x_max":0,"o":"m 69 410 l 661 410 l 661 632 l 69 632 z "},"■":{"ha":931,"x_min":0,"x_max":0,"o":"m 804 183 l 804 860 l 128 860 l 128 183 z "},"▲":{"ha":960,"x_min":0,"x_max":0,"o":"m 119 258 l 840 258 l 479 882 z "},"▶":{"ha":847,"x_min":0,"x_max":0,"o":"m 119 882 l 119 161 l 743 522 z "},"▼":{"ha":960,"x_min":0,"x_max":0,"o":"m 119 811 l 479 188 l 840 811 z "},"◀":{"ha":847,"x_min":0,"x_max":0,"o":"m 728 882 l 104 522 l 728 161 z "},"●":{"ha":1004,"x_min":0,"x_max":0,"o":"m 501 158 b 678 176 571 158 630 164 b 794 234 726 187 765 207 b 859 345 824 261 846 298 b 879 519 872 392 879 450 b 859 700 879 593 872 653 b 794 812 846 747 824 784 b 678 869 765 839 726 858 b 501 885 630 879 571 885 b 325 869 432 885 373 879 b 209 812 277 858 238 839 b 145 700 180 784 159 747 b 125 519 132 653 125 593 b 145 345 125 450 132 392 b 209 234 159 298 180 261 b 325 176 238 207 277 187 b 501 158 373 164 432 158 z "},"":{"ha":885,"x_min":0,"x_max":0,"o":"m 301 -261 l 508 -261 b 542 -164 526 -217 537 -184 b 549 -90 546 -144 549 -119 l 549 -56 l 338 -56 l 338 -90 b 331 -164 338 -119 335 -144 b 301 -261 326 -184 316 -217 z "}}}
